M48
; DRILL file {KiCad 7.0.11-7.0.11~ubuntu22.04.1} date Thu 10 Apr 2025 12:24:43
; FORMAT={-:-/ absolute / metric / decimal}
; #@! TF.CreationDate,2025-04-10T12:24:43+02:00
; #@! TF.GenerationSoftware,Kicad,Pcbnew,7.0.11-7.0.11~ubuntu22.04.1
; #@! TF.FileFunction,Plated,1,2,PTH
FMAT,2
METRIC
; #@! TA.AperFunction,Plated,PTH,ComponentDrill
T1C0.600
; #@! TA.AperFunction,Plated,PTH,ComponentDrill
T2C0.700
; #@! TA.AperFunction,Plated,PTH,ComponentDrill
T3C0.750
; #@! TA.AperFunction,Plated,PTH,ComponentDrill
T4C0.762
; #@! TA.AperFunction,Plated,PTH,ComponentDrill
T5C0.800
; #@! TA.AperFunction,Plated,PTH,ComponentDrill
T6C0.890
; #@! TA.AperFunction,Plated,PTH,ComponentDrill
T7C0.900
; #@! TA.AperFunction,Plated,PTH,ComponentDrill
T8C2.010
; #@! TA.AperFunction,Plated,PTH,ComponentDrill
T9C4.300
%
G90
G05
T1
X127.95Y-87.527
X127.95Y-89.027
X138.15Y-112.45
X139.65Y-112.45
T2
X114.933Y-89.069
X115.06Y-109.95
X117.473Y-91.609
X117.6Y-107.41
X117.6Y-112.49
X120.013Y-89.069
T3
X163.3Y-83.7
X163.3Y-84.97
X163.3Y-86.24
T4
X125.84Y-126.15
X125.84Y-133.77
X128.38Y-126.15
X128.38Y-133.77
X130.92Y-126.15
X130.92Y-133.77
X133.46Y-126.15
X133.46Y-133.77
X134.7Y-86.42
X134.7Y-88.96
X134.7Y-91.5
X134.7Y-94.04
X134.7Y-96.58
X134.7Y-99.12
X134.7Y-101.66
X134.7Y-104.2
X136.0Y-126.15
X136.0Y-133.77
X138.54Y-126.15
X138.54Y-133.77
X141.08Y-126.15
X141.08Y-133.77
X142.32Y-86.42
X142.32Y-88.96
X142.32Y-91.5
X142.32Y-94.04
X142.32Y-96.58
X142.32Y-99.12
X142.32Y-101.66
X142.32Y-104.2
X143.62Y-126.15
X143.62Y-133.77
X190.15Y-114.5
X190.15Y-124.5
X192.65Y-112.0
X192.65Y-119.5
X192.65Y-127.0
T5
X102.14Y-106.8
X105.9Y-114.55
X105.9Y-134.55
X109.76Y-106.8
X113.18Y-120.7
X113.33Y-98.7
X113.53Y-78.4
X116.15Y-127.85
X116.15Y-130.35
X120.8Y-120.7
X120.95Y-98.7
X121.15Y-78.4
X124.88Y-114.35
X124.94Y-108.1
X125.13Y-120.7
X127.8Y-94.25
X127.8Y-101.75
X132.5Y-114.35
X132.56Y-108.1
X132.75Y-120.7
X134.59Y-78.5
X136.14Y-120.7
X142.21Y-78.5
X143.76Y-120.7
X143.99Y-110.85
X149.8Y-88.35
X149.8Y-95.97
X149.8Y-100.46
X149.8Y-102.96
X149.85Y-76.79
X149.85Y-84.41
X151.61Y-110.85
X151.85Y-126.64
X151.85Y-134.26
X151.9Y-115.69
X151.9Y-123.31
X157.34Y-113.3
X157.38Y-107.0
X157.48Y-119.85
X157.83Y-126.33
X157.83Y-128.87
X157.83Y-131.41
X157.83Y-133.95
X159.39Y-77.5
X159.5Y-91.89
X159.5Y-99.51
X164.96Y-113.3
X165.0Y-107.0
X165.1Y-119.85
X165.45Y-126.33
X165.45Y-128.87
X165.45Y-131.41
X165.45Y-133.95
X166.1Y-91.84
X166.1Y-99.46
X167.01Y-77.5
X171.63Y-133.9
X171.69Y-127.65
X171.78Y-121.35
X172.24Y-96.15
X172.28Y-83.35
X172.34Y-102.65
X172.45Y-115.25
X172.5Y-109.05
X172.54Y-89.7
X179.25Y-133.9
X179.31Y-127.65
X179.4Y-121.35
X179.86Y-96.15
X179.9Y-83.35
X179.95Y-115.25
X179.96Y-102.65
X180.0Y-109.05
X180.16Y-89.7
X195.6Y-98.19
X195.6Y-105.81
X202.6Y-98.29
X202.6Y-105.91
T6
X91.3Y-106.6
X91.3Y-109.14
X91.65Y-81.6
X91.65Y-84.14
X91.83Y-131.93
X91.83Y-134.47
T7
X187.55Y-100.65
X187.55Y-103.19
X191.5Y-90.4
X194.0Y-90.4
X196.5Y-90.4
T8
X86.22Y-101.52
X86.22Y-111.68
X86.57Y-76.52
X86.57Y-86.68
X86.75Y-126.85
X86.75Y-137.01
T9
X98.0Y-69.1
X98.0Y-144.8
X200.45Y-69.1
X200.45Y-144.8
M30
