%TF.GenerationSoftware,KiCad,Pcbnew,7.0.11-7.0.11~ubuntu22.04.1*%
%TF.CreationDate,2025-04-10T12:25:00+02:00*%
%TF.ProjectId,emulator-pcb,656d756c-6174-46f7-922d-7063622e6b69,rev?*%
%TF.SameCoordinates,Original*%
%TF.FileFunction,Soldermask,Bot*%
%TF.FilePolarity,Negative*%
%FSLAX46Y46*%
G04 Gerber Fmt 4.6, Leading zero omitted, Abs format (unit mm)*
G04 Created by KiCad (PCBNEW 7.0.11-7.0.11~ubuntu22.04.1) date 2025-04-10 12:25:00*
%MOMM*%
%LPD*%
G01*
G04 APERTURE LIST*
%ADD10C,7.500000*%
%ADD11O,1.600000X1.600000*%
%ADD12C,1.600000*%
%ADD13R,1.400000X1.400000*%
%ADD14C,1.400000*%
%ADD15C,1.524000*%
%ADD16R,1.900000X1.900000*%
%ADD17C,1.900000*%
%ADD18O,2.500000X1.600000*%
%ADD19O,7.000000X3.500000*%
%ADD20R,1.800000X1.800000*%
%ADD21C,1.800000*%
%ADD22R,1.200000X1.200000*%
%ADD23C,1.200000*%
%ADD24R,1.600000X1.600000*%
%ADD25R,1.500000X1.050000*%
%ADD26O,1.500000X1.050000*%
G04 APERTURE END LIST*
D10*
%TO.C,Mount4*%
X98000000Y-144800000D03*
%TD*%
%TO.C,Mount3*%
X200450000Y-144800000D03*
%TD*%
%TO.C,Mount2*%
X200450000Y-69100000D03*
%TD*%
%TO.C,Mount1*%
X98000000Y-69100000D03*
%TD*%
D11*
%TO.C,R17*%
X132750000Y-120700000D03*
D12*
X125130000Y-120700000D03*
%TD*%
%TO.C,R9*%
X151850000Y-126640000D03*
D11*
X151850000Y-134260000D03*
%TD*%
D12*
%TO.C,R22*%
X179250000Y-133900000D03*
D11*
X171630000Y-133900000D03*
%TD*%
D13*
%TO.C,RV1*%
X117600000Y-112490000D03*
D14*
X115060000Y-109950000D03*
X117600000Y-107410000D03*
%TD*%
D15*
%TO.C,U3*%
X142320000Y-86420000D03*
X142320000Y-88960000D03*
X142320000Y-91500000D03*
X142320000Y-94040000D03*
X142320000Y-96580000D03*
X142320000Y-99120000D03*
X142320000Y-101660000D03*
X142320000Y-104200000D03*
X134700000Y-104200000D03*
X134700000Y-101660000D03*
X134700000Y-99120000D03*
X134700000Y-96580000D03*
X134700000Y-94040000D03*
X134700000Y-91500000D03*
X134700000Y-88960000D03*
X134700000Y-86420000D03*
%TD*%
D12*
%TO.C,R20*%
X149850000Y-84410000D03*
D11*
X149850000Y-76790000D03*
%TD*%
D16*
%TO.C,S1*%
X191500000Y-90400000D03*
D17*
X194000000Y-90400000D03*
X196500000Y-90400000D03*
%TD*%
D11*
%TO.C,R12*%
X166100000Y-99460000D03*
D12*
X166100000Y-91840000D03*
%TD*%
D18*
%TO.C,J3*%
X91650000Y-81600000D03*
D19*
X86570000Y-86680000D03*
D18*
X91650000Y-84140000D03*
D19*
X86570000Y-76520000D03*
%TD*%
D11*
%TO.C,C7*%
X172450000Y-115250000D03*
D12*
X179950000Y-115250000D03*
%TD*%
%TO.C,R21*%
X157480000Y-119850000D03*
D11*
X165100000Y-119850000D03*
%TD*%
D12*
%TO.C,R29*%
X179860000Y-96150000D03*
D11*
X172240000Y-96150000D03*
%TD*%
D12*
%TO.C,R7*%
X151900000Y-115690000D03*
D11*
X151900000Y-123310000D03*
%TD*%
D12*
%TO.C,R1*%
X179400000Y-121350000D03*
D11*
X171780000Y-121350000D03*
%TD*%
D12*
%TO.C,C5*%
X127800000Y-94250000D03*
D11*
X127800000Y-101750000D03*
%TD*%
D12*
%TO.C,R10*%
X172340000Y-102650000D03*
D11*
X179960000Y-102650000D03*
%TD*%
D12*
%TO.C,R2*%
X143990000Y-110850000D03*
D11*
X151610000Y-110850000D03*
%TD*%
D12*
%TO.C,R23*%
X167010000Y-77500000D03*
D11*
X159390000Y-77500000D03*
%TD*%
D12*
%TO.C,R5*%
X157340000Y-113300000D03*
D11*
X164960000Y-113300000D03*
%TD*%
D20*
%TO.C,D1*%
X187550000Y-100650000D03*
D21*
X187550000Y-103190000D03*
%TD*%
D12*
%TO.C,R25*%
X159500000Y-99510000D03*
D11*
X159500000Y-91890000D03*
%TD*%
D13*
%TO.C,RV2*%
X120013000Y-89069000D03*
D14*
X117473000Y-91609000D03*
X114933000Y-89069000D03*
%TD*%
D22*
%TO.C,C8*%
X138150000Y-112450000D03*
D23*
X139650000Y-112450000D03*
%TD*%
D12*
%TO.C,C1*%
X105900000Y-134550000D03*
D11*
X105900000Y-114550000D03*
%TD*%
D12*
%TO.C,R8*%
X121150000Y-78400000D03*
D11*
X113530000Y-78400000D03*
%TD*%
%TO.C,R24*%
X172280000Y-83350000D03*
D12*
X179900000Y-83350000D03*
%TD*%
D24*
%TO.C,C2*%
X116150000Y-130350000D03*
D12*
X116150000Y-127850000D03*
%TD*%
D15*
%TO.C,U2*%
X143620000Y-126150000D03*
X141080000Y-126150000D03*
X138540000Y-126150000D03*
X136000000Y-126150000D03*
X133460000Y-126150000D03*
X130920000Y-126150000D03*
X128380000Y-126150000D03*
X125840000Y-126150000D03*
X125840000Y-133770000D03*
X128380000Y-133770000D03*
X130920000Y-133770000D03*
X133460000Y-133770000D03*
X136000000Y-133770000D03*
X138540000Y-133770000D03*
X141080000Y-133770000D03*
X143620000Y-133770000D03*
%TD*%
D12*
%TO.C,R4*%
X109760000Y-106800000D03*
D11*
X102140000Y-106800000D03*
%TD*%
D12*
%TO.C,R27*%
X195600000Y-98190000D03*
D11*
X195600000Y-105810000D03*
%TD*%
D12*
%TO.C,C3*%
X180000000Y-109050000D03*
D11*
X172500000Y-109050000D03*
%TD*%
%TO.C,R26*%
X172540000Y-89700000D03*
D12*
X180160000Y-89700000D03*
%TD*%
D18*
%TO.C,J2*%
X91830000Y-131930000D03*
D19*
X86750000Y-137010000D03*
D18*
X91830000Y-134470000D03*
D19*
X86750000Y-126850000D03*
%TD*%
D11*
%TO.C,R19*%
X149800000Y-88350000D03*
D12*
X149800000Y-95970000D03*
%TD*%
D23*
%TO.C,C4*%
X127950000Y-89027401D03*
D22*
X127950000Y-87527401D03*
%TD*%
D11*
%TO.C,R16*%
X120950000Y-98700000D03*
D12*
X113330000Y-98700000D03*
%TD*%
D18*
%TO.C,J1*%
X91300000Y-106600000D03*
D19*
X86220000Y-111680000D03*
D18*
X91300000Y-109140000D03*
D19*
X86220000Y-101520000D03*
%TD*%
D11*
%TO.C,R13*%
X179310000Y-127650000D03*
D12*
X171690000Y-127650000D03*
%TD*%
%TO.C,R3*%
X124880000Y-114350000D03*
D11*
X132500000Y-114350000D03*
%TD*%
D24*
%TO.C,U1*%
X165450000Y-133950000D03*
D11*
X165450000Y-131410000D03*
X165450000Y-128870000D03*
X165450000Y-126330000D03*
X157830000Y-126330000D03*
X157830000Y-128870000D03*
X157830000Y-131410000D03*
X157830000Y-133950000D03*
%TD*%
D25*
%TO.C,Q1*%
X163300000Y-86240000D03*
D26*
X163300000Y-84970000D03*
X163300000Y-83700000D03*
%TD*%
D12*
%TO.C,R6*%
X142210000Y-78500000D03*
D11*
X134590000Y-78500000D03*
%TD*%
D12*
%TO.C,R15*%
X124940000Y-108100000D03*
D11*
X132560000Y-108100000D03*
%TD*%
%TO.C,R14*%
X165000000Y-107000000D03*
D12*
X157380000Y-107000000D03*
%TD*%
D15*
%TO.C,J4*%
X202550000Y-117000000D03*
X202550000Y-122000000D03*
X192649994Y-111999990D03*
X192649994Y-119500000D03*
X192649994Y-127000010D03*
X190149994Y-114500010D03*
X190149994Y-124499990D03*
%TD*%
D12*
%TO.C,R11*%
X120800000Y-120700000D03*
D11*
X113180000Y-120700000D03*
%TD*%
%TO.C,R28*%
X202600000Y-98290000D03*
D12*
X202600000Y-105910000D03*
%TD*%
%TO.C,R18*%
X136140000Y-120700000D03*
D11*
X143760000Y-120700000D03*
%TD*%
D24*
%TO.C,C6*%
X149800000Y-102960000D03*
D12*
X149800000Y-100460000D03*
%TD*%
M02*
