M48
; DRILL file {KiCad 7.0.11-7.0.11~ubuntu22.04.1} date Fri 04 Apr 2025 02:53:50
; FORMAT={-:-/ absolute / metric / decimal}
; #@! TF.CreationDate,2025-04-04T02:53:50+02:00
; #@! TF.GenerationSoftware,Kicad,Pcbnew,7.0.11-7.0.11~ubuntu22.04.1
; #@! TF.FileFunction,Plated,1,2,PTH
FMAT,2
METRIC
; #@! TA.AperFunction,Plated,PTH,ComponentDrill
T1C0.660
; #@! TA.AperFunction,Plated,PTH,ComponentDrill
T2C0.800
; #@! TA.AperFunction,Plated,PTH,ComponentDrill
T3C0.890
; #@! TA.AperFunction,Plated,PTH,ComponentDrill
T4C0.900
; #@! TA.AperFunction,Plated,PTH,ComponentDrill
T5C0.950
; #@! TA.AperFunction,Plated,PTH,ComponentDrill
T6C2.010
; #@! TA.AperFunction,Plated,PTH,ComponentDrill
T7C4.300
%
G90
G05
T2
X106.553Y-45.974
X106.807Y-86.741
X106.807Y-92.837
X106.934Y-99.949
X110.49Y-73.533
X110.49Y-81.153
X114.173Y-45.974
X114.427Y-86.741
X114.427Y-92.837
X114.554Y-99.949
X129.54Y-100.584
X129.677Y-86.624
X129.677Y-89.164
X129.677Y-91.704
X129.677Y-94.244
X129.794Y-80.01
X137.16Y-100.584
X137.297Y-86.624
X137.297Y-89.164
X137.297Y-91.704
X137.297Y-94.244
X137.414Y-80.01
X151.511Y-80.01
X155.702Y-100.838
X159.131Y-80.01
X163.322Y-100.838
X165.618Y-86.878
X165.618Y-89.418
X165.618Y-91.958
X165.618Y-94.498
X173.238Y-86.878
X173.238Y-89.418
X173.238Y-91.958
X173.238Y-94.498
T3
X110.744Y-110.434
X113.284Y-110.434
X140.744Y-110.434
X143.284Y-110.434
X168.824Y-110.514
X171.364Y-110.514
T4
X109.163Y-64.77
X109.479Y-54.991
X111.663Y-64.77
X112.019Y-54.991
X114.163Y-64.77
T5
X150.368Y-86.734
X150.368Y-89.234
X150.368Y-91.734
X150.368Y-94.234
T6
X105.664Y-115.514
X115.824Y-115.514
X135.664Y-115.514
X145.824Y-115.514
X163.744Y-115.594
X173.904Y-115.594
T7
X99.4Y-38.0
X99.4Y-82.0
X180.4Y-38.0
T1
G00X121.08Y-53.175
M15
G01X121.08Y-54.785
M16
G05
G00X121.08Y-66.055
M15
G01X121.08Y-67.665
M16
G05
M30
