%TF.GenerationSoftware,KiCad,Pcbnew,7.0.11-7.0.11~ubuntu22.04.1*%
%TF.CreationDate,2025-04-04T19:28:45+02:00*%
%TF.ProjectId,signal-conditioning-pcb,7369676e-616c-42d6-936f-6e646974696f,v01*%
%TF.SameCoordinates,Original*%
%TF.FileFunction,Copper,L2,Bot*%
%TF.FilePolarity,Positive*%
%FSLAX46Y46*%
G04 Gerber Fmt 4.6, Leading zero omitted, Abs format (unit mm)*
G04 Created by KiCad (PCBNEW 7.0.11-7.0.11~ubuntu22.04.1) date 2025-04-04 19:28:45*
%MOMM*%
%LPD*%
G01*
G04 APERTURE LIST*
G04 Aperture macros list*
%AMRoundRect*
0 Rectangle with rounded corners*
0 $1 Rounding radius*
0 $2 $3 $4 $5 $6 $7 $8 $9 X,Y pos of 4 corners*
0 Add a 4 corners polygon primitive as box body*
4,1,4,$2,$3,$4,$5,$6,$7,$8,$9,$2,$3,0*
0 Add four circle primitives for the rounded corners*
1,1,$1+$1,$2,$3*
1,1,$1+$1,$4,$5*
1,1,$1+$1,$6,$7*
1,1,$1+$1,$8,$9*
0 Add four rect primitives between the rounded corners*
20,1,$1+$1,$2,$3,$4,$5,0*
20,1,$1+$1,$4,$5,$6,$7,0*
20,1,$1+$1,$6,$7,$8,$9,0*
20,1,$1+$1,$8,$9,$2,$3,0*%
G04 Aperture macros list end*
%TA.AperFunction,ComponentPad*%
%ADD10C,5.700000*%
%TD*%
%TA.AperFunction,WasherPad*%
%ADD11C,2.300000*%
%TD*%
%TA.AperFunction,ComponentPad*%
%ADD12R,2.410000X4.020000*%
%TD*%
%TA.AperFunction,ComponentPad*%
%ADD13O,2.410000X4.020000*%
%TD*%
%TA.AperFunction,ComponentPad*%
%ADD14O,1.600000X2.500000*%
%TD*%
%TA.AperFunction,ComponentPad*%
%ADD15O,3.500000X7.000000*%
%TD*%
%TA.AperFunction,ComponentPad*%
%ADD16C,1.600000*%
%TD*%
%TA.AperFunction,ComponentPad*%
%ADD17O,1.600000X1.600000*%
%TD*%
%TA.AperFunction,ComponentPad*%
%ADD18R,1.600000X1.600000*%
%TD*%
%TA.AperFunction,ComponentPad*%
%ADD19R,1.900000X1.900000*%
%TD*%
%TA.AperFunction,ComponentPad*%
%ADD20C,1.900000*%
%TD*%
%TA.AperFunction,ComponentPad*%
%ADD21R,1.800000X1.800000*%
%TD*%
%TA.AperFunction,ComponentPad*%
%ADD22C,1.800000*%
%TD*%
%TA.AperFunction,ComponentPad*%
%ADD23RoundRect,0.250000X0.725000X-0.600000X0.725000X0.600000X-0.725000X0.600000X-0.725000X-0.600000X0*%
%TD*%
%TA.AperFunction,ComponentPad*%
%ADD24O,1.950000X1.700000*%
%TD*%
%TA.AperFunction,Conductor*%
%ADD25C,0.200000*%
%TD*%
G04 APERTURE END LIST*
D10*
%TO.P,Mount4,1*%
%TO.N,GND*%
X180400000Y-126000000D03*
%TD*%
%TO.P,Mount2,1*%
%TO.N,GND*%
X180400000Y-38000000D03*
%TD*%
%TO.P,Mount3,1*%
%TO.N,GND*%
X99400000Y-126000000D03*
%TD*%
%TO.P,Mount1,1*%
%TO.N,GND*%
X99400000Y-38000000D03*
%TD*%
D11*
%TO.P,BT1,*%
%TO.N,*%
X133370000Y-71600000D03*
X146860000Y-49250000D03*
X160340000Y-71600000D03*
D12*
%TO.P,BT1,1,+*%
%TO.N,Net-(BT1-+)*%
X121080000Y-53980000D03*
D13*
%TO.P,BT1,2,-*%
%TO.N,GND*%
X121080000Y-66860000D03*
%TD*%
D14*
%TO.P,J3,1,In*%
%TO.N,V_penin*%
X110744000Y-110434000D03*
D15*
%TO.P,J3,2,Ext*%
%TO.N,GND*%
X115824000Y-115514000D03*
D14*
X113284000Y-110434000D03*
D15*
X105664000Y-115514000D03*
%TD*%
D14*
%TO.P,J1,1,In*%
%TO.N,V_hin*%
X168824000Y-110514000D03*
D15*
%TO.P,J1,2,Ext*%
%TO.N,GND*%
X173904000Y-115594000D03*
D14*
X171364000Y-110514000D03*
D15*
X163744000Y-115594000D03*
%TD*%
D16*
%TO.P,R4,1*%
%TO.N,V_penin*%
X106934000Y-99949000D03*
D17*
%TO.P,R4,2*%
%TO.N,Net-(U1B-+)*%
X114554000Y-99949000D03*
%TD*%
D16*
%TO.P,R8,1*%
%TO.N,3V3*%
X159131000Y-80010000D03*
D17*
%TO.P,R8,2*%
%TO.N,Net-(U1A-+)*%
X151511000Y-80010000D03*
%TD*%
D18*
%TO.P,U1,1*%
%TO.N,V_hout*%
X165618000Y-86878000D03*
D17*
%TO.P,U1,2,-*%
X165618000Y-89418000D03*
%TO.P,U1,3,+*%
%TO.N,Net-(U1A-+)*%
X165618000Y-91958000D03*
%TO.P,U1,4,V-*%
%TO.N,GND*%
X165618000Y-94498000D03*
%TO.P,U1,5,+*%
%TO.N,Net-(U1B-+)*%
X173238000Y-94498000D03*
%TO.P,U1,6,-*%
%TO.N,V_penout*%
X173238000Y-91958000D03*
%TO.P,U1,7*%
X173238000Y-89418000D03*
%TO.P,U1,8,V+*%
%TO.N,+9V*%
X173238000Y-86878000D03*
%TD*%
D16*
%TO.P,R6,1*%
%TO.N,V_vin*%
X114427000Y-86741000D03*
D17*
%TO.P,R6,2*%
%TO.N,Net-(U2A--)*%
X106807000Y-86741000D03*
%TD*%
D18*
%TO.P,U2,1*%
%TO.N,V_vout*%
X129677000Y-86624000D03*
D17*
%TO.P,U2,2,-*%
%TO.N,Net-(U2A--)*%
X129677000Y-89164000D03*
%TO.P,U2,3,+*%
%TO.N,Net-(U2A-+)*%
X129677000Y-91704000D03*
%TO.P,U2,4,V-*%
%TO.N,GND*%
X129677000Y-94244000D03*
%TO.P,U2,5,+*%
%TO.N,unconnected-(U2B-+-Pad5)*%
X137297000Y-94244000D03*
%TO.P,U2,6,-*%
%TO.N,unconnected-(U2B---Pad6)*%
X137297000Y-91704000D03*
%TO.P,U2,7*%
%TO.N,unconnected-(U2-Pad7)*%
X137297000Y-89164000D03*
%TO.P,U2,8,V+*%
%TO.N,+9V*%
X137297000Y-86624000D03*
%TD*%
D16*
%TO.P,R2,1*%
%TO.N,Net-(U1A-+)*%
X137414000Y-80010000D03*
D17*
%TO.P,R2,2*%
%TO.N,GND*%
X129794000Y-80010000D03*
%TD*%
D19*
%TO.P,S1,1*%
%TO.N,+9V*%
X114163000Y-64770000D03*
D20*
%TO.P,S1,2*%
%TO.N,Net-(BT1-+)*%
X111663000Y-64770000D03*
%TO.P,S1,3*%
%TO.N,unconnected-(S1-Pad3)*%
X109163000Y-64770000D03*
%TD*%
D16*
%TO.P,R9,1*%
%TO.N,Net-(D1-A)*%
X114173000Y-45974000D03*
D17*
%TO.P,R9,2*%
%TO.N,+9V*%
X106553000Y-45974000D03*
%TD*%
D16*
%TO.P,R3,1*%
%TO.N,Net-(U2A--)*%
X110490000Y-81153000D03*
D17*
%TO.P,R3,2*%
%TO.N,V_vout*%
X110490000Y-73533000D03*
%TD*%
D16*
%TO.P,R5,1*%
%TO.N,Net-(U1B-+)*%
X114427000Y-92837000D03*
D17*
%TO.P,R5,2*%
%TO.N,GND*%
X106807000Y-92837000D03*
%TD*%
D16*
%TO.P,R1,1*%
%TO.N,V_hin*%
X163322000Y-100838000D03*
D17*
%TO.P,R1,2*%
%TO.N,Net-(U1A-+)*%
X155702000Y-100838000D03*
%TD*%
D16*
%TO.P,R7,1*%
%TO.N,Net-(U2A-+)*%
X129540000Y-100584000D03*
D17*
%TO.P,R7,2*%
%TO.N,GND*%
X137160000Y-100584000D03*
%TD*%
D21*
%TO.P,D1,1,K*%
%TO.N,GND*%
X112019000Y-54991000D03*
D22*
%TO.P,D1,2,A*%
%TO.N,Net-(D1-A)*%
X109479000Y-54991000D03*
%TD*%
D23*
%TO.P,J5,1,Pin_1*%
%TO.N,V_penout*%
X150368000Y-94234000D03*
D24*
%TO.P,J5,2,Pin_2*%
%TO.N,V_hout*%
X150368000Y-91734000D03*
%TO.P,J5,3,Pin_3*%
%TO.N,V_vout*%
X150368000Y-89234000D03*
%TO.P,J5,4,Pin_4*%
%TO.N,3V3*%
X150368000Y-86734000D03*
%TD*%
D14*
%TO.P,J2,1,In*%
%TO.N,V_vin*%
X140744000Y-110434000D03*
D15*
%TO.P,J2,2,Ext*%
%TO.N,GND*%
X145824000Y-115514000D03*
D14*
X143284000Y-110434000D03*
D15*
X135664000Y-115514000D03*
%TD*%
D25*
%TO.N,V_vout*%
X155575000Y-84328000D02*
X130683000Y-84328000D01*
X150368000Y-89154000D02*
X154686000Y-89154000D01*
X129677000Y-85334000D02*
X129677000Y-86624000D01*
X156337000Y-87503000D02*
X156337000Y-85090000D01*
X154686000Y-89154000D02*
X156337000Y-87503000D01*
X156337000Y-85090000D02*
X155575000Y-84328000D01*
X130683000Y-84328000D02*
X129677000Y-85334000D01*
%TO.N,Net-(U1B-+)*%
X173238000Y-98161000D02*
X166624000Y-104775000D01*
X173238000Y-94498000D02*
X173238000Y-98161000D01*
X166624000Y-104775000D02*
X119380000Y-104775000D01*
X119380000Y-104775000D02*
X114554000Y-99949000D01*
%TO.N,V_penout*%
X173238000Y-89418000D02*
X174996000Y-89418000D01*
X176149000Y-84201000D02*
X173609000Y-81661000D01*
X164211000Y-81661000D02*
X161163000Y-84709000D01*
X173609000Y-81661000D02*
X164211000Y-81661000D01*
X156210000Y-94234000D02*
X150368000Y-94234000D01*
X174996000Y-89418000D02*
X176149000Y-88265000D01*
X161163000Y-89281000D02*
X156210000Y-94234000D01*
X161163000Y-84709000D02*
X161163000Y-89281000D01*
X176149000Y-88265000D02*
X176149000Y-84201000D01*
%TD*%
%TA.AperFunction,Conductor*%
%TO.N,GND*%
G36*
X185841621Y-32520502D02*
G01*
X185888114Y-32574158D01*
X185899500Y-32626500D01*
X185899500Y-131373500D01*
X185879498Y-131441621D01*
X185825842Y-131488114D01*
X185773500Y-131499500D01*
X94026500Y-131499500D01*
X93958379Y-131479498D01*
X93911886Y-131425842D01*
X93900500Y-131373500D01*
X93900500Y-126000003D01*
X96045080Y-126000003D01*
X96064747Y-126362731D01*
X96123515Y-126721205D01*
X96123515Y-126721208D01*
X96220697Y-127071227D01*
X96220698Y-127071230D01*
X96355152Y-127408682D01*
X96355156Y-127408691D01*
X96525310Y-127729637D01*
X96525312Y-127729641D01*
X96729170Y-128030309D01*
X96729169Y-128030309D01*
X96860969Y-128185476D01*
X98102266Y-126944180D01*
X98265130Y-127134870D01*
X98455818Y-127297732D01*
X97211887Y-128541663D01*
X97228065Y-128556987D01*
X97228072Y-128556993D01*
X97517257Y-128776826D01*
X97517263Y-128776830D01*
X97828525Y-128964110D01*
X97828532Y-128964114D01*
X98158198Y-129116635D01*
X98158217Y-129116643D01*
X98502454Y-129232629D01*
X98502468Y-129232633D01*
X98857220Y-129310721D01*
X98857245Y-129310725D01*
X99218360Y-129349999D01*
X99218376Y-129350000D01*
X99581624Y-129350000D01*
X99581639Y-129349999D01*
X99942754Y-129310725D01*
X99942779Y-129310721D01*
X100297531Y-129232633D01*
X100297545Y-129232629D01*
X100641782Y-129116643D01*
X100641801Y-129116635D01*
X100971467Y-128964114D01*
X100971474Y-128964110D01*
X101282736Y-128776830D01*
X101282742Y-128776826D01*
X101571929Y-128556993D01*
X101571933Y-128556989D01*
X101588111Y-128541664D01*
X101588111Y-128541663D01*
X100344181Y-127297733D01*
X100534870Y-127134870D01*
X100697733Y-126944181D01*
X101939028Y-128185476D01*
X101939029Y-128185476D01*
X102070825Y-128030316D01*
X102070827Y-128030312D01*
X102274687Y-127729641D01*
X102274689Y-127729637D01*
X102444843Y-127408691D01*
X102444847Y-127408682D01*
X102579301Y-127071230D01*
X102579302Y-127071227D01*
X102676484Y-126721208D01*
X102676484Y-126721205D01*
X102735252Y-126362731D01*
X102754920Y-126000003D01*
X177045080Y-126000003D01*
X177064747Y-126362731D01*
X177123515Y-126721205D01*
X177123515Y-126721208D01*
X177220697Y-127071227D01*
X177220698Y-127071230D01*
X177355152Y-127408682D01*
X177355156Y-127408691D01*
X177525310Y-127729637D01*
X177525312Y-127729641D01*
X177729170Y-128030309D01*
X177729169Y-128030309D01*
X177860969Y-128185476D01*
X179102266Y-126944180D01*
X179265130Y-127134870D01*
X179455818Y-127297732D01*
X178211887Y-128541663D01*
X178228065Y-128556987D01*
X178228072Y-128556993D01*
X178517257Y-128776826D01*
X178517263Y-128776830D01*
X178828525Y-128964110D01*
X178828532Y-128964114D01*
X179158198Y-129116635D01*
X179158217Y-129116643D01*
X179502454Y-129232629D01*
X179502468Y-129232633D01*
X179857220Y-129310721D01*
X179857245Y-129310725D01*
X180218360Y-129349999D01*
X180218376Y-129350000D01*
X180581624Y-129350000D01*
X180581639Y-129349999D01*
X180942754Y-129310725D01*
X180942779Y-129310721D01*
X181297531Y-129232633D01*
X181297545Y-129232629D01*
X181641782Y-129116643D01*
X181641801Y-129116635D01*
X181971467Y-128964114D01*
X181971474Y-128964110D01*
X182282736Y-128776830D01*
X182282742Y-128776826D01*
X182571929Y-128556993D01*
X182571933Y-128556989D01*
X182588111Y-128541664D01*
X182588111Y-128541663D01*
X181344181Y-127297733D01*
X181534870Y-127134870D01*
X181697733Y-126944181D01*
X182939028Y-128185476D01*
X182939029Y-128185476D01*
X183070825Y-128030316D01*
X183070827Y-128030312D01*
X183274687Y-127729641D01*
X183274689Y-127729637D01*
X183444843Y-127408691D01*
X183444847Y-127408682D01*
X183579301Y-127071230D01*
X183579302Y-127071227D01*
X183676484Y-126721208D01*
X183676484Y-126721205D01*
X183735252Y-126362731D01*
X183754920Y-126000003D01*
X183754920Y-125999996D01*
X183735252Y-125637268D01*
X183676484Y-125278794D01*
X183676484Y-125278791D01*
X183579302Y-124928772D01*
X183579301Y-124928769D01*
X183444847Y-124591317D01*
X183444843Y-124591308D01*
X183274689Y-124270362D01*
X183274687Y-124270358D01*
X183070829Y-123969690D01*
X183070830Y-123969690D01*
X182939028Y-123814522D01*
X181697732Y-125055818D01*
X181534870Y-124865130D01*
X181344180Y-124702266D01*
X182588111Y-123458335D01*
X182571930Y-123443009D01*
X182282742Y-123223173D01*
X182282736Y-123223169D01*
X181971474Y-123035889D01*
X181971467Y-123035885D01*
X181641801Y-122883364D01*
X181641782Y-122883356D01*
X181297545Y-122767370D01*
X181297531Y-122767366D01*
X180942779Y-122689278D01*
X180942754Y-122689274D01*
X180581639Y-122650000D01*
X180218360Y-122650000D01*
X179857245Y-122689274D01*
X179857220Y-122689278D01*
X179502468Y-122767366D01*
X179502454Y-122767370D01*
X179158217Y-122883356D01*
X179158198Y-122883364D01*
X178828532Y-123035885D01*
X178828525Y-123035889D01*
X178517263Y-123223169D01*
X178517257Y-123223173D01*
X178228075Y-123443004D01*
X178211887Y-123458335D01*
X179455818Y-124702266D01*
X179265130Y-124865130D01*
X179102266Y-125055818D01*
X177860970Y-123814522D01*
X177729169Y-123969691D01*
X177525312Y-124270358D01*
X177525310Y-124270362D01*
X177355156Y-124591308D01*
X177355152Y-124591317D01*
X177220698Y-124928769D01*
X177220697Y-124928772D01*
X177123515Y-125278791D01*
X177123515Y-125278794D01*
X177064747Y-125637268D01*
X177045080Y-125999996D01*
X177045080Y-126000003D01*
X102754920Y-126000003D01*
X102754920Y-125999996D01*
X102735252Y-125637268D01*
X102676484Y-125278794D01*
X102676484Y-125278791D01*
X102579302Y-124928772D01*
X102579301Y-124928769D01*
X102444847Y-124591317D01*
X102444843Y-124591308D01*
X102274689Y-124270362D01*
X102274687Y-124270358D01*
X102070829Y-123969690D01*
X102070830Y-123969690D01*
X101939028Y-123814522D01*
X100697732Y-125055818D01*
X100534870Y-124865130D01*
X100344180Y-124702266D01*
X101588111Y-123458335D01*
X101571930Y-123443009D01*
X101282742Y-123223173D01*
X101282736Y-123223169D01*
X100971474Y-123035889D01*
X100971467Y-123035885D01*
X100641801Y-122883364D01*
X100641782Y-122883356D01*
X100297545Y-122767370D01*
X100297531Y-122767366D01*
X99942779Y-122689278D01*
X99942754Y-122689274D01*
X99581639Y-122650000D01*
X99218360Y-122650000D01*
X98857245Y-122689274D01*
X98857220Y-122689278D01*
X98502468Y-122767366D01*
X98502454Y-122767370D01*
X98158217Y-122883356D01*
X98158198Y-122883364D01*
X97828532Y-123035885D01*
X97828525Y-123035889D01*
X97517263Y-123223169D01*
X97517257Y-123223173D01*
X97228075Y-123443004D01*
X97211887Y-123458335D01*
X98455818Y-124702266D01*
X98265130Y-124865130D01*
X98102266Y-125055818D01*
X96860970Y-123814522D01*
X96729169Y-123969691D01*
X96525312Y-124270358D01*
X96525310Y-124270362D01*
X96355156Y-124591308D01*
X96355152Y-124591317D01*
X96220698Y-124928769D01*
X96220697Y-124928772D01*
X96123515Y-125278791D01*
X96123515Y-125278794D01*
X96064747Y-125637268D01*
X96045080Y-125999996D01*
X96045080Y-126000003D01*
X93900500Y-126000003D01*
X93900500Y-117339218D01*
X103414000Y-117339218D01*
X103429085Y-117564567D01*
X103429086Y-117564575D01*
X103489086Y-117859765D01*
X103489088Y-117859773D01*
X103587899Y-118144337D01*
X103587903Y-118144346D01*
X103723763Y-118413205D01*
X103894250Y-118661559D01*
X104096316Y-118884973D01*
X104096318Y-118884974D01*
X104326357Y-119079461D01*
X104326365Y-119079467D01*
X104580267Y-119241552D01*
X104853517Y-119368354D01*
X104853522Y-119368355D01*
X105141236Y-119457605D01*
X105414000Y-119503614D01*
X105414000Y-116488625D01*
X105561801Y-116519000D01*
X105714967Y-116519000D01*
X105867348Y-116503504D01*
X105914000Y-116488867D01*
X105914000Y-119500207D01*
X106039070Y-119487625D01*
X106332114Y-119417790D01*
X106332115Y-119417789D01*
X106613218Y-119309525D01*
X106877394Y-119164752D01*
X107119914Y-118986062D01*
X107336449Y-118776646D01*
X107523144Y-118540230D01*
X107676664Y-118281038D01*
X107794261Y-118003709D01*
X107794264Y-118003700D01*
X107873847Y-117713175D01*
X107914000Y-117414616D01*
X107914000Y-117339218D01*
X113574000Y-117339218D01*
X113589085Y-117564567D01*
X113589086Y-117564575D01*
X113649086Y-117859765D01*
X113649088Y-117859773D01*
X113747899Y-118144337D01*
X113747903Y-118144346D01*
X113883763Y-118413205D01*
X114054250Y-118661559D01*
X114256316Y-118884973D01*
X114256318Y-118884974D01*
X114486357Y-119079461D01*
X114486365Y-119079467D01*
X114740267Y-119241552D01*
X115013517Y-119368354D01*
X115013522Y-119368355D01*
X115301236Y-119457605D01*
X115574000Y-119503614D01*
X115574000Y-116488625D01*
X115721801Y-116519000D01*
X115874967Y-116519000D01*
X116027348Y-116503504D01*
X116074000Y-116488867D01*
X116074000Y-119500207D01*
X116199070Y-119487625D01*
X116492114Y-119417790D01*
X116492115Y-119417789D01*
X116773218Y-119309525D01*
X117037394Y-119164752D01*
X117279914Y-118986062D01*
X117496449Y-118776646D01*
X117683144Y-118540230D01*
X117836664Y-118281038D01*
X117954261Y-118003709D01*
X117954264Y-118003700D01*
X118033847Y-117713175D01*
X118074000Y-117414616D01*
X118074000Y-117339218D01*
X133414000Y-117339218D01*
X133429085Y-117564567D01*
X133429086Y-117564575D01*
X133489086Y-117859765D01*
X133489088Y-117859773D01*
X133587899Y-118144337D01*
X133587903Y-118144346D01*
X133723763Y-118413205D01*
X133894250Y-118661559D01*
X134096316Y-118884973D01*
X134096318Y-118884974D01*
X134326357Y-119079461D01*
X134326365Y-119079467D01*
X134580267Y-119241552D01*
X134853517Y-119368354D01*
X134853522Y-119368355D01*
X135141236Y-119457605D01*
X135414000Y-119503614D01*
X135414000Y-116488625D01*
X135561801Y-116519000D01*
X135714967Y-116519000D01*
X135867348Y-116503504D01*
X135914000Y-116488867D01*
X135914000Y-119500207D01*
X136039070Y-119487625D01*
X136332114Y-119417790D01*
X136332115Y-119417789D01*
X136613218Y-119309525D01*
X136877394Y-119164752D01*
X137119914Y-118986062D01*
X137336449Y-118776646D01*
X137523144Y-118540230D01*
X137676664Y-118281038D01*
X137794261Y-118003709D01*
X137794264Y-118003700D01*
X137873847Y-117713175D01*
X137914000Y-117414616D01*
X137914000Y-117339218D01*
X143574000Y-117339218D01*
X143589085Y-117564567D01*
X143589086Y-117564575D01*
X143649086Y-117859765D01*
X143649088Y-117859773D01*
X143747899Y-118144337D01*
X143747903Y-118144346D01*
X143883763Y-118413205D01*
X144054250Y-118661559D01*
X144256316Y-118884973D01*
X144256318Y-118884974D01*
X144486357Y-119079461D01*
X144486365Y-119079467D01*
X144740267Y-119241552D01*
X145013517Y-119368354D01*
X145013522Y-119368355D01*
X145301236Y-119457605D01*
X145574000Y-119503614D01*
X145574000Y-116488625D01*
X145721801Y-116519000D01*
X145874967Y-116519000D01*
X146027348Y-116503504D01*
X146074000Y-116488867D01*
X146074000Y-119500207D01*
X146199070Y-119487625D01*
X146492114Y-119417790D01*
X146492115Y-119417789D01*
X146773218Y-119309525D01*
X147037394Y-119164752D01*
X147279914Y-118986062D01*
X147496449Y-118776646D01*
X147683144Y-118540230D01*
X147836664Y-118281038D01*
X147954261Y-118003709D01*
X147954264Y-118003700D01*
X148033847Y-117713175D01*
X148073381Y-117419218D01*
X161494000Y-117419218D01*
X161509085Y-117644567D01*
X161509086Y-117644575D01*
X161569086Y-117939765D01*
X161569088Y-117939773D01*
X161667899Y-118224337D01*
X161667903Y-118224346D01*
X161803763Y-118493205D01*
X161974250Y-118741559D01*
X162176316Y-118964973D01*
X162176318Y-118964974D01*
X162406357Y-119159461D01*
X162406365Y-119159467D01*
X162660267Y-119321552D01*
X162933517Y-119448354D01*
X162933522Y-119448355D01*
X163221236Y-119537605D01*
X163494000Y-119583614D01*
X163494000Y-116568625D01*
X163641801Y-116599000D01*
X163794967Y-116599000D01*
X163947348Y-116583504D01*
X163994000Y-116568867D01*
X163994000Y-119580207D01*
X164119070Y-119567625D01*
X164412114Y-119497790D01*
X164412115Y-119497789D01*
X164693218Y-119389525D01*
X164957394Y-119244752D01*
X165199914Y-119066062D01*
X165416449Y-118856646D01*
X165603144Y-118620230D01*
X165756664Y-118361038D01*
X165874261Y-118083709D01*
X165874264Y-118083700D01*
X165953847Y-117793175D01*
X165994000Y-117494616D01*
X165994000Y-117419218D01*
X171654000Y-117419218D01*
X171669085Y-117644567D01*
X171669086Y-117644575D01*
X171729086Y-117939765D01*
X171729088Y-117939773D01*
X171827899Y-118224337D01*
X171827903Y-118224346D01*
X171963763Y-118493205D01*
X172134250Y-118741559D01*
X172336316Y-118964973D01*
X172336318Y-118964974D01*
X172566357Y-119159461D01*
X172566365Y-119159467D01*
X172820267Y-119321552D01*
X173093517Y-119448354D01*
X173093522Y-119448355D01*
X173381236Y-119537605D01*
X173654000Y-119583614D01*
X173654000Y-116568625D01*
X173801801Y-116599000D01*
X173954967Y-116599000D01*
X174107348Y-116583504D01*
X174154000Y-116568867D01*
X174154000Y-119580207D01*
X174279070Y-119567625D01*
X174572114Y-119497790D01*
X174572115Y-119497789D01*
X174853218Y-119389525D01*
X175117394Y-119244752D01*
X175359914Y-119066062D01*
X175576449Y-118856646D01*
X175763144Y-118620230D01*
X175916664Y-118361038D01*
X176034261Y-118083709D01*
X176034264Y-118083700D01*
X176113847Y-117793175D01*
X176154000Y-117494616D01*
X176154000Y-115844000D01*
X174877411Y-115844000D01*
X174902534Y-115746970D01*
X174912886Y-115542835D01*
X174882426Y-115344000D01*
X176154000Y-115344000D01*
X176154000Y-113768781D01*
X176138914Y-113543432D01*
X176138913Y-113543424D01*
X176078913Y-113248234D01*
X176078911Y-113248226D01*
X175980100Y-112963662D01*
X175980096Y-112963653D01*
X175844236Y-112694794D01*
X175673749Y-112446440D01*
X175471683Y-112223026D01*
X175471681Y-112223025D01*
X175241642Y-112028538D01*
X175241634Y-112028532D01*
X174987732Y-111866447D01*
X174714482Y-111739645D01*
X174714477Y-111739644D01*
X174426763Y-111650394D01*
X174154000Y-111604384D01*
X174154000Y-114619374D01*
X174006199Y-114589000D01*
X173853033Y-114589000D01*
X173700652Y-114604496D01*
X173654000Y-114619132D01*
X173654000Y-111607792D01*
X173653999Y-111607792D01*
X173528923Y-111620376D01*
X173528919Y-111620376D01*
X173235885Y-111690209D01*
X173235884Y-111690210D01*
X172954781Y-111798474D01*
X172690605Y-111943247D01*
X172448085Y-112121937D01*
X172231550Y-112331353D01*
X172044855Y-112567769D01*
X171891335Y-112826961D01*
X171773738Y-113104290D01*
X171773735Y-113104299D01*
X171694152Y-113394824D01*
X171654000Y-113693383D01*
X171654000Y-115344000D01*
X172930589Y-115344000D01*
X172905466Y-115441030D01*
X172895114Y-115645165D01*
X172925574Y-115844000D01*
X171654000Y-115844000D01*
X171654000Y-117419218D01*
X165994000Y-117419218D01*
X165994000Y-115844000D01*
X164717411Y-115844000D01*
X164742534Y-115746970D01*
X164752886Y-115542835D01*
X164722426Y-115344000D01*
X165994000Y-115344000D01*
X165994000Y-113768781D01*
X165978914Y-113543432D01*
X165978913Y-113543424D01*
X165918913Y-113248234D01*
X165918911Y-113248226D01*
X165820100Y-112963662D01*
X165820096Y-112963653D01*
X165684236Y-112694794D01*
X165513749Y-112446440D01*
X165311683Y-112223026D01*
X165311681Y-112223025D01*
X165081642Y-112028538D01*
X165081634Y-112028532D01*
X164827732Y-111866447D01*
X164554482Y-111739645D01*
X164554477Y-111739644D01*
X164266763Y-111650394D01*
X163994000Y-111604384D01*
X163994000Y-114619374D01*
X163846199Y-114589000D01*
X163693033Y-114589000D01*
X163540652Y-114604496D01*
X163494000Y-114619132D01*
X163494000Y-111607792D01*
X163493999Y-111607792D01*
X163368923Y-111620376D01*
X163368919Y-111620376D01*
X163075885Y-111690209D01*
X163075884Y-111690210D01*
X162794781Y-111798474D01*
X162530605Y-111943247D01*
X162288085Y-112121937D01*
X162071550Y-112331353D01*
X161884855Y-112567769D01*
X161731335Y-112826961D01*
X161613738Y-113104290D01*
X161613735Y-113104299D01*
X161534152Y-113394824D01*
X161494000Y-113693383D01*
X161494000Y-115344000D01*
X162770589Y-115344000D01*
X162745466Y-115441030D01*
X162735114Y-115645165D01*
X162765574Y-115844000D01*
X161494000Y-115844000D01*
X161494000Y-117419218D01*
X148073381Y-117419218D01*
X148074000Y-117414616D01*
X148074000Y-115764000D01*
X146797411Y-115764000D01*
X146822534Y-115666970D01*
X146832886Y-115462835D01*
X146802426Y-115264000D01*
X148074000Y-115264000D01*
X148074000Y-113688781D01*
X148058914Y-113463432D01*
X148058913Y-113463424D01*
X147998913Y-113168234D01*
X147998911Y-113168226D01*
X147900100Y-112883662D01*
X147900096Y-112883653D01*
X147764236Y-112614794D01*
X147593749Y-112366440D01*
X147391683Y-112143026D01*
X147391681Y-112143025D01*
X147161642Y-111948538D01*
X147161634Y-111948532D01*
X146907732Y-111786447D01*
X146634482Y-111659645D01*
X146634477Y-111659644D01*
X146346763Y-111570394D01*
X146074000Y-111524384D01*
X146074000Y-114539374D01*
X145926199Y-114509000D01*
X145773033Y-114509000D01*
X145620652Y-114524496D01*
X145574000Y-114539132D01*
X145574000Y-111527792D01*
X145573999Y-111527792D01*
X145448923Y-111540376D01*
X145448919Y-111540376D01*
X145155885Y-111610209D01*
X145155884Y-111610210D01*
X144874781Y-111718474D01*
X144610605Y-111863247D01*
X144368085Y-112041937D01*
X144151550Y-112251353D01*
X143964855Y-112487769D01*
X143811335Y-112746961D01*
X143693738Y-113024290D01*
X143693735Y-113024299D01*
X143614152Y-113314824D01*
X143574000Y-113613383D01*
X143574000Y-115264000D01*
X144850589Y-115264000D01*
X144825466Y-115361030D01*
X144815114Y-115565165D01*
X144845574Y-115764000D01*
X143574000Y-115764000D01*
X143574000Y-117339218D01*
X137914000Y-117339218D01*
X137914000Y-115764000D01*
X136637411Y-115764000D01*
X136662534Y-115666970D01*
X136672886Y-115462835D01*
X136642426Y-115264000D01*
X137914000Y-115264000D01*
X137914000Y-113688781D01*
X137898914Y-113463432D01*
X137898913Y-113463424D01*
X137838913Y-113168234D01*
X137838911Y-113168226D01*
X137740100Y-112883662D01*
X137740096Y-112883653D01*
X137604236Y-112614794D01*
X137433749Y-112366440D01*
X137231683Y-112143026D01*
X137231681Y-112143025D01*
X137001642Y-111948538D01*
X137001634Y-111948532D01*
X136747732Y-111786447D01*
X136474482Y-111659645D01*
X136474477Y-111659644D01*
X136186763Y-111570394D01*
X135914000Y-111524384D01*
X135914000Y-114539374D01*
X135766199Y-114509000D01*
X135613033Y-114509000D01*
X135460652Y-114524496D01*
X135414000Y-114539132D01*
X135414000Y-111527792D01*
X135413999Y-111527792D01*
X135288923Y-111540376D01*
X135288919Y-111540376D01*
X134995885Y-111610209D01*
X134995884Y-111610210D01*
X134714781Y-111718474D01*
X134450605Y-111863247D01*
X134208085Y-112041937D01*
X133991550Y-112251353D01*
X133804855Y-112487769D01*
X133651335Y-112746961D01*
X133533738Y-113024290D01*
X133533735Y-113024299D01*
X133454152Y-113314824D01*
X133414000Y-113613383D01*
X133414000Y-115264000D01*
X134690589Y-115264000D01*
X134665466Y-115361030D01*
X134655114Y-115565165D01*
X134685574Y-115764000D01*
X133414000Y-115764000D01*
X133414000Y-117339218D01*
X118074000Y-117339218D01*
X118074000Y-115764000D01*
X116797411Y-115764000D01*
X116822534Y-115666970D01*
X116832886Y-115462835D01*
X116802426Y-115264000D01*
X118074000Y-115264000D01*
X118074000Y-113688781D01*
X118058914Y-113463432D01*
X118058913Y-113463424D01*
X117998913Y-113168234D01*
X117998911Y-113168226D01*
X117900100Y-112883662D01*
X117900096Y-112883653D01*
X117764236Y-112614794D01*
X117593749Y-112366440D01*
X117391683Y-112143026D01*
X117391681Y-112143025D01*
X117161642Y-111948538D01*
X117161634Y-111948532D01*
X116907732Y-111786447D01*
X116634482Y-111659645D01*
X116634477Y-111659644D01*
X116346763Y-111570394D01*
X116074000Y-111524384D01*
X116074000Y-114539374D01*
X115926199Y-114509000D01*
X115773033Y-114509000D01*
X115620652Y-114524496D01*
X115574000Y-114539132D01*
X115574000Y-111527792D01*
X115573999Y-111527792D01*
X115448923Y-111540376D01*
X115448919Y-111540376D01*
X115155885Y-111610209D01*
X115155884Y-111610210D01*
X114874781Y-111718474D01*
X114610605Y-111863247D01*
X114368085Y-112041937D01*
X114151550Y-112251353D01*
X113964855Y-112487769D01*
X113811335Y-112746961D01*
X113693738Y-113024290D01*
X113693735Y-113024299D01*
X113614152Y-113314824D01*
X113574000Y-113613383D01*
X113574000Y-115264000D01*
X114850589Y-115264000D01*
X114825466Y-115361030D01*
X114815114Y-115565165D01*
X114845574Y-115764000D01*
X113574000Y-115764000D01*
X113574000Y-117339218D01*
X107914000Y-117339218D01*
X107914000Y-115764000D01*
X106637411Y-115764000D01*
X106662534Y-115666970D01*
X106672886Y-115462835D01*
X106642426Y-115264000D01*
X107914000Y-115264000D01*
X107914000Y-113688781D01*
X107898914Y-113463432D01*
X107898913Y-113463424D01*
X107838913Y-113168234D01*
X107838911Y-113168226D01*
X107740100Y-112883662D01*
X107740096Y-112883653D01*
X107604236Y-112614794D01*
X107433749Y-112366440D01*
X107231683Y-112143026D01*
X107231681Y-112143025D01*
X107001642Y-111948538D01*
X107001634Y-111948532D01*
X106747732Y-111786447D01*
X106474482Y-111659645D01*
X106474477Y-111659644D01*
X106186763Y-111570394D01*
X105914000Y-111524384D01*
X105914000Y-114539374D01*
X105766199Y-114509000D01*
X105613033Y-114509000D01*
X105460652Y-114524496D01*
X105414000Y-114539132D01*
X105414000Y-111527792D01*
X105413999Y-111527792D01*
X105288923Y-111540376D01*
X105288919Y-111540376D01*
X104995885Y-111610209D01*
X104995884Y-111610210D01*
X104714781Y-111718474D01*
X104450605Y-111863247D01*
X104208085Y-112041937D01*
X103991550Y-112251353D01*
X103804855Y-112487769D01*
X103651335Y-112746961D01*
X103533738Y-113024290D01*
X103533735Y-113024299D01*
X103454152Y-113314824D01*
X103414000Y-113613383D01*
X103414000Y-115264000D01*
X104690589Y-115264000D01*
X104665466Y-115361030D01*
X104655114Y-115565165D01*
X104685574Y-115764000D01*
X103414000Y-115764000D01*
X103414000Y-117339218D01*
X93900500Y-117339218D01*
X93900500Y-110935807D01*
X109689500Y-110935807D01*
X109704756Y-111090711D01*
X109704757Y-111090717D01*
X109704758Y-111090718D01*
X109729026Y-111170718D01*
X109765055Y-111289492D01*
X109862974Y-111472686D01*
X109994747Y-111633252D01*
X110155313Y-111765024D01*
X110155313Y-111765025D01*
X110155317Y-111765027D01*
X110338508Y-111862945D01*
X110537282Y-111923242D01*
X110537286Y-111923242D01*
X110537288Y-111923243D01*
X110743997Y-111943602D01*
X110744000Y-111943602D01*
X110744003Y-111943602D01*
X110950711Y-111923243D01*
X110950712Y-111923242D01*
X110950718Y-111923242D01*
X111149492Y-111862945D01*
X111332683Y-111765027D01*
X111332684Y-111765025D01*
X111332686Y-111765025D01*
X111332686Y-111765024D01*
X111493252Y-111633252D01*
X111625027Y-111472683D01*
X111722945Y-111289492D01*
X111766819Y-111144855D01*
X111805733Y-111085477D01*
X111870574Y-111056561D01*
X111940755Y-111067291D01*
X111993994Y-111114260D01*
X112009100Y-111148822D01*
X112057732Y-111330323D01*
X112057734Y-111330328D01*
X112153866Y-111536483D01*
X112284335Y-111722812D01*
X112284340Y-111722818D01*
X112445181Y-111883659D01*
X112445187Y-111883664D01*
X112631516Y-112014133D01*
X112837671Y-112110265D01*
X112837677Y-112110267D01*
X113034000Y-112162871D01*
X113034000Y-110802137D01*
X113088741Y-110839459D01*
X113216927Y-110879000D01*
X113317346Y-110879000D01*
X113416647Y-110864033D01*
X113534000Y-110807518D01*
X113534000Y-112162871D01*
X113730322Y-112110267D01*
X113730328Y-112110265D01*
X113936483Y-112014133D01*
X114122812Y-111883664D01*
X114122818Y-111883659D01*
X114283659Y-111722818D01*
X114283664Y-111722812D01*
X114414133Y-111536483D01*
X114510265Y-111330328D01*
X114510267Y-111330323D01*
X114569140Y-111110602D01*
X114584000Y-110940756D01*
X114584000Y-110935807D01*
X139689500Y-110935807D01*
X139704756Y-111090711D01*
X139704757Y-111090717D01*
X139704758Y-111090718D01*
X139729026Y-111170718D01*
X139765055Y-111289492D01*
X139862974Y-111472686D01*
X139994747Y-111633252D01*
X140155313Y-111765024D01*
X140155313Y-111765025D01*
X140155317Y-111765027D01*
X140338508Y-111862945D01*
X140537282Y-111923242D01*
X140537286Y-111923242D01*
X140537288Y-111923243D01*
X140743997Y-111943602D01*
X140744000Y-111943602D01*
X140744003Y-111943602D01*
X140950711Y-111923243D01*
X140950712Y-111923242D01*
X140950718Y-111923242D01*
X141149492Y-111862945D01*
X141332683Y-111765027D01*
X141332684Y-111765025D01*
X141332686Y-111765025D01*
X141332686Y-111765024D01*
X141493252Y-111633252D01*
X141625027Y-111472683D01*
X141722945Y-111289492D01*
X141766819Y-111144855D01*
X141805733Y-111085477D01*
X141870574Y-111056561D01*
X141940755Y-111067291D01*
X141993994Y-111114260D01*
X142009100Y-111148822D01*
X142057732Y-111330323D01*
X142057734Y-111330328D01*
X142153866Y-111536483D01*
X142284335Y-111722812D01*
X142284340Y-111722818D01*
X142445181Y-111883659D01*
X142445187Y-111883664D01*
X142631516Y-112014133D01*
X142837671Y-112110265D01*
X142837677Y-112110267D01*
X143034000Y-112162871D01*
X143034000Y-110802137D01*
X143088741Y-110839459D01*
X143216927Y-110879000D01*
X143317346Y-110879000D01*
X143416647Y-110864033D01*
X143534000Y-110807518D01*
X143534000Y-112162871D01*
X143730322Y-112110267D01*
X143730328Y-112110265D01*
X143936483Y-112014133D01*
X144122812Y-111883664D01*
X144122818Y-111883659D01*
X144283659Y-111722818D01*
X144283664Y-111722812D01*
X144414133Y-111536483D01*
X144510265Y-111330328D01*
X144510267Y-111330323D01*
X144569140Y-111110602D01*
X144577434Y-111015807D01*
X167769500Y-111015807D01*
X167784756Y-111170711D01*
X167845055Y-111369492D01*
X167942974Y-111552686D01*
X168074747Y-111713252D01*
X168235313Y-111845024D01*
X168235313Y-111845025D01*
X168235317Y-111845027D01*
X168418508Y-111942945D01*
X168617282Y-112003242D01*
X168617286Y-112003242D01*
X168617288Y-112003243D01*
X168823997Y-112023602D01*
X168824000Y-112023602D01*
X168824003Y-112023602D01*
X169030711Y-112003243D01*
X169030712Y-112003242D01*
X169030718Y-112003242D01*
X169229492Y-111942945D01*
X169412683Y-111845027D01*
X169412684Y-111845025D01*
X169412686Y-111845025D01*
X169412686Y-111845024D01*
X169573252Y-111713252D01*
X169705027Y-111552683D01*
X169802945Y-111369492D01*
X169846819Y-111224855D01*
X169885733Y-111165477D01*
X169950574Y-111136561D01*
X170020755Y-111147291D01*
X170073994Y-111194260D01*
X170089100Y-111228822D01*
X170137732Y-111410323D01*
X170137734Y-111410328D01*
X170233866Y-111616483D01*
X170364335Y-111802812D01*
X170364340Y-111802818D01*
X170525181Y-111963659D01*
X170525187Y-111963664D01*
X170711516Y-112094133D01*
X170917671Y-112190265D01*
X170917677Y-112190267D01*
X171114000Y-112242871D01*
X171114000Y-110882137D01*
X171168741Y-110919459D01*
X171296927Y-110959000D01*
X171397346Y-110959000D01*
X171496647Y-110944033D01*
X171614000Y-110887518D01*
X171614000Y-112242871D01*
X171810322Y-112190267D01*
X171810328Y-112190265D01*
X172016483Y-112094133D01*
X172202812Y-111963664D01*
X172202818Y-111963659D01*
X172363659Y-111802818D01*
X172363664Y-111802812D01*
X172494133Y-111616483D01*
X172590265Y-111410328D01*
X172590267Y-111410323D01*
X172649140Y-111190602D01*
X172664000Y-111020756D01*
X172664000Y-110764000D01*
X171733503Y-110764000D01*
X171782917Y-110678413D01*
X171812768Y-110547630D01*
X171802743Y-110413860D01*
X171753734Y-110288987D01*
X171733807Y-110264000D01*
X172664000Y-110264000D01*
X172664000Y-110007243D01*
X172649140Y-109837397D01*
X172590267Y-109617676D01*
X172590265Y-109617671D01*
X172494133Y-109411516D01*
X172363664Y-109225187D01*
X172363659Y-109225181D01*
X172202818Y-109064340D01*
X172202812Y-109064335D01*
X172016483Y-108933866D01*
X171810328Y-108837734D01*
X171810325Y-108837733D01*
X171614000Y-108785127D01*
X171614000Y-110145862D01*
X171559259Y-110108541D01*
X171431073Y-110069000D01*
X171330654Y-110069000D01*
X171231353Y-110083967D01*
X171114000Y-110140481D01*
X171114000Y-108785127D01*
X171113999Y-108785127D01*
X170917674Y-108837733D01*
X170917671Y-108837734D01*
X170711516Y-108933866D01*
X170525187Y-109064335D01*
X170525181Y-109064340D01*
X170364340Y-109225181D01*
X170364335Y-109225187D01*
X170233866Y-109411516D01*
X170137734Y-109617671D01*
X170137732Y-109617677D01*
X170089100Y-109799177D01*
X170052148Y-109859800D01*
X169988288Y-109890821D01*
X169917793Y-109882393D01*
X169863046Y-109837190D01*
X169846819Y-109803144D01*
X169802945Y-109658508D01*
X169705027Y-109475317D01*
X169705025Y-109475313D01*
X169573252Y-109314747D01*
X169412686Y-109182975D01*
X169412686Y-109182974D01*
X169229492Y-109085055D01*
X169030711Y-109024756D01*
X168824003Y-109004398D01*
X168823997Y-109004398D01*
X168617288Y-109024756D01*
X168418507Y-109085055D01*
X168235313Y-109182974D01*
X168235313Y-109182975D01*
X168074747Y-109314747D01*
X167942975Y-109475313D01*
X167942974Y-109475313D01*
X167845055Y-109658507D01*
X167784756Y-109857288D01*
X167769500Y-110012192D01*
X167769500Y-111015807D01*
X144577434Y-111015807D01*
X144584000Y-110940756D01*
X144584000Y-110684000D01*
X143653503Y-110684000D01*
X143702917Y-110598413D01*
X143732768Y-110467630D01*
X143722743Y-110333860D01*
X143673734Y-110208987D01*
X143653807Y-110184000D01*
X144584000Y-110184000D01*
X144584000Y-109927243D01*
X144569140Y-109757397D01*
X144510267Y-109537676D01*
X144510265Y-109537671D01*
X144414133Y-109331516D01*
X144283664Y-109145187D01*
X144283659Y-109145181D01*
X144122818Y-108984340D01*
X144122812Y-108984335D01*
X143936483Y-108853866D01*
X143730328Y-108757734D01*
X143730325Y-108757733D01*
X143534000Y-108705127D01*
X143534000Y-110065862D01*
X143479259Y-110028541D01*
X143351073Y-109989000D01*
X143250654Y-109989000D01*
X143151353Y-110003967D01*
X143034000Y-110060481D01*
X143034000Y-108705127D01*
X143033999Y-108705127D01*
X142837674Y-108757733D01*
X142837671Y-108757734D01*
X142631516Y-108853866D01*
X142445187Y-108984335D01*
X142445181Y-108984340D01*
X142284340Y-109145181D01*
X142284335Y-109145187D01*
X142153866Y-109331516D01*
X142057734Y-109537671D01*
X142057732Y-109537677D01*
X142009100Y-109719177D01*
X141972148Y-109779800D01*
X141908288Y-109810821D01*
X141837793Y-109802393D01*
X141783046Y-109757190D01*
X141766819Y-109723144D01*
X141722945Y-109578508D01*
X141625027Y-109395317D01*
X141625025Y-109395313D01*
X141493252Y-109234747D01*
X141332686Y-109102975D01*
X141332686Y-109102974D01*
X141149492Y-109005055D01*
X140950711Y-108944756D01*
X140744003Y-108924398D01*
X140743997Y-108924398D01*
X140537288Y-108944756D01*
X140338507Y-109005055D01*
X140155313Y-109102974D01*
X140155313Y-109102975D01*
X139994747Y-109234747D01*
X139862975Y-109395313D01*
X139862974Y-109395313D01*
X139765055Y-109578507D01*
X139704756Y-109777288D01*
X139689500Y-109932192D01*
X139689500Y-110935807D01*
X114584000Y-110935807D01*
X114584000Y-110684000D01*
X113653503Y-110684000D01*
X113702917Y-110598413D01*
X113732768Y-110467630D01*
X113722743Y-110333860D01*
X113673734Y-110208987D01*
X113653807Y-110184000D01*
X114584000Y-110184000D01*
X114584000Y-109927243D01*
X114569140Y-109757397D01*
X114510267Y-109537676D01*
X114510265Y-109537671D01*
X114414133Y-109331516D01*
X114283664Y-109145187D01*
X114283659Y-109145181D01*
X114122818Y-108984340D01*
X114122812Y-108984335D01*
X113936483Y-108853866D01*
X113730328Y-108757734D01*
X113730325Y-108757733D01*
X113534000Y-108705127D01*
X113534000Y-110065862D01*
X113479259Y-110028541D01*
X113351073Y-109989000D01*
X113250654Y-109989000D01*
X113151353Y-110003967D01*
X113034000Y-110060481D01*
X113034000Y-108705127D01*
X113033999Y-108705127D01*
X112837674Y-108757733D01*
X112837671Y-108757734D01*
X112631516Y-108853866D01*
X112445187Y-108984335D01*
X112445181Y-108984340D01*
X112284340Y-109145181D01*
X112284335Y-109145187D01*
X112153866Y-109331516D01*
X112057734Y-109537671D01*
X112057732Y-109537677D01*
X112009100Y-109719177D01*
X111972148Y-109779800D01*
X111908288Y-109810821D01*
X111837793Y-109802393D01*
X111783046Y-109757190D01*
X111766819Y-109723144D01*
X111722945Y-109578508D01*
X111625027Y-109395317D01*
X111625025Y-109395313D01*
X111493252Y-109234747D01*
X111332686Y-109102975D01*
X111332686Y-109102974D01*
X111149492Y-109005055D01*
X110950711Y-108944756D01*
X110744003Y-108924398D01*
X110743997Y-108924398D01*
X110537288Y-108944756D01*
X110338507Y-109005055D01*
X110155313Y-109102974D01*
X110155313Y-109102975D01*
X109994747Y-109234747D01*
X109862975Y-109395313D01*
X109862974Y-109395313D01*
X109765055Y-109578507D01*
X109704756Y-109777288D01*
X109689500Y-109932192D01*
X109689500Y-110935807D01*
X93900500Y-110935807D01*
X93900500Y-99949003D01*
X105874398Y-99949003D01*
X105894756Y-100155711D01*
X105955055Y-100354492D01*
X106052974Y-100537686D01*
X106184747Y-100698252D01*
X106345313Y-100830024D01*
X106345313Y-100830025D01*
X106345317Y-100830027D01*
X106528508Y-100927945D01*
X106727282Y-100988242D01*
X106727286Y-100988242D01*
X106727288Y-100988243D01*
X106933997Y-101008602D01*
X106934000Y-101008602D01*
X106934003Y-101008602D01*
X107140711Y-100988243D01*
X107140712Y-100988242D01*
X107140718Y-100988242D01*
X107339492Y-100927945D01*
X107522683Y-100830027D01*
X107522684Y-100830025D01*
X107522686Y-100830025D01*
X107522686Y-100830024D01*
X107683252Y-100698252D01*
X107815027Y-100537683D01*
X107912945Y-100354492D01*
X107973242Y-100155718D01*
X107975020Y-100137671D01*
X107993602Y-99949003D01*
X113494398Y-99949003D01*
X113514756Y-100155711D01*
X113575055Y-100354492D01*
X113672974Y-100537686D01*
X113804747Y-100698252D01*
X113965313Y-100830024D01*
X113965313Y-100830025D01*
X113965317Y-100830027D01*
X114148508Y-100927945D01*
X114347282Y-100988242D01*
X114347286Y-100988242D01*
X114347288Y-100988243D01*
X114553997Y-101008602D01*
X114554000Y-101008602D01*
X114554003Y-101008602D01*
X114760711Y-100988243D01*
X114760712Y-100988242D01*
X114760718Y-100988242D01*
X114942554Y-100933082D01*
X115013548Y-100932450D01*
X115068224Y-100964563D01*
X119094087Y-104990425D01*
X119110474Y-105010603D01*
X119115577Y-105018414D01*
X119115578Y-105018415D01*
X119115579Y-105018416D01*
X119118244Y-105020490D01*
X119138728Y-105036434D01*
X119149022Y-105045526D01*
X119150108Y-105046446D01*
X119165913Y-105057729D01*
X119170088Y-105060842D01*
X119208944Y-105091085D01*
X119208946Y-105091085D01*
X119215473Y-105094618D01*
X119222149Y-105097882D01*
X119222152Y-105097884D01*
X119269345Y-105111933D01*
X119274294Y-105113520D01*
X119320840Y-105129499D01*
X119320842Y-105129499D01*
X119320844Y-105129500D01*
X119320846Y-105129500D01*
X119328192Y-105130725D01*
X119335543Y-105131641D01*
X119335544Y-105131642D01*
X119335544Y-105131641D01*
X119335545Y-105131642D01*
X119364660Y-105130437D01*
X119384724Y-105129607D01*
X119389931Y-105129500D01*
X166574166Y-105129500D01*
X166600022Y-105132181D01*
X166609147Y-105134095D01*
X166638246Y-105130467D01*
X166652036Y-105129611D01*
X166653365Y-105129501D01*
X166653371Y-105129500D01*
X166653377Y-105129500D01*
X166672583Y-105126294D01*
X166677673Y-105125552D01*
X166726551Y-105119461D01*
X166726557Y-105119457D01*
X166733703Y-105117330D01*
X166740694Y-105114929D01*
X166740698Y-105114929D01*
X166783987Y-105091501D01*
X166788619Y-105089117D01*
X166832840Y-105067499D01*
X166832847Y-105067491D01*
X166838893Y-105063175D01*
X166844742Y-105058622D01*
X166844749Y-105058619D01*
X166878099Y-105022389D01*
X166881682Y-105018655D01*
X173453428Y-98446908D01*
X173473606Y-98430523D01*
X173481416Y-98425421D01*
X173499440Y-98402261D01*
X173508544Y-98391955D01*
X173509436Y-98390902D01*
X173509436Y-98390901D01*
X173509442Y-98390896D01*
X173520770Y-98375028D01*
X173523806Y-98370956D01*
X173554085Y-98332056D01*
X173554087Y-98332048D01*
X173557638Y-98325487D01*
X173560880Y-98318852D01*
X173560884Y-98318848D01*
X173574928Y-98271674D01*
X173576509Y-98266733D01*
X173592500Y-98220156D01*
X173592500Y-98220150D01*
X173593721Y-98212830D01*
X173594640Y-98205459D01*
X173594642Y-98205455D01*
X173592608Y-98156275D01*
X173592500Y-98151067D01*
X173592500Y-95579722D01*
X173612502Y-95511601D01*
X173659104Y-95468600D01*
X173826683Y-95379027D01*
X173826684Y-95379025D01*
X173826686Y-95379025D01*
X173826686Y-95379024D01*
X173987252Y-95247252D01*
X174119027Y-95086683D01*
X174216945Y-94903492D01*
X174277242Y-94704718D01*
X174278660Y-94690328D01*
X174297602Y-94498003D01*
X174297602Y-94497996D01*
X174277243Y-94291288D01*
X174277242Y-94291286D01*
X174277242Y-94291282D01*
X174216945Y-94092508D01*
X174119027Y-93909317D01*
X174119025Y-93909313D01*
X173987252Y-93748747D01*
X173826686Y-93616975D01*
X173826686Y-93616974D01*
X173643492Y-93519055D01*
X173444711Y-93458756D01*
X173238003Y-93438398D01*
X173237997Y-93438398D01*
X173031288Y-93458756D01*
X172832507Y-93519055D01*
X172649313Y-93616974D01*
X172649313Y-93616975D01*
X172488747Y-93748747D01*
X172356975Y-93909313D01*
X172356974Y-93909313D01*
X172259055Y-94092507D01*
X172198756Y-94291288D01*
X172178398Y-94497996D01*
X172178398Y-94498003D01*
X172198756Y-94704711D01*
X172198757Y-94704717D01*
X172198758Y-94704718D01*
X172237576Y-94832686D01*
X172259055Y-94903492D01*
X172356974Y-95086686D01*
X172488747Y-95247252D01*
X172649313Y-95379024D01*
X172649313Y-95379025D01*
X172816896Y-95468600D01*
X172867544Y-95518352D01*
X172883500Y-95579722D01*
X172883500Y-97961971D01*
X172863498Y-98030092D01*
X172846595Y-98051066D01*
X166514066Y-104383595D01*
X166451754Y-104417621D01*
X166424971Y-104420500D01*
X119579028Y-104420500D01*
X119510907Y-104400498D01*
X119489933Y-104383595D01*
X115690342Y-100584003D01*
X128480398Y-100584003D01*
X128500756Y-100790711D01*
X128561055Y-100989492D01*
X128658974Y-101172686D01*
X128790747Y-101333252D01*
X128951313Y-101465024D01*
X128951313Y-101465025D01*
X128951317Y-101465027D01*
X129134508Y-101562945D01*
X129333282Y-101623242D01*
X129333286Y-101623242D01*
X129333288Y-101623243D01*
X129539997Y-101643602D01*
X129540000Y-101643602D01*
X129540003Y-101643602D01*
X129746711Y-101623243D01*
X129746712Y-101623242D01*
X129746718Y-101623242D01*
X129945492Y-101562945D01*
X130128683Y-101465027D01*
X130128684Y-101465025D01*
X130128686Y-101465025D01*
X130128686Y-101465024D01*
X130289252Y-101333252D01*
X130421027Y-101172683D01*
X130518945Y-100989492D01*
X130579242Y-100790718D01*
X130599602Y-100584000D01*
X130599602Y-100583996D01*
X130579243Y-100377288D01*
X130579242Y-100377286D01*
X130579242Y-100377282D01*
X130566113Y-100334000D01*
X135881127Y-100334000D01*
X136844314Y-100334000D01*
X136832359Y-100345955D01*
X136774835Y-100458852D01*
X136755014Y-100584000D01*
X136774835Y-100709148D01*
X136832359Y-100822045D01*
X136844314Y-100834000D01*
X135881128Y-100834000D01*
X135933732Y-101030322D01*
X135933734Y-101030328D01*
X136029866Y-101236483D01*
X136160335Y-101422812D01*
X136160340Y-101422818D01*
X136321181Y-101583659D01*
X136321187Y-101583664D01*
X136507516Y-101714133D01*
X136713671Y-101810265D01*
X136713677Y-101810267D01*
X136910000Y-101862871D01*
X136910000Y-100899686D01*
X136921955Y-100911641D01*
X137034852Y-100969165D01*
X137128519Y-100984000D01*
X137191481Y-100984000D01*
X137285148Y-100969165D01*
X137398045Y-100911641D01*
X137410000Y-100899686D01*
X137410000Y-101862871D01*
X137606322Y-101810267D01*
X137606328Y-101810265D01*
X137812483Y-101714133D01*
X137998812Y-101583664D01*
X137998818Y-101583659D01*
X138159659Y-101422818D01*
X138159664Y-101422812D01*
X138290133Y-101236483D01*
X138386265Y-101030328D01*
X138386267Y-101030322D01*
X138437799Y-100838003D01*
X154642398Y-100838003D01*
X154662756Y-101044711D01*
X154662757Y-101044717D01*
X154662758Y-101044718D01*
X154701576Y-101172686D01*
X154723055Y-101243492D01*
X154820974Y-101426686D01*
X154952747Y-101587252D01*
X155113313Y-101719024D01*
X155113313Y-101719025D01*
X155113317Y-101719027D01*
X155296508Y-101816945D01*
X155495282Y-101877242D01*
X155495286Y-101877242D01*
X155495288Y-101877243D01*
X155701997Y-101897602D01*
X155702000Y-101897602D01*
X155702003Y-101897602D01*
X155908711Y-101877243D01*
X155908712Y-101877242D01*
X155908718Y-101877242D01*
X156107492Y-101816945D01*
X156290683Y-101719027D01*
X156290684Y-101719025D01*
X156290686Y-101719025D01*
X156290686Y-101719024D01*
X156451252Y-101587252D01*
X156583027Y-101426683D01*
X156680945Y-101243492D01*
X156741242Y-101044718D01*
X156742660Y-101030328D01*
X156761602Y-100838003D01*
X162262398Y-100838003D01*
X162282756Y-101044711D01*
X162282757Y-101044717D01*
X162282758Y-101044718D01*
X162321576Y-101172686D01*
X162343055Y-101243492D01*
X162440974Y-101426686D01*
X162572747Y-101587252D01*
X162733313Y-101719024D01*
X162733313Y-101719025D01*
X162733317Y-101719027D01*
X162916508Y-101816945D01*
X163115282Y-101877242D01*
X163115286Y-101877242D01*
X163115288Y-101877243D01*
X163321997Y-101897602D01*
X163322000Y-101897602D01*
X163322003Y-101897602D01*
X163528711Y-101877243D01*
X163528712Y-101877242D01*
X163528718Y-101877242D01*
X163727492Y-101816945D01*
X163910683Y-101719027D01*
X163910684Y-101719025D01*
X163910686Y-101719025D01*
X163910686Y-101719024D01*
X164071252Y-101587252D01*
X164203027Y-101426683D01*
X164300945Y-101243492D01*
X164361242Y-101044718D01*
X164362660Y-101030328D01*
X164381602Y-100838003D01*
X164381602Y-100837996D01*
X164361243Y-100631288D01*
X164361242Y-100631286D01*
X164361242Y-100631282D01*
X164300945Y-100432508D01*
X164203027Y-100249317D01*
X164203025Y-100249313D01*
X164071252Y-100088747D01*
X163910686Y-99956975D01*
X163910686Y-99956974D01*
X163727492Y-99859055D01*
X163528711Y-99798756D01*
X163322003Y-99778398D01*
X163321997Y-99778398D01*
X163115288Y-99798756D01*
X162916507Y-99859055D01*
X162733313Y-99956974D01*
X162733313Y-99956975D01*
X162572747Y-100088747D01*
X162440975Y-100249313D01*
X162440974Y-100249313D01*
X162343055Y-100432507D01*
X162282756Y-100631288D01*
X162262398Y-100837996D01*
X162262398Y-100838003D01*
X156761602Y-100838003D01*
X156761602Y-100837996D01*
X156741243Y-100631288D01*
X156741242Y-100631286D01*
X156741242Y-100631282D01*
X156680945Y-100432508D01*
X156583027Y-100249317D01*
X156583025Y-100249313D01*
X156451252Y-100088747D01*
X156290686Y-99956975D01*
X156290686Y-99956974D01*
X156107492Y-99859055D01*
X155908711Y-99798756D01*
X155702003Y-99778398D01*
X155701997Y-99778398D01*
X155495288Y-99798756D01*
X155296507Y-99859055D01*
X155113313Y-99956974D01*
X155113313Y-99956975D01*
X154952747Y-100088747D01*
X154820975Y-100249313D01*
X154820974Y-100249313D01*
X154723055Y-100432507D01*
X154662756Y-100631288D01*
X154642398Y-100837996D01*
X154642398Y-100838003D01*
X138437799Y-100838003D01*
X138438872Y-100834000D01*
X137475686Y-100834000D01*
X137487641Y-100822045D01*
X137545165Y-100709148D01*
X137564986Y-100584000D01*
X137545165Y-100458852D01*
X137487641Y-100345955D01*
X137475686Y-100334000D01*
X138438872Y-100334000D01*
X138386267Y-100137677D01*
X138386265Y-100137671D01*
X138290133Y-99931516D01*
X138159664Y-99745187D01*
X138159659Y-99745181D01*
X137998818Y-99584340D01*
X137998812Y-99584335D01*
X137812483Y-99453866D01*
X137606328Y-99357734D01*
X137606325Y-99357733D01*
X137410000Y-99305127D01*
X137410000Y-100268314D01*
X137398045Y-100256359D01*
X137285148Y-100198835D01*
X137191481Y-100184000D01*
X137128519Y-100184000D01*
X137034852Y-100198835D01*
X136921955Y-100256359D01*
X136910000Y-100268314D01*
X136910000Y-99305127D01*
X136909999Y-99305127D01*
X136713674Y-99357733D01*
X136713671Y-99357734D01*
X136507516Y-99453866D01*
X136321187Y-99584335D01*
X136321181Y-99584340D01*
X136160340Y-99745181D01*
X136160335Y-99745187D01*
X136029866Y-99931516D01*
X135933734Y-100137671D01*
X135933732Y-100137677D01*
X135881127Y-100334000D01*
X130566113Y-100334000D01*
X130518945Y-100178508D01*
X130421027Y-99995317D01*
X130421025Y-99995313D01*
X130289252Y-99834747D01*
X130128686Y-99702975D01*
X130128686Y-99702974D01*
X129945492Y-99605055D01*
X129746711Y-99544756D01*
X129540003Y-99524398D01*
X129539997Y-99524398D01*
X129333288Y-99544756D01*
X129134507Y-99605055D01*
X128951313Y-99702974D01*
X128951313Y-99702975D01*
X128790747Y-99834747D01*
X128658975Y-99995313D01*
X128658974Y-99995313D01*
X128561055Y-100178507D01*
X128500756Y-100377288D01*
X128480398Y-100583996D01*
X128480398Y-100584003D01*
X115690342Y-100584003D01*
X115569563Y-100463224D01*
X115535537Y-100400912D01*
X115538083Y-100337554D01*
X115564850Y-100249313D01*
X115593242Y-100155718D01*
X115595020Y-100137671D01*
X115613602Y-99949003D01*
X115613602Y-99948996D01*
X115593243Y-99742288D01*
X115593242Y-99742286D01*
X115593242Y-99742282D01*
X115532945Y-99543508D01*
X115435027Y-99360317D01*
X115435025Y-99360313D01*
X115303252Y-99199747D01*
X115142686Y-99067975D01*
X115142686Y-99067974D01*
X114959492Y-98970055D01*
X114760711Y-98909756D01*
X114554003Y-98889398D01*
X114553997Y-98889398D01*
X114347288Y-98909756D01*
X114148507Y-98970055D01*
X113965313Y-99067974D01*
X113965313Y-99067975D01*
X113804747Y-99199747D01*
X113672975Y-99360313D01*
X113672974Y-99360313D01*
X113575055Y-99543507D01*
X113514756Y-99742288D01*
X113494398Y-99948996D01*
X113494398Y-99949003D01*
X107993602Y-99949003D01*
X107993602Y-99948996D01*
X107973243Y-99742288D01*
X107973242Y-99742286D01*
X107973242Y-99742282D01*
X107912945Y-99543508D01*
X107815027Y-99360317D01*
X107815025Y-99360313D01*
X107683252Y-99199747D01*
X107522686Y-99067975D01*
X107522686Y-99067974D01*
X107339492Y-98970055D01*
X107140711Y-98909756D01*
X106934003Y-98889398D01*
X106933997Y-98889398D01*
X106727288Y-98909756D01*
X106528507Y-98970055D01*
X106345313Y-99067974D01*
X106345313Y-99067975D01*
X106184747Y-99199747D01*
X106052975Y-99360313D01*
X106052974Y-99360313D01*
X105955055Y-99543507D01*
X105894756Y-99742288D01*
X105874398Y-99948996D01*
X105874398Y-99949003D01*
X93900500Y-99949003D01*
X93900500Y-92587000D01*
X105528127Y-92587000D01*
X106491314Y-92587000D01*
X106479359Y-92598955D01*
X106421835Y-92711852D01*
X106402014Y-92837000D01*
X106421835Y-92962148D01*
X106479359Y-93075045D01*
X106491314Y-93087000D01*
X105528128Y-93087000D01*
X105580732Y-93283322D01*
X105580734Y-93283328D01*
X105676866Y-93489483D01*
X105807335Y-93675812D01*
X105807340Y-93675818D01*
X105968181Y-93836659D01*
X105968187Y-93836664D01*
X106154516Y-93967133D01*
X106360671Y-94063265D01*
X106360677Y-94063267D01*
X106557000Y-94115871D01*
X106557000Y-93152686D01*
X106568955Y-93164641D01*
X106681852Y-93222165D01*
X106775519Y-93237000D01*
X106838481Y-93237000D01*
X106932148Y-93222165D01*
X107045045Y-93164641D01*
X107057000Y-93152686D01*
X107057000Y-94115871D01*
X107253322Y-94063267D01*
X107253328Y-94063265D01*
X107401867Y-93994000D01*
X128398127Y-93994000D01*
X129361314Y-93994000D01*
X129349359Y-94005955D01*
X129291835Y-94118852D01*
X129272014Y-94244000D01*
X129291835Y-94369148D01*
X129349359Y-94482045D01*
X129361314Y-94494000D01*
X128398128Y-94494000D01*
X128450732Y-94690322D01*
X128450734Y-94690328D01*
X128546866Y-94896483D01*
X128677335Y-95082812D01*
X128677340Y-95082818D01*
X128838181Y-95243659D01*
X128838187Y-95243664D01*
X129024516Y-95374133D01*
X129230671Y-95470265D01*
X129230677Y-95470267D01*
X129427000Y-95522871D01*
X129427000Y-94559686D01*
X129438955Y-94571641D01*
X129551852Y-94629165D01*
X129645519Y-94644000D01*
X129708481Y-94644000D01*
X129802148Y-94629165D01*
X129915045Y-94571641D01*
X129927000Y-94559686D01*
X129927000Y-95522871D01*
X130123322Y-95470267D01*
X130123328Y-95470265D01*
X130329483Y-95374133D01*
X130515812Y-95243664D01*
X130515818Y-95243659D01*
X130676659Y-95082818D01*
X130676664Y-95082812D01*
X130807133Y-94896483D01*
X130903265Y-94690328D01*
X130903267Y-94690322D01*
X130955872Y-94494000D01*
X129992686Y-94494000D01*
X130004641Y-94482045D01*
X130062165Y-94369148D01*
X130081986Y-94244003D01*
X136237398Y-94244003D01*
X136257756Y-94450711D01*
X136257757Y-94450717D01*
X136257758Y-94450718D01*
X136287650Y-94549260D01*
X136318055Y-94649492D01*
X136415974Y-94832686D01*
X136547747Y-94993252D01*
X136708313Y-95125024D01*
X136708313Y-95125025D01*
X136708317Y-95125027D01*
X136891508Y-95222945D01*
X137090282Y-95283242D01*
X137090286Y-95283242D01*
X137090288Y-95283243D01*
X137296997Y-95303602D01*
X137297000Y-95303602D01*
X137297003Y-95303602D01*
X137503711Y-95283243D01*
X137503712Y-95283242D01*
X137503718Y-95283242D01*
X137702492Y-95222945D01*
X137885683Y-95125027D01*
X137885684Y-95125025D01*
X137885686Y-95125025D01*
X137885686Y-95125024D01*
X138046252Y-94993252D01*
X138137352Y-94882246D01*
X149138500Y-94882246D01*
X149138502Y-94882270D01*
X149144959Y-94942339D01*
X149144959Y-94942341D01*
X149195657Y-95078266D01*
X149195658Y-95078267D01*
X149282596Y-95194404D01*
X149398733Y-95281342D01*
X149534658Y-95332040D01*
X149594745Y-95338500D01*
X151141254Y-95338499D01*
X151201342Y-95332040D01*
X151337267Y-95281342D01*
X151453404Y-95194404D01*
X151540342Y-95078267D01*
X151591040Y-94942342D01*
X151597500Y-94882255D01*
X151597500Y-94714500D01*
X151617502Y-94646379D01*
X151671158Y-94599886D01*
X151723500Y-94588500D01*
X156160166Y-94588500D01*
X156186022Y-94591181D01*
X156195147Y-94593095D01*
X156224246Y-94589467D01*
X156238036Y-94588611D01*
X156239365Y-94588501D01*
X156239371Y-94588500D01*
X156239377Y-94588500D01*
X156258583Y-94585294D01*
X156263673Y-94584552D01*
X156312551Y-94578461D01*
X156312557Y-94578457D01*
X156319703Y-94576330D01*
X156326694Y-94573929D01*
X156326698Y-94573929D01*
X156369987Y-94550501D01*
X156374619Y-94548117D01*
X156418840Y-94526499D01*
X156418847Y-94526491D01*
X156424893Y-94522175D01*
X156430742Y-94517622D01*
X156430749Y-94517619D01*
X156464099Y-94481389D01*
X156467682Y-94477655D01*
X156697337Y-94248000D01*
X164339127Y-94248000D01*
X165302314Y-94248000D01*
X165290359Y-94259955D01*
X165232835Y-94372852D01*
X165213014Y-94498000D01*
X165232835Y-94623148D01*
X165290359Y-94736045D01*
X165302314Y-94748000D01*
X164339128Y-94748000D01*
X164391732Y-94944322D01*
X164391734Y-94944328D01*
X164487866Y-95150483D01*
X164618335Y-95336812D01*
X164618340Y-95336818D01*
X164779181Y-95497659D01*
X164779187Y-95497664D01*
X164965516Y-95628133D01*
X165171671Y-95724265D01*
X165171677Y-95724267D01*
X165368000Y-95776871D01*
X165368000Y-94813686D01*
X165379955Y-94825641D01*
X165492852Y-94883165D01*
X165586519Y-94898000D01*
X165649481Y-94898000D01*
X165743148Y-94883165D01*
X165856045Y-94825641D01*
X165868000Y-94813686D01*
X165868000Y-95776871D01*
X166064322Y-95724267D01*
X166064328Y-95724265D01*
X166270483Y-95628133D01*
X166456812Y-95497664D01*
X166456818Y-95497659D01*
X166617659Y-95336818D01*
X166617664Y-95336812D01*
X166748133Y-95150483D01*
X166844265Y-94944328D01*
X166844267Y-94944322D01*
X166896872Y-94748000D01*
X165933686Y-94748000D01*
X165945641Y-94736045D01*
X166003165Y-94623148D01*
X166022986Y-94498000D01*
X166003165Y-94372852D01*
X165945641Y-94259955D01*
X165933686Y-94248000D01*
X166896872Y-94248000D01*
X166844267Y-94051677D01*
X166844265Y-94051671D01*
X166748133Y-93845516D01*
X166617664Y-93659187D01*
X166617659Y-93659181D01*
X166456818Y-93498340D01*
X166456812Y-93498335D01*
X166270483Y-93367866D01*
X166064328Y-93271734D01*
X166064323Y-93271732D01*
X165882822Y-93223100D01*
X165822199Y-93186148D01*
X165791178Y-93122288D01*
X165799606Y-93051793D01*
X165844809Y-92997046D01*
X165878852Y-92980820D01*
X166023492Y-92936945D01*
X166206683Y-92839027D01*
X166206684Y-92839025D01*
X166206686Y-92839025D01*
X166206686Y-92839024D01*
X166367252Y-92707252D01*
X166499027Y-92546683D01*
X166596945Y-92363492D01*
X166657242Y-92164718D01*
X166662682Y-92109492D01*
X166677602Y-91958003D01*
X172178398Y-91958003D01*
X172198756Y-92164711D01*
X172198757Y-92164717D01*
X172198758Y-92164718D01*
X172237576Y-92292686D01*
X172259055Y-92363492D01*
X172356974Y-92546686D01*
X172488747Y-92707252D01*
X172649313Y-92839024D01*
X172649313Y-92839025D01*
X172649317Y-92839027D01*
X172832508Y-92936945D01*
X173031282Y-92997242D01*
X173031286Y-92997242D01*
X173031288Y-92997243D01*
X173237997Y-93017602D01*
X173238000Y-93017602D01*
X173238003Y-93017602D01*
X173444711Y-92997243D01*
X173444712Y-92997242D01*
X173444718Y-92997242D01*
X173643492Y-92936945D01*
X173826683Y-92839027D01*
X173826684Y-92839025D01*
X173826686Y-92839025D01*
X173826686Y-92839024D01*
X173987252Y-92707252D01*
X174119027Y-92546683D01*
X174216945Y-92363492D01*
X174277242Y-92164718D01*
X174282682Y-92109492D01*
X174297602Y-91958003D01*
X174297602Y-91957996D01*
X174277243Y-91751288D01*
X174277242Y-91751286D01*
X174277242Y-91751282D01*
X174216945Y-91552508D01*
X174119986Y-91371111D01*
X174119025Y-91369313D01*
X173987252Y-91208747D01*
X173826686Y-91076975D01*
X173826686Y-91076974D01*
X173643492Y-90979055D01*
X173563359Y-90954747D01*
X173444718Y-90918758D01*
X173444717Y-90918757D01*
X173444711Y-90918756D01*
X173238003Y-90898398D01*
X173237997Y-90898398D01*
X173031288Y-90918756D01*
X172832507Y-90979055D01*
X172649313Y-91076974D01*
X172649313Y-91076975D01*
X172488747Y-91208747D01*
X172356975Y-91369313D01*
X172356974Y-91369313D01*
X172259055Y-91552507D01*
X172198756Y-91751288D01*
X172178398Y-91957996D01*
X172178398Y-91958003D01*
X166677602Y-91958003D01*
X166677602Y-91957996D01*
X166657243Y-91751288D01*
X166657242Y-91751286D01*
X166657242Y-91751282D01*
X166596945Y-91552508D01*
X166499986Y-91371111D01*
X166499025Y-91369313D01*
X166367252Y-91208747D01*
X166206686Y-91076975D01*
X166206686Y-91076974D01*
X166023492Y-90979055D01*
X165943359Y-90954747D01*
X165824718Y-90918758D01*
X165824717Y-90918757D01*
X165824711Y-90918756D01*
X165618003Y-90898398D01*
X165617997Y-90898398D01*
X165411288Y-90918756D01*
X165212507Y-90979055D01*
X165029313Y-91076974D01*
X165029313Y-91076975D01*
X164868747Y-91208747D01*
X164736975Y-91369313D01*
X164736974Y-91369313D01*
X164639055Y-91552507D01*
X164578756Y-91751288D01*
X164558398Y-91957996D01*
X164558398Y-91958003D01*
X164578756Y-92164711D01*
X164578757Y-92164717D01*
X164578758Y-92164718D01*
X164617576Y-92292686D01*
X164639055Y-92363492D01*
X164736974Y-92546686D01*
X164868747Y-92707252D01*
X165029313Y-92839024D01*
X165029313Y-92839025D01*
X165029317Y-92839027D01*
X165212508Y-92936945D01*
X165357142Y-92980819D01*
X165416523Y-93019733D01*
X165445438Y-93084574D01*
X165434708Y-93154755D01*
X165387739Y-93207994D01*
X165353177Y-93223100D01*
X165171677Y-93271732D01*
X165171671Y-93271734D01*
X164965516Y-93367866D01*
X164779187Y-93498335D01*
X164779181Y-93498340D01*
X164618340Y-93659181D01*
X164618335Y-93659187D01*
X164487866Y-93845516D01*
X164391734Y-94051671D01*
X164391732Y-94051677D01*
X164339127Y-94248000D01*
X156697337Y-94248000D01*
X161378431Y-89566906D01*
X161398608Y-89550521D01*
X161406416Y-89545421D01*
X161424431Y-89522273D01*
X161433544Y-89511957D01*
X161434437Y-89510903D01*
X161434439Y-89510899D01*
X161434442Y-89510897D01*
X161445763Y-89495039D01*
X161448837Y-89490916D01*
X161479085Y-89452056D01*
X161479086Y-89452050D01*
X161482618Y-89445524D01*
X161485884Y-89438847D01*
X161486250Y-89437619D01*
X161492090Y-89418003D01*
X164558398Y-89418003D01*
X164578756Y-89624711D01*
X164578757Y-89624717D01*
X164578758Y-89624718D01*
X164624400Y-89775182D01*
X164639055Y-89823492D01*
X164736974Y-90006686D01*
X164868747Y-90167252D01*
X165029313Y-90299024D01*
X165029313Y-90299025D01*
X165029317Y-90299027D01*
X165212508Y-90396945D01*
X165411282Y-90457242D01*
X165411286Y-90457242D01*
X165411288Y-90457243D01*
X165617997Y-90477602D01*
X165618000Y-90477602D01*
X165618003Y-90477602D01*
X165824711Y-90457243D01*
X165824712Y-90457242D01*
X165824718Y-90457242D01*
X166023492Y-90396945D01*
X166206683Y-90299027D01*
X166206684Y-90299025D01*
X166206686Y-90299025D01*
X166206686Y-90299024D01*
X166367252Y-90167252D01*
X166499027Y-90006683D01*
X166596945Y-89823492D01*
X166657242Y-89624718D01*
X166659984Y-89596886D01*
X166677602Y-89418003D01*
X166677602Y-89417996D01*
X166657243Y-89211288D01*
X166657242Y-89211286D01*
X166657242Y-89211282D01*
X166596945Y-89012508D01*
X166499027Y-88829317D01*
X166499025Y-88829313D01*
X166367252Y-88668747D01*
X166206686Y-88536975D01*
X166206686Y-88536974D01*
X166023492Y-88439055D01*
X165824711Y-88378756D01*
X165618003Y-88358398D01*
X165617997Y-88358398D01*
X165411288Y-88378756D01*
X165212507Y-88439055D01*
X165029313Y-88536974D01*
X165029313Y-88536975D01*
X164868747Y-88668747D01*
X164736975Y-88829313D01*
X164736974Y-88829313D01*
X164639055Y-89012507D01*
X164578756Y-89211288D01*
X164558398Y-89417996D01*
X164558398Y-89418003D01*
X161492090Y-89418003D01*
X161499943Y-89391623D01*
X161501507Y-89386741D01*
X161517500Y-89340156D01*
X161517500Y-89340154D01*
X161518722Y-89332829D01*
X161519640Y-89325460D01*
X161519642Y-89325456D01*
X161517608Y-89276275D01*
X161517500Y-89271067D01*
X161517500Y-87703063D01*
X164563500Y-87703063D01*
X164563501Y-87703073D01*
X164578265Y-87777300D01*
X164634516Y-87861484D01*
X164718697Y-87917733D01*
X164718699Y-87917734D01*
X164792933Y-87932500D01*
X166443066Y-87932499D01*
X166443069Y-87932498D01*
X166443073Y-87932498D01*
X166492326Y-87922701D01*
X166517301Y-87917734D01*
X166601484Y-87861484D01*
X166657734Y-87777301D01*
X166672500Y-87703067D01*
X166672500Y-86878003D01*
X172178398Y-86878003D01*
X172198756Y-87084711D01*
X172198757Y-87084717D01*
X172198758Y-87084718D01*
X172237576Y-87212686D01*
X172259055Y-87283492D01*
X172356974Y-87466686D01*
X172488747Y-87627252D01*
X172649313Y-87759024D01*
X172649313Y-87759025D01*
X172683503Y-87777300D01*
X172832508Y-87856945D01*
X173031282Y-87917242D01*
X173031286Y-87917242D01*
X173031288Y-87917243D01*
X173237997Y-87937602D01*
X173238000Y-87937602D01*
X173238003Y-87937602D01*
X173444711Y-87917243D01*
X173444712Y-87917242D01*
X173444718Y-87917242D01*
X173643492Y-87856945D01*
X173826683Y-87759027D01*
X173826684Y-87759025D01*
X173826686Y-87759025D01*
X173826686Y-87759024D01*
X173987252Y-87627252D01*
X174119027Y-87466683D01*
X174216945Y-87283492D01*
X174277242Y-87084718D01*
X174282682Y-87029492D01*
X174297602Y-86878003D01*
X174297602Y-86877996D01*
X174277243Y-86671288D01*
X174277242Y-86671286D01*
X174277242Y-86671282D01*
X174216945Y-86472508D01*
X174119027Y-86289317D01*
X174119025Y-86289313D01*
X173987252Y-86128747D01*
X173826686Y-85996975D01*
X173826686Y-85996974D01*
X173643492Y-85899055D01*
X173628529Y-85894516D01*
X173444718Y-85838758D01*
X173444717Y-85838757D01*
X173444711Y-85838756D01*
X173238003Y-85818398D01*
X173237997Y-85818398D01*
X173031288Y-85838756D01*
X172832507Y-85899055D01*
X172649313Y-85996974D01*
X172649313Y-85996975D01*
X172488747Y-86128747D01*
X172356975Y-86289313D01*
X172356974Y-86289313D01*
X172259055Y-86472507D01*
X172198756Y-86671288D01*
X172178398Y-86877996D01*
X172178398Y-86878003D01*
X166672500Y-86878003D01*
X166672499Y-86052934D01*
X166672498Y-86052930D01*
X166672498Y-86052926D01*
X166657734Y-85978699D01*
X166601483Y-85894515D01*
X166517302Y-85838266D01*
X166443067Y-85823500D01*
X164792936Y-85823500D01*
X164792926Y-85823501D01*
X164718699Y-85838265D01*
X164634515Y-85894516D01*
X164578266Y-85978697D01*
X164563500Y-86052930D01*
X164563500Y-87703063D01*
X161517500Y-87703063D01*
X161517500Y-84908029D01*
X161537502Y-84839908D01*
X161554405Y-84818934D01*
X164320934Y-82052405D01*
X164383246Y-82018379D01*
X164410029Y-82015500D01*
X173409971Y-82015500D01*
X173478092Y-82035502D01*
X173499066Y-82052405D01*
X175757595Y-84310934D01*
X175791621Y-84373246D01*
X175794500Y-84400029D01*
X175794500Y-88065971D01*
X175774498Y-88134092D01*
X175757595Y-88155066D01*
X174886066Y-89026595D01*
X174823754Y-89060621D01*
X174796971Y-89063500D01*
X174319722Y-89063500D01*
X174251601Y-89043498D01*
X174208600Y-88996896D01*
X174119025Y-88829313D01*
X173987252Y-88668747D01*
X173826686Y-88536975D01*
X173826686Y-88536974D01*
X173643492Y-88439055D01*
X173444711Y-88378756D01*
X173238003Y-88358398D01*
X173237997Y-88358398D01*
X173031288Y-88378756D01*
X172832507Y-88439055D01*
X172649313Y-88536974D01*
X172649313Y-88536975D01*
X172488747Y-88668747D01*
X172356975Y-88829313D01*
X172356974Y-88829313D01*
X172259055Y-89012507D01*
X172198756Y-89211288D01*
X172178398Y-89417996D01*
X172178398Y-89418003D01*
X172198756Y-89624711D01*
X172198757Y-89624717D01*
X172198758Y-89624718D01*
X172244400Y-89775182D01*
X172259055Y-89823492D01*
X172356974Y-90006686D01*
X172488747Y-90167252D01*
X172649313Y-90299024D01*
X172649313Y-90299025D01*
X172649317Y-90299027D01*
X172832508Y-90396945D01*
X173031282Y-90457242D01*
X173031286Y-90457242D01*
X173031288Y-90457243D01*
X173237997Y-90477602D01*
X173238000Y-90477602D01*
X173238003Y-90477602D01*
X173444711Y-90457243D01*
X173444712Y-90457242D01*
X173444718Y-90457242D01*
X173643492Y-90396945D01*
X173826683Y-90299027D01*
X173826684Y-90299025D01*
X173826686Y-90299025D01*
X173826686Y-90299024D01*
X173987252Y-90167252D01*
X174119027Y-90006683D01*
X174208600Y-89839103D01*
X174258352Y-89788456D01*
X174319722Y-89772500D01*
X174946166Y-89772500D01*
X174972022Y-89775181D01*
X174981147Y-89777095D01*
X175010246Y-89773467D01*
X175024036Y-89772611D01*
X175025365Y-89772501D01*
X175025371Y-89772500D01*
X175025377Y-89772500D01*
X175044583Y-89769294D01*
X175049673Y-89768552D01*
X175098551Y-89762461D01*
X175098557Y-89762457D01*
X175105703Y-89760330D01*
X175112694Y-89757929D01*
X175112698Y-89757929D01*
X175155987Y-89734501D01*
X175160619Y-89732117D01*
X175204840Y-89710499D01*
X175204847Y-89710491D01*
X175210893Y-89706175D01*
X175216742Y-89701622D01*
X175216749Y-89701619D01*
X175250099Y-89665389D01*
X175253682Y-89661655D01*
X176364431Y-88550906D01*
X176384608Y-88534521D01*
X176392416Y-88529421D01*
X176410431Y-88506273D01*
X176419544Y-88495957D01*
X176420437Y-88494903D01*
X176420439Y-88494899D01*
X176420442Y-88494897D01*
X176431763Y-88479039D01*
X176434837Y-88474916D01*
X176465085Y-88436056D01*
X176465086Y-88436050D01*
X176468618Y-88429524D01*
X176471884Y-88422847D01*
X176474295Y-88414748D01*
X176485943Y-88375623D01*
X176487507Y-88370741D01*
X176503500Y-88324156D01*
X176503500Y-88324154D01*
X176504722Y-88316826D01*
X176505640Y-88309459D01*
X176505642Y-88309456D01*
X176504546Y-88282973D01*
X176503608Y-88260286D01*
X176503500Y-88255077D01*
X176503500Y-84250834D01*
X176506182Y-84224974D01*
X176508095Y-84215850D01*
X176504468Y-84186755D01*
X176503611Y-84172966D01*
X176503501Y-84171631D01*
X176503500Y-84171623D01*
X176500290Y-84152393D01*
X176499552Y-84147329D01*
X176493460Y-84098449D01*
X176493459Y-84098446D01*
X176491335Y-84091312D01*
X176488929Y-84084307D01*
X176488929Y-84084302D01*
X176465488Y-84040989D01*
X176463119Y-84036387D01*
X176441499Y-83992160D01*
X176441496Y-83992157D01*
X176437177Y-83986108D01*
X176432616Y-83980247D01*
X176396404Y-83946913D01*
X176392645Y-83943306D01*
X173894909Y-81445570D01*
X173878519Y-81425387D01*
X173873421Y-81417584D01*
X173868296Y-81413595D01*
X173850273Y-81399567D01*
X173839964Y-81390462D01*
X173838901Y-81389562D01*
X173838897Y-81389558D01*
X173823044Y-81378239D01*
X173818888Y-81375139D01*
X173780056Y-81344914D01*
X173773525Y-81341380D01*
X173766845Y-81338114D01*
X173719676Y-81324071D01*
X173714722Y-81322484D01*
X173668157Y-81306500D01*
X173660821Y-81305275D01*
X173653455Y-81304357D01*
X173604286Y-81306392D01*
X173599077Y-81306500D01*
X164260834Y-81306500D01*
X164234977Y-81303818D01*
X164233137Y-81303432D01*
X164225851Y-81301904D01*
X164199612Y-81305175D01*
X164196753Y-81305532D01*
X164182970Y-81306388D01*
X164181618Y-81306500D01*
X164162438Y-81309700D01*
X164157291Y-81310450D01*
X164108447Y-81316539D01*
X164101324Y-81318659D01*
X164094302Y-81321070D01*
X164050990Y-81344508D01*
X164046367Y-81346888D01*
X164002157Y-81368502D01*
X163996116Y-81372815D01*
X163990247Y-81377383D01*
X163956912Y-81413595D01*
X163953307Y-81417352D01*
X160947569Y-84423090D01*
X160927397Y-84439473D01*
X160919586Y-84444576D01*
X160919585Y-84444577D01*
X160901569Y-84467724D01*
X160892409Y-84478096D01*
X160891558Y-84479102D01*
X160880249Y-84494939D01*
X160877143Y-84499105D01*
X160846911Y-84537948D01*
X160843380Y-84544471D01*
X160840115Y-84551151D01*
X160826071Y-84598323D01*
X160824485Y-84603276D01*
X160808500Y-84649845D01*
X160807274Y-84657185D01*
X160806357Y-84664543D01*
X160808392Y-84713712D01*
X160808500Y-84718921D01*
X160808500Y-89081971D01*
X160788498Y-89150092D01*
X160771595Y-89171066D01*
X156100066Y-93842595D01*
X156037754Y-93876621D01*
X156010971Y-93879500D01*
X151723499Y-93879500D01*
X151655378Y-93859498D01*
X151608885Y-93805842D01*
X151597499Y-93753500D01*
X151597499Y-93585753D01*
X151597499Y-93585746D01*
X151591040Y-93525658D01*
X151540342Y-93389733D01*
X151453404Y-93273596D01*
X151337267Y-93186658D01*
X151337265Y-93186657D01*
X151337266Y-93186657D01*
X151201349Y-93135962D01*
X151201344Y-93135960D01*
X151201342Y-93135960D01*
X151171298Y-93132730D01*
X151141256Y-93129500D01*
X149594753Y-93129500D01*
X149594729Y-93129502D01*
X149534660Y-93135959D01*
X149534658Y-93135959D01*
X149398733Y-93186657D01*
X149282596Y-93273596D01*
X149195657Y-93389734D01*
X149144962Y-93525650D01*
X149144960Y-93525658D01*
X149138500Y-93585737D01*
X149138500Y-94882246D01*
X138137352Y-94882246D01*
X138178027Y-94832683D01*
X138275945Y-94649492D01*
X138336242Y-94450718D01*
X138356602Y-94244000D01*
X138344276Y-94118852D01*
X138336243Y-94037288D01*
X138336242Y-94037286D01*
X138336242Y-94037282D01*
X138275945Y-93838508D01*
X138178027Y-93655317D01*
X138178025Y-93655313D01*
X138046252Y-93494747D01*
X137885686Y-93362975D01*
X137885686Y-93362974D01*
X137702492Y-93265055D01*
X137564184Y-93223100D01*
X137503718Y-93204758D01*
X137503717Y-93204757D01*
X137503711Y-93204756D01*
X137297003Y-93184398D01*
X137296997Y-93184398D01*
X137090288Y-93204756D01*
X136891507Y-93265055D01*
X136708313Y-93362974D01*
X136708313Y-93362975D01*
X136547747Y-93494747D01*
X136415975Y-93655313D01*
X136415974Y-93655313D01*
X136318055Y-93838507D01*
X136257756Y-94037288D01*
X136237398Y-94243996D01*
X136237398Y-94244003D01*
X130081986Y-94244003D01*
X130081986Y-94244000D01*
X130062165Y-94118852D01*
X130004641Y-94005955D01*
X129992686Y-93994000D01*
X130955872Y-93994000D01*
X130903267Y-93797677D01*
X130903265Y-93797671D01*
X130807133Y-93591516D01*
X130676664Y-93405187D01*
X130676659Y-93405181D01*
X130515818Y-93244340D01*
X130515812Y-93244335D01*
X130329483Y-93113866D01*
X130123328Y-93017734D01*
X130123323Y-93017732D01*
X129941822Y-92969100D01*
X129881199Y-92932148D01*
X129850178Y-92868288D01*
X129858606Y-92797793D01*
X129903809Y-92743046D01*
X129937852Y-92726820D01*
X130082492Y-92682945D01*
X130265683Y-92585027D01*
X130265684Y-92585025D01*
X130265686Y-92585025D01*
X130265686Y-92585024D01*
X130426252Y-92453252D01*
X130558027Y-92292683D01*
X130655945Y-92109492D01*
X130716242Y-91910718D01*
X130718096Y-91891902D01*
X130736602Y-91704003D01*
X136237398Y-91704003D01*
X136257756Y-91910711D01*
X136257757Y-91910717D01*
X136257758Y-91910718D01*
X136272100Y-91957996D01*
X136318055Y-92109492D01*
X136415974Y-92292686D01*
X136547747Y-92453252D01*
X136708313Y-92585024D01*
X136708313Y-92585025D01*
X136708317Y-92585027D01*
X136891508Y-92682945D01*
X137090282Y-92743242D01*
X137090286Y-92743242D01*
X137090288Y-92743243D01*
X137296997Y-92763602D01*
X137297000Y-92763602D01*
X137297003Y-92763602D01*
X137503711Y-92743243D01*
X137503712Y-92743242D01*
X137503718Y-92743242D01*
X137702492Y-92682945D01*
X137885683Y-92585027D01*
X137885684Y-92585025D01*
X137885686Y-92585025D01*
X137885686Y-92585024D01*
X138046252Y-92453252D01*
X138178027Y-92292683D01*
X138275945Y-92109492D01*
X138336242Y-91910718D01*
X138338096Y-91891902D01*
X138356602Y-91704003D01*
X138356602Y-91703996D01*
X138354357Y-91681205D01*
X149134732Y-91681205D01*
X149144768Y-91891893D01*
X149144769Y-91891904D01*
X149194498Y-92096886D01*
X149194498Y-92096888D01*
X149194499Y-92096890D01*
X149282124Y-92288762D01*
X149404478Y-92460584D01*
X149557138Y-92606145D01*
X149557140Y-92606146D01*
X149557142Y-92606148D01*
X149594696Y-92630282D01*
X149734587Y-92720184D01*
X149930411Y-92798580D01*
X150137533Y-92838500D01*
X150137537Y-92838500D01*
X150545613Y-92838500D01*
X150545630Y-92838499D01*
X150702969Y-92823474D01*
X150702969Y-92823473D01*
X150702979Y-92823473D01*
X150905368Y-92764047D01*
X151092854Y-92667391D01*
X151258659Y-92537000D01*
X151396792Y-92377587D01*
X151502259Y-92194913D01*
X151571248Y-91995580D01*
X151576942Y-91955975D01*
X151601267Y-91786794D01*
X151599576Y-91751288D01*
X151591231Y-91576098D01*
X151541501Y-91371110D01*
X151453876Y-91179238D01*
X151331522Y-91007416D01*
X151178862Y-90861855D01*
X151178859Y-90861853D01*
X151178857Y-90861851D01*
X151001413Y-90747816D01*
X150805589Y-90669420D01*
X150805586Y-90669419D01*
X150805585Y-90669419D01*
X150598471Y-90629500D01*
X150598467Y-90629500D01*
X150190387Y-90629500D01*
X150190369Y-90629500D01*
X150033030Y-90644525D01*
X150033015Y-90644528D01*
X149830629Y-90703953D01*
X149643148Y-90800607D01*
X149643141Y-90800611D01*
X149477347Y-90930994D01*
X149477334Y-90931006D01*
X149339212Y-91090407D01*
X149339206Y-91090415D01*
X149233743Y-91273083D01*
X149233739Y-91273092D01*
X149164753Y-91472417D01*
X149164750Y-91472425D01*
X149134732Y-91681205D01*
X138354357Y-91681205D01*
X138336243Y-91497288D01*
X138336242Y-91497286D01*
X138336242Y-91497282D01*
X138275945Y-91298508D01*
X138178027Y-91115317D01*
X138178025Y-91115313D01*
X138046252Y-90954747D01*
X137885686Y-90822975D01*
X137885686Y-90822974D01*
X137702492Y-90725055D01*
X137503718Y-90664758D01*
X137503717Y-90664757D01*
X137503711Y-90664756D01*
X137297003Y-90644398D01*
X137296997Y-90644398D01*
X137090288Y-90664756D01*
X136891507Y-90725055D01*
X136708313Y-90822974D01*
X136708313Y-90822975D01*
X136547747Y-90954747D01*
X136415975Y-91115313D01*
X136415974Y-91115313D01*
X136318055Y-91298507D01*
X136257756Y-91497288D01*
X136237398Y-91703996D01*
X136237398Y-91704003D01*
X130736602Y-91704003D01*
X130736602Y-91703996D01*
X130716243Y-91497288D01*
X130716242Y-91497286D01*
X130716242Y-91497282D01*
X130655945Y-91298508D01*
X130558027Y-91115317D01*
X130558025Y-91115313D01*
X130426252Y-90954747D01*
X130265686Y-90822975D01*
X130265686Y-90822974D01*
X130082492Y-90725055D01*
X129883718Y-90664758D01*
X129883717Y-90664757D01*
X129883711Y-90664756D01*
X129677003Y-90644398D01*
X129676997Y-90644398D01*
X129470288Y-90664756D01*
X129271507Y-90725055D01*
X129088313Y-90822974D01*
X129088313Y-90822975D01*
X128927747Y-90954747D01*
X128795975Y-91115313D01*
X128795974Y-91115313D01*
X128698055Y-91298507D01*
X128637756Y-91497288D01*
X128617398Y-91703996D01*
X128617398Y-91704003D01*
X128637756Y-91910711D01*
X128637757Y-91910717D01*
X128637758Y-91910718D01*
X128652100Y-91957996D01*
X128698055Y-92109492D01*
X128795974Y-92292686D01*
X128927747Y-92453252D01*
X129088313Y-92585024D01*
X129088313Y-92585025D01*
X129088317Y-92585027D01*
X129271508Y-92682945D01*
X129416142Y-92726819D01*
X129475523Y-92765733D01*
X129504438Y-92830574D01*
X129493708Y-92900755D01*
X129446739Y-92953994D01*
X129412177Y-92969100D01*
X129230677Y-93017732D01*
X129230671Y-93017734D01*
X129024516Y-93113866D01*
X128838187Y-93244335D01*
X128838181Y-93244340D01*
X128677340Y-93405181D01*
X128677335Y-93405187D01*
X128546866Y-93591516D01*
X128450734Y-93797671D01*
X128450732Y-93797677D01*
X128398127Y-93994000D01*
X107401867Y-93994000D01*
X107459483Y-93967133D01*
X107645812Y-93836664D01*
X107645818Y-93836659D01*
X107806659Y-93675818D01*
X107806664Y-93675812D01*
X107937133Y-93489483D01*
X108033265Y-93283328D01*
X108033267Y-93283322D01*
X108085872Y-93087000D01*
X107122686Y-93087000D01*
X107134641Y-93075045D01*
X107192165Y-92962148D01*
X107211986Y-92837003D01*
X113367398Y-92837003D01*
X113387756Y-93043711D01*
X113387757Y-93043717D01*
X113387758Y-93043718D01*
X113424439Y-93164641D01*
X113448055Y-93242492D01*
X113545974Y-93425686D01*
X113677747Y-93586252D01*
X113838313Y-93718024D01*
X113838313Y-93718025D01*
X113838317Y-93718027D01*
X114021508Y-93815945D01*
X114220282Y-93876242D01*
X114220286Y-93876242D01*
X114220288Y-93876243D01*
X114426997Y-93896602D01*
X114427000Y-93896602D01*
X114427003Y-93896602D01*
X114633711Y-93876243D01*
X114633712Y-93876242D01*
X114633718Y-93876242D01*
X114832492Y-93815945D01*
X115015683Y-93718027D01*
X115015684Y-93718025D01*
X115015686Y-93718025D01*
X115015686Y-93718024D01*
X115176252Y-93586252D01*
X115308027Y-93425683D01*
X115405945Y-93242492D01*
X115466242Y-93043718D01*
X115468605Y-93019733D01*
X115486602Y-92837003D01*
X115486602Y-92836996D01*
X115466243Y-92630288D01*
X115466242Y-92630286D01*
X115466242Y-92630282D01*
X115405945Y-92431508D01*
X115308027Y-92248317D01*
X115308025Y-92248313D01*
X115176252Y-92087747D01*
X115015686Y-91955975D01*
X115015686Y-91955974D01*
X114832492Y-91858055D01*
X114633711Y-91797756D01*
X114427003Y-91777398D01*
X114426997Y-91777398D01*
X114220288Y-91797756D01*
X114021507Y-91858055D01*
X113838313Y-91955974D01*
X113838313Y-91955975D01*
X113677747Y-92087747D01*
X113545975Y-92248313D01*
X113545974Y-92248313D01*
X113448055Y-92431507D01*
X113387756Y-92630288D01*
X113367398Y-92836996D01*
X113367398Y-92837003D01*
X107211986Y-92837003D01*
X107211986Y-92837000D01*
X107192165Y-92711852D01*
X107134641Y-92598955D01*
X107122686Y-92587000D01*
X108085872Y-92587000D01*
X108033267Y-92390677D01*
X108033265Y-92390671D01*
X107937133Y-92184516D01*
X107806664Y-91998187D01*
X107806659Y-91998181D01*
X107645818Y-91837340D01*
X107645812Y-91837335D01*
X107459483Y-91706866D01*
X107253328Y-91610734D01*
X107253325Y-91610733D01*
X107057000Y-91558127D01*
X107057000Y-92521314D01*
X107045045Y-92509359D01*
X106932148Y-92451835D01*
X106838481Y-92437000D01*
X106775519Y-92437000D01*
X106681852Y-92451835D01*
X106568955Y-92509359D01*
X106557000Y-92521314D01*
X106557000Y-91558127D01*
X106556999Y-91558127D01*
X106360674Y-91610733D01*
X106360671Y-91610734D01*
X106154516Y-91706866D01*
X105968187Y-91837335D01*
X105968181Y-91837340D01*
X105807340Y-91998181D01*
X105807335Y-91998187D01*
X105676866Y-92184516D01*
X105580734Y-92390671D01*
X105580732Y-92390677D01*
X105528127Y-92587000D01*
X93900500Y-92587000D01*
X93900500Y-89164003D01*
X128617398Y-89164003D01*
X128637756Y-89370711D01*
X128637757Y-89370717D01*
X128637758Y-89370718D01*
X128692299Y-89550518D01*
X128698055Y-89569492D01*
X128795974Y-89752686D01*
X128927747Y-89913252D01*
X129088313Y-90045024D01*
X129088313Y-90045025D01*
X129088317Y-90045027D01*
X129271508Y-90142945D01*
X129470282Y-90203242D01*
X129470286Y-90203242D01*
X129470288Y-90203243D01*
X129676997Y-90223602D01*
X129677000Y-90223602D01*
X129677003Y-90223602D01*
X129883711Y-90203243D01*
X129883712Y-90203242D01*
X129883718Y-90203242D01*
X130082492Y-90142945D01*
X130265683Y-90045027D01*
X130265684Y-90045025D01*
X130265686Y-90045025D01*
X130265686Y-90045024D01*
X130426252Y-89913252D01*
X130558027Y-89752683D01*
X130655945Y-89569492D01*
X130716242Y-89370718D01*
X130719253Y-89340154D01*
X130736602Y-89164003D01*
X136237398Y-89164003D01*
X136257756Y-89370711D01*
X136257757Y-89370717D01*
X136257758Y-89370718D01*
X136312299Y-89550518D01*
X136318055Y-89569492D01*
X136415974Y-89752686D01*
X136547747Y-89913252D01*
X136708313Y-90045024D01*
X136708313Y-90045025D01*
X136708317Y-90045027D01*
X136891508Y-90142945D01*
X137090282Y-90203242D01*
X137090286Y-90203242D01*
X137090288Y-90203243D01*
X137296997Y-90223602D01*
X137297000Y-90223602D01*
X137297003Y-90223602D01*
X137503711Y-90203243D01*
X137503712Y-90203242D01*
X137503718Y-90203242D01*
X137702492Y-90142945D01*
X137885683Y-90045027D01*
X137885684Y-90045025D01*
X137885686Y-90045025D01*
X137885686Y-90045024D01*
X138046252Y-89913252D01*
X138178027Y-89752683D01*
X138275945Y-89569492D01*
X138336242Y-89370718D01*
X138339253Y-89340154D01*
X138356602Y-89164003D01*
X138356602Y-89163996D01*
X138336243Y-88957288D01*
X138336242Y-88957286D01*
X138336242Y-88957282D01*
X138275945Y-88758508D01*
X138178027Y-88575317D01*
X138178025Y-88575313D01*
X138046252Y-88414747D01*
X137885686Y-88282975D01*
X137885686Y-88282974D01*
X137702492Y-88185055D01*
X137568888Y-88144527D01*
X137503718Y-88124758D01*
X137503717Y-88124757D01*
X137503711Y-88124756D01*
X137297003Y-88104398D01*
X137296997Y-88104398D01*
X137090288Y-88124756D01*
X136891507Y-88185055D01*
X136708313Y-88282974D01*
X136708313Y-88282975D01*
X136547747Y-88414747D01*
X136415975Y-88575313D01*
X136415974Y-88575313D01*
X136318055Y-88758507D01*
X136257756Y-88957288D01*
X136237398Y-89163996D01*
X136237398Y-89164003D01*
X130736602Y-89164003D01*
X130736602Y-89163996D01*
X130716243Y-88957288D01*
X130716242Y-88957286D01*
X130716242Y-88957282D01*
X130655945Y-88758508D01*
X130558027Y-88575317D01*
X130558025Y-88575313D01*
X130426252Y-88414747D01*
X130265686Y-88282975D01*
X130265686Y-88282974D01*
X130082492Y-88185055D01*
X129948888Y-88144527D01*
X129883718Y-88124758D01*
X129883717Y-88124757D01*
X129883711Y-88124756D01*
X129677003Y-88104398D01*
X129676997Y-88104398D01*
X129470288Y-88124756D01*
X129271507Y-88185055D01*
X129088313Y-88282974D01*
X129088313Y-88282975D01*
X128927747Y-88414747D01*
X128795975Y-88575313D01*
X128795974Y-88575313D01*
X128698055Y-88758507D01*
X128637756Y-88957288D01*
X128617398Y-89163996D01*
X128617398Y-89164003D01*
X93900500Y-89164003D01*
X93900500Y-86741003D01*
X105747398Y-86741003D01*
X105767756Y-86947711D01*
X105828055Y-87146492D01*
X105925974Y-87329686D01*
X106057747Y-87490252D01*
X106218313Y-87622024D01*
X106218313Y-87622025D01*
X106218317Y-87622027D01*
X106401508Y-87719945D01*
X106600282Y-87780242D01*
X106600286Y-87780242D01*
X106600288Y-87780243D01*
X106806997Y-87800602D01*
X106807000Y-87800602D01*
X106807003Y-87800602D01*
X107013711Y-87780243D01*
X107013712Y-87780242D01*
X107013718Y-87780242D01*
X107212492Y-87719945D01*
X107395683Y-87622027D01*
X107395684Y-87622025D01*
X107395686Y-87622025D01*
X107395686Y-87622024D01*
X107556252Y-87490252D01*
X107688027Y-87329683D01*
X107785945Y-87146492D01*
X107846242Y-86947718D01*
X107851740Y-86891904D01*
X107866602Y-86741003D01*
X113367398Y-86741003D01*
X113387756Y-86947711D01*
X113448055Y-87146492D01*
X113545974Y-87329686D01*
X113677747Y-87490252D01*
X113838313Y-87622024D01*
X113838313Y-87622025D01*
X113838317Y-87622027D01*
X114021508Y-87719945D01*
X114220282Y-87780242D01*
X114220286Y-87780242D01*
X114220288Y-87780243D01*
X114426997Y-87800602D01*
X114427000Y-87800602D01*
X114427003Y-87800602D01*
X114633711Y-87780243D01*
X114633712Y-87780242D01*
X114633718Y-87780242D01*
X114832492Y-87719945D01*
X115015683Y-87622027D01*
X115015684Y-87622025D01*
X115015686Y-87622025D01*
X115015686Y-87622024D01*
X115176252Y-87490252D01*
X115210055Y-87449063D01*
X128622500Y-87449063D01*
X128622501Y-87449073D01*
X128637265Y-87523300D01*
X128693516Y-87607484D01*
X128777697Y-87663733D01*
X128777699Y-87663734D01*
X128851933Y-87678500D01*
X130502066Y-87678499D01*
X130502069Y-87678498D01*
X130502073Y-87678498D01*
X130557914Y-87667391D01*
X130576301Y-87663734D01*
X130660484Y-87607484D01*
X130716734Y-87523301D01*
X130731500Y-87449067D01*
X130731500Y-86624003D01*
X136237398Y-86624003D01*
X136257756Y-86830711D01*
X136257757Y-86830717D01*
X136257758Y-86830718D01*
X136293247Y-86947711D01*
X136318055Y-87029492D01*
X136415974Y-87212686D01*
X136547747Y-87373252D01*
X136708313Y-87505024D01*
X136708313Y-87505025D01*
X136708317Y-87505027D01*
X136891508Y-87602945D01*
X137090282Y-87663242D01*
X137090286Y-87663242D01*
X137090288Y-87663243D01*
X137296997Y-87683602D01*
X137297000Y-87683602D01*
X137297003Y-87683602D01*
X137503711Y-87663243D01*
X137503712Y-87663242D01*
X137503718Y-87663242D01*
X137702492Y-87602945D01*
X137885683Y-87505027D01*
X137885684Y-87505025D01*
X137885686Y-87505025D01*
X137885686Y-87505024D01*
X138046252Y-87373252D01*
X138178027Y-87212683D01*
X138275945Y-87029492D01*
X138336242Y-86830718D01*
X138340569Y-86786793D01*
X138350968Y-86681205D01*
X149134732Y-86681205D01*
X149144768Y-86891893D01*
X149144769Y-86891904D01*
X149194498Y-87096886D01*
X149194498Y-87096888D01*
X149194499Y-87096890D01*
X149282124Y-87288762D01*
X149404478Y-87460584D01*
X149404480Y-87460586D01*
X149404481Y-87460587D01*
X149426816Y-87481884D01*
X149557138Y-87606145D01*
X149557140Y-87606146D01*
X149557142Y-87606148D01*
X149589981Y-87627252D01*
X149734587Y-87720184D01*
X149930411Y-87798580D01*
X150137533Y-87838500D01*
X150137537Y-87838500D01*
X150545613Y-87838500D01*
X150545630Y-87838499D01*
X150702969Y-87823474D01*
X150702969Y-87823473D01*
X150702979Y-87823473D01*
X150905368Y-87764047D01*
X151092854Y-87667391D01*
X151258659Y-87537000D01*
X151396792Y-87377587D01*
X151502259Y-87194913D01*
X151571248Y-86995580D01*
X151588153Y-86878003D01*
X151601267Y-86786794D01*
X151599086Y-86741000D01*
X151591231Y-86576098D01*
X151541501Y-86371110D01*
X151453876Y-86179238D01*
X151331522Y-86007416D01*
X151178862Y-85861855D01*
X151178859Y-85861853D01*
X151178857Y-85861851D01*
X151001413Y-85747816D01*
X150891848Y-85703953D01*
X150805589Y-85669420D01*
X150805586Y-85669419D01*
X150805585Y-85669419D01*
X150598471Y-85629500D01*
X150598467Y-85629500D01*
X150190387Y-85629500D01*
X150190369Y-85629500D01*
X150033030Y-85644525D01*
X150033015Y-85644528D01*
X149830629Y-85703953D01*
X149643148Y-85800607D01*
X149643141Y-85800611D01*
X149477347Y-85930994D01*
X149477334Y-85931006D01*
X149339212Y-86090407D01*
X149339206Y-86090415D01*
X149233743Y-86273083D01*
X149233739Y-86273092D01*
X149164753Y-86472417D01*
X149164750Y-86472425D01*
X149134732Y-86681205D01*
X138350968Y-86681205D01*
X138356602Y-86624003D01*
X138356602Y-86623996D01*
X138336243Y-86417288D01*
X138336242Y-86417286D01*
X138336242Y-86417282D01*
X138275945Y-86218508D01*
X138178027Y-86035317D01*
X138178025Y-86035313D01*
X138046252Y-85874747D01*
X137885686Y-85742975D01*
X137885686Y-85742974D01*
X137702492Y-85645055D01*
X137687529Y-85640516D01*
X137503718Y-85584758D01*
X137503717Y-85584757D01*
X137503711Y-85584756D01*
X137297003Y-85564398D01*
X137296997Y-85564398D01*
X137090288Y-85584756D01*
X136891507Y-85645055D01*
X136708313Y-85742974D01*
X136708313Y-85742975D01*
X136547747Y-85874747D01*
X136415975Y-86035313D01*
X136415974Y-86035313D01*
X136318055Y-86218507D01*
X136257756Y-86417288D01*
X136237398Y-86623996D01*
X136237398Y-86624003D01*
X130731500Y-86624003D01*
X130731499Y-85798934D01*
X130731498Y-85798930D01*
X130731498Y-85798926D01*
X130716734Y-85724699D01*
X130679797Y-85669420D01*
X130660484Y-85640516D01*
X130643998Y-85629500D01*
X130576302Y-85584266D01*
X130502069Y-85569500D01*
X130502067Y-85569500D01*
X130247029Y-85569500D01*
X130178908Y-85549498D01*
X130132415Y-85495842D01*
X130122311Y-85425568D01*
X130151805Y-85360988D01*
X130157934Y-85354405D01*
X130792934Y-84719405D01*
X130855246Y-84685379D01*
X130882029Y-84682500D01*
X155375970Y-84682500D01*
X155444091Y-84702502D01*
X155465065Y-84719404D01*
X155945595Y-85199933D01*
X155979620Y-85262246D01*
X155982500Y-85289029D01*
X155982500Y-87303971D01*
X155962498Y-87372092D01*
X155945595Y-87393066D01*
X154576066Y-88762595D01*
X154513754Y-88796621D01*
X154486971Y-88799500D01*
X151589773Y-88799500D01*
X151521652Y-88779498D01*
X151475160Y-88725843D01*
X151453877Y-88679241D01*
X151453876Y-88679238D01*
X151331522Y-88507416D01*
X151323855Y-88500106D01*
X151259827Y-88439055D01*
X151178862Y-88361855D01*
X151178859Y-88361853D01*
X151178857Y-88361851D01*
X151001413Y-88247816D01*
X150891848Y-88203953D01*
X150805589Y-88169420D01*
X150805586Y-88169419D01*
X150805585Y-88169419D01*
X150598471Y-88129500D01*
X150598467Y-88129500D01*
X150190387Y-88129500D01*
X150190369Y-88129500D01*
X150033030Y-88144525D01*
X150033015Y-88144528D01*
X149830629Y-88203953D01*
X149643148Y-88300607D01*
X149643141Y-88300611D01*
X149477347Y-88430994D01*
X149477334Y-88431006D01*
X149339212Y-88590407D01*
X149339206Y-88590415D01*
X149233743Y-88773083D01*
X149233739Y-88773092D01*
X149164753Y-88972417D01*
X149164750Y-88972425D01*
X149134732Y-89181205D01*
X149144768Y-89391893D01*
X149144769Y-89391904D01*
X149194498Y-89596886D01*
X149194498Y-89596888D01*
X149194499Y-89596890D01*
X149282124Y-89788762D01*
X149404478Y-89960584D01*
X149557138Y-90106145D01*
X149557140Y-90106146D01*
X149557142Y-90106148D01*
X149614400Y-90142945D01*
X149734587Y-90220184D01*
X149930411Y-90298580D01*
X150137533Y-90338500D01*
X150137537Y-90338500D01*
X150545613Y-90338500D01*
X150545630Y-90338499D01*
X150702969Y-90323474D01*
X150702969Y-90323473D01*
X150702979Y-90323473D01*
X150905368Y-90264047D01*
X151092854Y-90167391D01*
X151123940Y-90142945D01*
X151129977Y-90138196D01*
X151258659Y-90037000D01*
X151396792Y-89877587D01*
X151502259Y-89694913D01*
X151537431Y-89593288D01*
X151578611Y-89535458D01*
X151644522Y-89509071D01*
X151656500Y-89508500D01*
X154636166Y-89508500D01*
X154662022Y-89511181D01*
X154671147Y-89513095D01*
X154700246Y-89509467D01*
X154714036Y-89508611D01*
X154715365Y-89508501D01*
X154715371Y-89508500D01*
X154715377Y-89508500D01*
X154734583Y-89505294D01*
X154739673Y-89504552D01*
X154788551Y-89498461D01*
X154788557Y-89498457D01*
X154795703Y-89496330D01*
X154802694Y-89493929D01*
X154802698Y-89493929D01*
X154845987Y-89470501D01*
X154850619Y-89468117D01*
X154894840Y-89446499D01*
X154894847Y-89446491D01*
X154900893Y-89442175D01*
X154906742Y-89437622D01*
X154906749Y-89437619D01*
X154940099Y-89401389D01*
X154943682Y-89397655D01*
X156552428Y-87788908D01*
X156572606Y-87772523D01*
X156580416Y-87767421D01*
X156598440Y-87744261D01*
X156607544Y-87733955D01*
X156608436Y-87732902D01*
X156608436Y-87732901D01*
X156608442Y-87732896D01*
X156619770Y-87717028D01*
X156622806Y-87712956D01*
X156653085Y-87674056D01*
X156653087Y-87674048D01*
X156656625Y-87667511D01*
X156659884Y-87660847D01*
X156673943Y-87613623D01*
X156675507Y-87608741D01*
X156691500Y-87562156D01*
X156691500Y-87562154D01*
X156692722Y-87554829D01*
X156693640Y-87547460D01*
X156693642Y-87547456D01*
X156691608Y-87498275D01*
X156691500Y-87493067D01*
X156691500Y-85139834D01*
X156694182Y-85113974D01*
X156696095Y-85104851D01*
X156692468Y-85075754D01*
X156691611Y-85061967D01*
X156691501Y-85060636D01*
X156691500Y-85060630D01*
X156691500Y-85060623D01*
X156688291Y-85041395D01*
X156687555Y-85036345D01*
X156681461Y-84987449D01*
X156681459Y-84987445D01*
X156679336Y-84980313D01*
X156676929Y-84973305D01*
X156676929Y-84973302D01*
X156668538Y-84957798D01*
X156653492Y-84929993D01*
X156651121Y-84925389D01*
X156629499Y-84881160D01*
X156629496Y-84881157D01*
X156625184Y-84875118D01*
X156620621Y-84869254D01*
X156620619Y-84869251D01*
X156584402Y-84835911D01*
X156580645Y-84832306D01*
X155860909Y-84112570D01*
X155844519Y-84092387D01*
X155839421Y-84084584D01*
X155834296Y-84080595D01*
X155816273Y-84066567D01*
X155805964Y-84057462D01*
X155804901Y-84056562D01*
X155804897Y-84056558D01*
X155789044Y-84045239D01*
X155784888Y-84042139D01*
X155746056Y-84011914D01*
X155739525Y-84008380D01*
X155732845Y-84005114D01*
X155685676Y-83991071D01*
X155680722Y-83989484D01*
X155634157Y-83973500D01*
X155626821Y-83972275D01*
X155619455Y-83971357D01*
X155570286Y-83973392D01*
X155565077Y-83973500D01*
X130732834Y-83973500D01*
X130706977Y-83970818D01*
X130705137Y-83970432D01*
X130697851Y-83968904D01*
X130671612Y-83972175D01*
X130668753Y-83972532D01*
X130654970Y-83973388D01*
X130653618Y-83973500D01*
X130634438Y-83976700D01*
X130629291Y-83977450D01*
X130580447Y-83983539D01*
X130573324Y-83985659D01*
X130566302Y-83988070D01*
X130522990Y-84011508D01*
X130518367Y-84013888D01*
X130474157Y-84035502D01*
X130468116Y-84039815D01*
X130462247Y-84044383D01*
X130428912Y-84080595D01*
X130425307Y-84084352D01*
X129461569Y-85048090D01*
X129441397Y-85064473D01*
X129433586Y-85069576D01*
X129433585Y-85069577D01*
X129415569Y-85092724D01*
X129406409Y-85103096D01*
X129405558Y-85104102D01*
X129394249Y-85119939D01*
X129391143Y-85124105D01*
X129360911Y-85162948D01*
X129357380Y-85169471D01*
X129354115Y-85176151D01*
X129340071Y-85223323D01*
X129338485Y-85228276D01*
X129322500Y-85274845D01*
X129321274Y-85282185D01*
X129320357Y-85289543D01*
X129322392Y-85338712D01*
X129322500Y-85343921D01*
X129322500Y-85443500D01*
X129302498Y-85511621D01*
X129248842Y-85558114D01*
X129196500Y-85569500D01*
X128851936Y-85569500D01*
X128851926Y-85569501D01*
X128777699Y-85584265D01*
X128693515Y-85640516D01*
X128637266Y-85724697D01*
X128622500Y-85798930D01*
X128622500Y-87449063D01*
X115210055Y-87449063D01*
X115308027Y-87329683D01*
X115405945Y-87146492D01*
X115466242Y-86947718D01*
X115471740Y-86891904D01*
X115486602Y-86741003D01*
X115486602Y-86740996D01*
X115466243Y-86534288D01*
X115466242Y-86534286D01*
X115466242Y-86534282D01*
X115405945Y-86335508D01*
X115308027Y-86152317D01*
X115308025Y-86152313D01*
X115176252Y-85991747D01*
X115015686Y-85859975D01*
X115015686Y-85859974D01*
X114832492Y-85762055D01*
X114769590Y-85742974D01*
X114633718Y-85701758D01*
X114633717Y-85701757D01*
X114633711Y-85701756D01*
X114427003Y-85681398D01*
X114426997Y-85681398D01*
X114220288Y-85701756D01*
X114021507Y-85762055D01*
X113838313Y-85859974D01*
X113838313Y-85859975D01*
X113677747Y-85991747D01*
X113545975Y-86152313D01*
X113545974Y-86152313D01*
X113448055Y-86335507D01*
X113387756Y-86534288D01*
X113367398Y-86740996D01*
X113367398Y-86741003D01*
X107866602Y-86741003D01*
X107866602Y-86740996D01*
X107846243Y-86534288D01*
X107846242Y-86534286D01*
X107846242Y-86534282D01*
X107785945Y-86335508D01*
X107688027Y-86152317D01*
X107688025Y-86152313D01*
X107556252Y-85991747D01*
X107395686Y-85859975D01*
X107395686Y-85859974D01*
X107212492Y-85762055D01*
X107149590Y-85742974D01*
X107013718Y-85701758D01*
X107013717Y-85701757D01*
X107013711Y-85701756D01*
X106807003Y-85681398D01*
X106806997Y-85681398D01*
X106600288Y-85701756D01*
X106401507Y-85762055D01*
X106218313Y-85859974D01*
X106218313Y-85859975D01*
X106057747Y-85991747D01*
X105925975Y-86152313D01*
X105925974Y-86152313D01*
X105828055Y-86335507D01*
X105767756Y-86534288D01*
X105747398Y-86740996D01*
X105747398Y-86741003D01*
X93900500Y-86741003D01*
X93900500Y-81153003D01*
X109430398Y-81153003D01*
X109450756Y-81359711D01*
X109450757Y-81359717D01*
X109450758Y-81359718D01*
X109459810Y-81389558D01*
X109511055Y-81558492D01*
X109608974Y-81741686D01*
X109740747Y-81902252D01*
X109901313Y-82034024D01*
X109901313Y-82034025D01*
X109935700Y-82052405D01*
X110084508Y-82131945D01*
X110283282Y-82192242D01*
X110283286Y-82192242D01*
X110283288Y-82192243D01*
X110489997Y-82212602D01*
X110490000Y-82212602D01*
X110490003Y-82212602D01*
X110696711Y-82192243D01*
X110696712Y-82192242D01*
X110696718Y-82192242D01*
X110895492Y-82131945D01*
X111078683Y-82034027D01*
X111078684Y-82034025D01*
X111078686Y-82034025D01*
X111078686Y-82034024D01*
X111239252Y-81902252D01*
X111371027Y-81741683D01*
X111468945Y-81558492D01*
X111529242Y-81359718D01*
X111532827Y-81323325D01*
X111549602Y-81153003D01*
X111549602Y-81152996D01*
X111529243Y-80946288D01*
X111529242Y-80946286D01*
X111529242Y-80946282D01*
X111468945Y-80747508D01*
X111371027Y-80564317D01*
X111371025Y-80564313D01*
X111239252Y-80403747D01*
X111078686Y-80271975D01*
X111078686Y-80271974D01*
X110895492Y-80174055D01*
X110696711Y-80113756D01*
X110490003Y-80093398D01*
X110489997Y-80093398D01*
X110283288Y-80113756D01*
X110084507Y-80174055D01*
X109901313Y-80271974D01*
X109901313Y-80271975D01*
X109740747Y-80403747D01*
X109608975Y-80564313D01*
X109608974Y-80564313D01*
X109511055Y-80747507D01*
X109450756Y-80946288D01*
X109430398Y-81152996D01*
X109430398Y-81153003D01*
X93900500Y-81153003D01*
X93900500Y-79760000D01*
X128515127Y-79760000D01*
X129478314Y-79760000D01*
X129466359Y-79771955D01*
X129408835Y-79884852D01*
X129389014Y-80010000D01*
X129408835Y-80135148D01*
X129466359Y-80248045D01*
X129478314Y-80260000D01*
X128515128Y-80260000D01*
X128567732Y-80456322D01*
X128567734Y-80456328D01*
X128663866Y-80662483D01*
X128794335Y-80848812D01*
X128794340Y-80848818D01*
X128955181Y-81009659D01*
X128955187Y-81009664D01*
X129141516Y-81140133D01*
X129347671Y-81236265D01*
X129347677Y-81236267D01*
X129544000Y-81288871D01*
X129544000Y-80325686D01*
X129555955Y-80337641D01*
X129668852Y-80395165D01*
X129762519Y-80410000D01*
X129825481Y-80410000D01*
X129919148Y-80395165D01*
X130032045Y-80337641D01*
X130044000Y-80325686D01*
X130044000Y-81288871D01*
X130240322Y-81236267D01*
X130240328Y-81236265D01*
X130446483Y-81140133D01*
X130632812Y-81009664D01*
X130632818Y-81009659D01*
X130793659Y-80848818D01*
X130793664Y-80848812D01*
X130924133Y-80662483D01*
X131020265Y-80456328D01*
X131020267Y-80456322D01*
X131072872Y-80260000D01*
X130109686Y-80260000D01*
X130121641Y-80248045D01*
X130179165Y-80135148D01*
X130198986Y-80010003D01*
X136354398Y-80010003D01*
X136374756Y-80216711D01*
X136435055Y-80415492D01*
X136532974Y-80598686D01*
X136664747Y-80759252D01*
X136825313Y-80891024D01*
X136825313Y-80891025D01*
X136825317Y-80891027D01*
X137008508Y-80988945D01*
X137207282Y-81049242D01*
X137207286Y-81049242D01*
X137207288Y-81049243D01*
X137413997Y-81069602D01*
X137414000Y-81069602D01*
X137414003Y-81069602D01*
X137620711Y-81049243D01*
X137620712Y-81049242D01*
X137620718Y-81049242D01*
X137819492Y-80988945D01*
X138002683Y-80891027D01*
X138002684Y-80891025D01*
X138002686Y-80891025D01*
X138002686Y-80891024D01*
X138163252Y-80759252D01*
X138295027Y-80598683D01*
X138392945Y-80415492D01*
X138453242Y-80216718D01*
X138473602Y-80010003D01*
X150451398Y-80010003D01*
X150471756Y-80216711D01*
X150532055Y-80415492D01*
X150629974Y-80598686D01*
X150761747Y-80759252D01*
X150922313Y-80891024D01*
X150922313Y-80891025D01*
X150922317Y-80891027D01*
X151105508Y-80988945D01*
X151304282Y-81049242D01*
X151304286Y-81049242D01*
X151304288Y-81049243D01*
X151510997Y-81069602D01*
X151511000Y-81069602D01*
X151511003Y-81069602D01*
X151717711Y-81049243D01*
X151717712Y-81049242D01*
X151717718Y-81049242D01*
X151916492Y-80988945D01*
X152099683Y-80891027D01*
X152099684Y-80891025D01*
X152099686Y-80891025D01*
X152099686Y-80891024D01*
X152260252Y-80759252D01*
X152392027Y-80598683D01*
X152489945Y-80415492D01*
X152550242Y-80216718D01*
X152570602Y-80010003D01*
X158071398Y-80010003D01*
X158091756Y-80216711D01*
X158152055Y-80415492D01*
X158249974Y-80598686D01*
X158381747Y-80759252D01*
X158542313Y-80891024D01*
X158542313Y-80891025D01*
X158542317Y-80891027D01*
X158725508Y-80988945D01*
X158924282Y-81049242D01*
X158924286Y-81049242D01*
X158924288Y-81049243D01*
X159130997Y-81069602D01*
X159131000Y-81069602D01*
X159131003Y-81069602D01*
X159337711Y-81049243D01*
X159337712Y-81049242D01*
X159337718Y-81049242D01*
X159536492Y-80988945D01*
X159719683Y-80891027D01*
X159719684Y-80891025D01*
X159719686Y-80891025D01*
X159719686Y-80891024D01*
X159880252Y-80759252D01*
X160012027Y-80598683D01*
X160109945Y-80415492D01*
X160170242Y-80216718D01*
X160190602Y-80010000D01*
X160170242Y-79803282D01*
X160109945Y-79604508D01*
X160012027Y-79421317D01*
X160012025Y-79421313D01*
X159880252Y-79260747D01*
X159719686Y-79128975D01*
X159719686Y-79128974D01*
X159536492Y-79031055D01*
X159337711Y-78970756D01*
X159131003Y-78950398D01*
X159130997Y-78950398D01*
X158924288Y-78970756D01*
X158725507Y-79031055D01*
X158542313Y-79128974D01*
X158542313Y-79128975D01*
X158381747Y-79260747D01*
X158249975Y-79421313D01*
X158249974Y-79421313D01*
X158152055Y-79604507D01*
X158091756Y-79803288D01*
X158071398Y-80009996D01*
X158071398Y-80010003D01*
X152570602Y-80010003D01*
X152570602Y-80010000D01*
X152550242Y-79803282D01*
X152489945Y-79604508D01*
X152392027Y-79421317D01*
X152392025Y-79421313D01*
X152260252Y-79260747D01*
X152099686Y-79128975D01*
X152099686Y-79128974D01*
X151916492Y-79031055D01*
X151717711Y-78970756D01*
X151511003Y-78950398D01*
X151510997Y-78950398D01*
X151304288Y-78970756D01*
X151105507Y-79031055D01*
X150922313Y-79128974D01*
X150922313Y-79128975D01*
X150761747Y-79260747D01*
X150629975Y-79421313D01*
X150629974Y-79421313D01*
X150532055Y-79604507D01*
X150471756Y-79803288D01*
X150451398Y-80009996D01*
X150451398Y-80010003D01*
X138473602Y-80010003D01*
X138473602Y-80010000D01*
X138453242Y-79803282D01*
X138392945Y-79604508D01*
X138295027Y-79421317D01*
X138295025Y-79421313D01*
X138163252Y-79260747D01*
X138002686Y-79128975D01*
X138002686Y-79128974D01*
X137819492Y-79031055D01*
X137620711Y-78970756D01*
X137414003Y-78950398D01*
X137413997Y-78950398D01*
X137207288Y-78970756D01*
X137008507Y-79031055D01*
X136825313Y-79128974D01*
X136825313Y-79128975D01*
X136664747Y-79260747D01*
X136532975Y-79421313D01*
X136532974Y-79421313D01*
X136435055Y-79604507D01*
X136374756Y-79803288D01*
X136354398Y-80009996D01*
X136354398Y-80010003D01*
X130198986Y-80010003D01*
X130198986Y-80010000D01*
X130179165Y-79884852D01*
X130121641Y-79771955D01*
X130109686Y-79760000D01*
X131072872Y-79760000D01*
X131020267Y-79563677D01*
X131020265Y-79563671D01*
X130924133Y-79357516D01*
X130793664Y-79171187D01*
X130793659Y-79171181D01*
X130632818Y-79010340D01*
X130632812Y-79010335D01*
X130446483Y-78879866D01*
X130240328Y-78783734D01*
X130240325Y-78783733D01*
X130044000Y-78731127D01*
X130044000Y-79694314D01*
X130032045Y-79682359D01*
X129919148Y-79624835D01*
X129825481Y-79610000D01*
X129762519Y-79610000D01*
X129668852Y-79624835D01*
X129555955Y-79682359D01*
X129544000Y-79694314D01*
X129544000Y-78731127D01*
X129543999Y-78731127D01*
X129347674Y-78783733D01*
X129347671Y-78783734D01*
X129141516Y-78879866D01*
X128955187Y-79010335D01*
X128955181Y-79010340D01*
X128794340Y-79171181D01*
X128794335Y-79171187D01*
X128663866Y-79357516D01*
X128567734Y-79563671D01*
X128567732Y-79563677D01*
X128515127Y-79760000D01*
X93900500Y-79760000D01*
X93900500Y-73533003D01*
X109430398Y-73533003D01*
X109450756Y-73739711D01*
X109511055Y-73938492D01*
X109608974Y-74121686D01*
X109740747Y-74282252D01*
X109901313Y-74414024D01*
X109901313Y-74414025D01*
X109901317Y-74414027D01*
X110084508Y-74511945D01*
X110283282Y-74572242D01*
X110283286Y-74572242D01*
X110283288Y-74572243D01*
X110489997Y-74592602D01*
X110490000Y-74592602D01*
X110490003Y-74592602D01*
X110696711Y-74572243D01*
X110696712Y-74572242D01*
X110696718Y-74572242D01*
X110895492Y-74511945D01*
X111078683Y-74414027D01*
X111078684Y-74414025D01*
X111078686Y-74414025D01*
X111078686Y-74414024D01*
X111239252Y-74282252D01*
X111371027Y-74121683D01*
X111468945Y-73938492D01*
X111529242Y-73739718D01*
X111549602Y-73533000D01*
X111529242Y-73326282D01*
X111468945Y-73127508D01*
X111371027Y-72944317D01*
X111371025Y-72944313D01*
X111239252Y-72783747D01*
X111078686Y-72651975D01*
X111078686Y-72651974D01*
X110895492Y-72554055D01*
X110696711Y-72493756D01*
X110490003Y-72473398D01*
X110489997Y-72473398D01*
X110283288Y-72493756D01*
X110084507Y-72554055D01*
X109901313Y-72651974D01*
X109901313Y-72651975D01*
X109740747Y-72783747D01*
X109608975Y-72944313D01*
X109608974Y-72944313D01*
X109511055Y-73127507D01*
X109450756Y-73326288D01*
X109430398Y-73532996D01*
X109430398Y-73533003D01*
X93900500Y-73533003D01*
X93900500Y-71600000D01*
X131960686Y-71600000D01*
X131979907Y-71831965D01*
X131979907Y-71831968D01*
X131979908Y-71831970D01*
X132037046Y-72057603D01*
X132037048Y-72057607D01*
X132130540Y-72270749D01*
X132130542Y-72270753D01*
X132130545Y-72270759D01*
X132181468Y-72348703D01*
X132257850Y-72465616D01*
X132257853Y-72465619D01*
X132415498Y-72636866D01*
X132599177Y-72779829D01*
X132599178Y-72779830D01*
X132803885Y-72890612D01*
X132803887Y-72890613D01*
X132902274Y-72924389D01*
X133024034Y-72966189D01*
X133253620Y-73004500D01*
X133253624Y-73004500D01*
X133486379Y-73004500D01*
X133486380Y-73004500D01*
X133601720Y-72985252D01*
X133603281Y-72985057D01*
X133612731Y-72983440D01*
X133612732Y-72983451D01*
X133613481Y-72983290D01*
X133715966Y-72966189D01*
X133832493Y-72926184D01*
X133833543Y-72925877D01*
X133837741Y-72924389D01*
X133838938Y-72923972D01*
X133936109Y-72890614D01*
X133936107Y-72890614D01*
X133936115Y-72890612D01*
X134140822Y-72779830D01*
X134324502Y-72636866D01*
X134482147Y-72465619D01*
X134609455Y-72270759D01*
X134702953Y-72057604D01*
X134760093Y-71831965D01*
X134779314Y-71600000D01*
X158930686Y-71600000D01*
X158949907Y-71831965D01*
X158949907Y-71831968D01*
X158949908Y-71831970D01*
X159007046Y-72057603D01*
X159007048Y-72057607D01*
X159100540Y-72270749D01*
X159100542Y-72270753D01*
X159100545Y-72270759D01*
X159151468Y-72348703D01*
X159227850Y-72465616D01*
X159227853Y-72465619D01*
X159385498Y-72636866D01*
X159569177Y-72779829D01*
X159569178Y-72779830D01*
X159773885Y-72890612D01*
X159773887Y-72890613D01*
X159872274Y-72924389D01*
X159994034Y-72966189D01*
X160223620Y-73004500D01*
X160223624Y-73004500D01*
X160456379Y-73004500D01*
X160456380Y-73004500D01*
X160571720Y-72985252D01*
X160573281Y-72985057D01*
X160582731Y-72983440D01*
X160582732Y-72983451D01*
X160583481Y-72983290D01*
X160685966Y-72966189D01*
X160802493Y-72926184D01*
X160803543Y-72925877D01*
X160807741Y-72924389D01*
X160808938Y-72923972D01*
X160906109Y-72890614D01*
X160906107Y-72890614D01*
X160906115Y-72890612D01*
X161110822Y-72779830D01*
X161294502Y-72636866D01*
X161452147Y-72465619D01*
X161579455Y-72270759D01*
X161672953Y-72057604D01*
X161730093Y-71831965D01*
X161749314Y-71600000D01*
X161730093Y-71368035D01*
X161672953Y-71142396D01*
X161579455Y-70929241D01*
X161503070Y-70812325D01*
X161452149Y-70734383D01*
X161452144Y-70734378D01*
X161294502Y-70563134D01*
X161110822Y-70420170D01*
X161110821Y-70420169D01*
X160906114Y-70309387D01*
X160906112Y-70309386D01*
X160685970Y-70233812D01*
X160685963Y-70233810D01*
X160577870Y-70215773D01*
X160456380Y-70195500D01*
X160223620Y-70195500D01*
X160174266Y-70203735D01*
X160108165Y-70214765D01*
X160106626Y-70214959D01*
X160097394Y-70216537D01*
X160097392Y-70216529D01*
X160096642Y-70216687D01*
X159994044Y-70233808D01*
X159994029Y-70233812D01*
X159876078Y-70274304D01*
X159875422Y-70274505D01*
X159871944Y-70275721D01*
X159871289Y-70275948D01*
X159773888Y-70309386D01*
X159773885Y-70309387D01*
X159569178Y-70420169D01*
X159569177Y-70420170D01*
X159385498Y-70563134D01*
X159227855Y-70734378D01*
X159227850Y-70734383D01*
X159100547Y-70929238D01*
X159100540Y-70929250D01*
X159007048Y-71142392D01*
X159007046Y-71142396D01*
X158949908Y-71368029D01*
X158949907Y-71368032D01*
X158949907Y-71368035D01*
X158930686Y-71600000D01*
X134779314Y-71600000D01*
X134760093Y-71368035D01*
X134702953Y-71142396D01*
X134609455Y-70929241D01*
X134533070Y-70812325D01*
X134482149Y-70734383D01*
X134482144Y-70734378D01*
X134324502Y-70563134D01*
X134140822Y-70420170D01*
X134140821Y-70420169D01*
X133936114Y-70309387D01*
X133936112Y-70309386D01*
X133715970Y-70233812D01*
X133715963Y-70233810D01*
X133607870Y-70215773D01*
X133486380Y-70195500D01*
X133253620Y-70195500D01*
X133204266Y-70203735D01*
X133138165Y-70214765D01*
X133136626Y-70214959D01*
X133127394Y-70216537D01*
X133127392Y-70216529D01*
X133126642Y-70216687D01*
X133024044Y-70233808D01*
X133024029Y-70233812D01*
X132906078Y-70274304D01*
X132905422Y-70274505D01*
X132901944Y-70275721D01*
X132901289Y-70275948D01*
X132803888Y-70309386D01*
X132803885Y-70309387D01*
X132599178Y-70420169D01*
X132599177Y-70420170D01*
X132415498Y-70563134D01*
X132257855Y-70734378D01*
X132257850Y-70734383D01*
X132130547Y-70929238D01*
X132130540Y-70929250D01*
X132037048Y-71142392D01*
X132037046Y-71142396D01*
X131979908Y-71368029D01*
X131979907Y-71368032D01*
X131979907Y-71368035D01*
X131960686Y-71600000D01*
X93900500Y-71600000D01*
X93900500Y-67730361D01*
X119375000Y-67730361D01*
X119390021Y-67926026D01*
X119449676Y-68180953D01*
X119547539Y-68423766D01*
X119681325Y-68648804D01*
X119847888Y-68850775D01*
X119847894Y-68850781D01*
X120043345Y-69024965D01*
X120263093Y-69167272D01*
X120501985Y-69274365D01*
X120501989Y-69274366D01*
X120754425Y-69343738D01*
X120830000Y-69352462D01*
X120830000Y-67886009D01*
X120912454Y-67955197D01*
X121021812Y-67995000D01*
X121138188Y-67995000D01*
X121247545Y-67955197D01*
X121330000Y-67886009D01*
X121330000Y-69353283D01*
X121533114Y-69313893D01*
X121779520Y-69225395D01*
X121779523Y-69225393D01*
X122009505Y-69100332D01*
X122217719Y-68941617D01*
X122399258Y-68752987D01*
X122549879Y-68538851D01*
X122549883Y-68538845D01*
X122666045Y-68304234D01*
X122745037Y-68054630D01*
X122784999Y-67795911D01*
X122785000Y-67795898D01*
X122785000Y-67110000D01*
X121410000Y-67110000D01*
X121410000Y-66610000D01*
X122785000Y-66610000D01*
X122785000Y-65989638D01*
X122769978Y-65793973D01*
X122710323Y-65539046D01*
X122612460Y-65296233D01*
X122478674Y-65071195D01*
X122312111Y-64869224D01*
X122312105Y-64869218D01*
X122116654Y-64695034D01*
X121896906Y-64552727D01*
X121658014Y-64445634D01*
X121658010Y-64445633D01*
X121405573Y-64376261D01*
X121330000Y-64367536D01*
X121330000Y-65833990D01*
X121247546Y-65764803D01*
X121138188Y-65725000D01*
X121021812Y-65725000D01*
X120912455Y-65764803D01*
X120830000Y-65833990D01*
X120830000Y-64366716D01*
X120829999Y-64366715D01*
X120626881Y-64406107D01*
X120380479Y-64494604D01*
X120380476Y-64494606D01*
X120150494Y-64619667D01*
X119942280Y-64778382D01*
X119760741Y-64967012D01*
X119610120Y-65181148D01*
X119610116Y-65181154D01*
X119493954Y-65415765D01*
X119414962Y-65665369D01*
X119375000Y-65924088D01*
X119375000Y-66610000D01*
X120750000Y-66610000D01*
X120750000Y-67110000D01*
X119375000Y-67110000D01*
X119375000Y-67730361D01*
X93900500Y-67730361D01*
X93900500Y-64770004D01*
X107953340Y-64770004D01*
X107973936Y-64992272D01*
X108035022Y-65206969D01*
X108035026Y-65206980D01*
X108134526Y-65406804D01*
X108134527Y-65406805D01*
X108134528Y-65406807D01*
X108269048Y-65584942D01*
X108434014Y-65735328D01*
X108434016Y-65735329D01*
X108434017Y-65735330D01*
X108623808Y-65852843D01*
X108688976Y-65878089D01*
X108831954Y-65933480D01*
X108831957Y-65933480D01*
X108831961Y-65933482D01*
X109051387Y-65974500D01*
X109051390Y-65974500D01*
X109274610Y-65974500D01*
X109274613Y-65974500D01*
X109494039Y-65933482D01*
X109494043Y-65933480D01*
X109494045Y-65933480D01*
X109571475Y-65903483D01*
X109702192Y-65852843D01*
X109891983Y-65735330D01*
X110056950Y-65584943D01*
X110191474Y-65406804D01*
X110290974Y-65206980D01*
X110291810Y-65204043D01*
X110292590Y-65202805D01*
X110293079Y-65201545D01*
X110293325Y-65201640D01*
X110329689Y-65143996D01*
X110394020Y-65113961D01*
X110464376Y-65123473D01*
X110518421Y-65169513D01*
X110534190Y-65204043D01*
X110535022Y-65206969D01*
X110535023Y-65206971D01*
X110535026Y-65206980D01*
X110634526Y-65406804D01*
X110634527Y-65406805D01*
X110634528Y-65406807D01*
X110769048Y-65584942D01*
X110934014Y-65735328D01*
X110934016Y-65735329D01*
X110934017Y-65735330D01*
X111123808Y-65852843D01*
X111188976Y-65878089D01*
X111331954Y-65933480D01*
X111331957Y-65933480D01*
X111331961Y-65933482D01*
X111551387Y-65974500D01*
X111551390Y-65974500D01*
X111774610Y-65974500D01*
X111774613Y-65974500D01*
X111994039Y-65933482D01*
X111994043Y-65933480D01*
X111994045Y-65933480D01*
X112071475Y-65903483D01*
X112202192Y-65852843D01*
X112391983Y-65735330D01*
X112556950Y-65584943D01*
X112691474Y-65406804D01*
X112719711Y-65350095D01*
X112767977Y-65298034D01*
X112836731Y-65280331D01*
X112904142Y-65302609D01*
X112948807Y-65357796D01*
X112958500Y-65406260D01*
X112958500Y-65745063D01*
X112958501Y-65745073D01*
X112973265Y-65819300D01*
X113029516Y-65903484D01*
X113113697Y-65959733D01*
X113113699Y-65959734D01*
X113187933Y-65974500D01*
X115138066Y-65974499D01*
X115138069Y-65974498D01*
X115138073Y-65974498D01*
X115187326Y-65964701D01*
X115212301Y-65959734D01*
X115296484Y-65903484D01*
X115352734Y-65819301D01*
X115367500Y-65745067D01*
X115367499Y-63794934D01*
X115367498Y-63794930D01*
X115367498Y-63794926D01*
X115352734Y-63720699D01*
X115296483Y-63636515D01*
X115212302Y-63580266D01*
X115138067Y-63565500D01*
X113187936Y-63565500D01*
X113187926Y-63565501D01*
X113113699Y-63580265D01*
X113029515Y-63636516D01*
X112973266Y-63720697D01*
X112958500Y-63794930D01*
X112958500Y-64133738D01*
X112938498Y-64201859D01*
X112884842Y-64248352D01*
X112814568Y-64258456D01*
X112749988Y-64228962D01*
X112719710Y-64189903D01*
X112691474Y-64133196D01*
X112691471Y-64133192D01*
X112556951Y-63955057D01*
X112391985Y-63804671D01*
X112202192Y-63687157D01*
X112202185Y-63687154D01*
X111994045Y-63606519D01*
X111954943Y-63599209D01*
X111774613Y-63565500D01*
X111551387Y-63565500D01*
X111409833Y-63591961D01*
X111331954Y-63606519D01*
X111123814Y-63687154D01*
X111123807Y-63687157D01*
X110934014Y-63804671D01*
X110769048Y-63955057D01*
X110634528Y-64133192D01*
X110535026Y-64333020D01*
X110535022Y-64333030D01*
X110534189Y-64335960D01*
X110533408Y-64337197D01*
X110532921Y-64338455D01*
X110532675Y-64338359D01*
X110496308Y-64396005D01*
X110431976Y-64426039D01*
X110361620Y-64416524D01*
X110307577Y-64370483D01*
X110291811Y-64335960D01*
X110290977Y-64333030D01*
X110290976Y-64333028D01*
X110290974Y-64333020D01*
X110191474Y-64133196D01*
X110191471Y-64133192D01*
X110056951Y-63955057D01*
X109891985Y-63804671D01*
X109702192Y-63687157D01*
X109702185Y-63687154D01*
X109494045Y-63606519D01*
X109454943Y-63599209D01*
X109274613Y-63565500D01*
X109051387Y-63565500D01*
X108909833Y-63591961D01*
X108831954Y-63606519D01*
X108623814Y-63687154D01*
X108623807Y-63687157D01*
X108434014Y-63804671D01*
X108269048Y-63955057D01*
X108134528Y-64133192D01*
X108035026Y-64333020D01*
X108035023Y-64333028D01*
X107973936Y-64547727D01*
X107953340Y-64769995D01*
X107953340Y-64770004D01*
X93900500Y-64770004D01*
X93900500Y-54991004D01*
X108319554Y-54991004D01*
X108339295Y-55204044D01*
X108339295Y-55204047D01*
X108339296Y-55204048D01*
X108397849Y-55409840D01*
X108493219Y-55601370D01*
X108493220Y-55601371D01*
X108493221Y-55601373D01*
X108622155Y-55772110D01*
X108780278Y-55916258D01*
X108780279Y-55916259D01*
X108962178Y-56028886D01*
X108962181Y-56028887D01*
X108962190Y-56028893D01*
X109161698Y-56106183D01*
X109161703Y-56106185D01*
X109372020Y-56145500D01*
X109372022Y-56145500D01*
X109585978Y-56145500D01*
X109585980Y-56145500D01*
X109796297Y-56106185D01*
X109995810Y-56028893D01*
X110177722Y-55916258D01*
X110335841Y-55772114D01*
X110392450Y-55697152D01*
X110449463Y-55654845D01*
X110520300Y-55650077D01*
X110582469Y-55684363D01*
X110616232Y-55746818D01*
X110619000Y-55773084D01*
X110619000Y-55938840D01*
X110625400Y-55998371D01*
X110675647Y-56133089D01*
X110761810Y-56248189D01*
X110876910Y-56334352D01*
X111011628Y-56384599D01*
X111071159Y-56390999D01*
X111071176Y-56391000D01*
X111769000Y-56391000D01*
X111769000Y-55365189D01*
X111821547Y-55401016D01*
X111951173Y-55441000D01*
X112052724Y-55441000D01*
X112153138Y-55425865D01*
X112269000Y-55370068D01*
X112269000Y-56391000D01*
X112966824Y-56391000D01*
X112966840Y-56390999D01*
X113026371Y-56384599D01*
X113161089Y-56334352D01*
X113276189Y-56248189D01*
X113362352Y-56133089D01*
X113406373Y-56015063D01*
X119620500Y-56015063D01*
X119620501Y-56015072D01*
X119635265Y-56089300D01*
X119691516Y-56173484D01*
X119775697Y-56229733D01*
X119775699Y-56229734D01*
X119849933Y-56244500D01*
X122310066Y-56244499D01*
X122310069Y-56244498D01*
X122310073Y-56244498D01*
X122359326Y-56234701D01*
X122384301Y-56229734D01*
X122468484Y-56173484D01*
X122524734Y-56089301D01*
X122539500Y-56015067D01*
X122539499Y-51944934D01*
X122524734Y-51870699D01*
X122468484Y-51786516D01*
X122468483Y-51786515D01*
X122384302Y-51730266D01*
X122310067Y-51715500D01*
X119849936Y-51715500D01*
X119849926Y-51715501D01*
X119775699Y-51730265D01*
X119691515Y-51786516D01*
X119635266Y-51870697D01*
X119620500Y-51944930D01*
X119620500Y-56015063D01*
X113406373Y-56015063D01*
X113412599Y-55998371D01*
X113418999Y-55938840D01*
X113419000Y-55938823D01*
X113419000Y-55241000D01*
X112394278Y-55241000D01*
X112442625Y-55157260D01*
X112472810Y-55025008D01*
X112462673Y-54889735D01*
X112413113Y-54763459D01*
X112395203Y-54741000D01*
X113419000Y-54741000D01*
X113419000Y-54043176D01*
X113418999Y-54043159D01*
X113412599Y-53983628D01*
X113362352Y-53848910D01*
X113276189Y-53733810D01*
X113161089Y-53647647D01*
X113026371Y-53597400D01*
X112966840Y-53591000D01*
X112269000Y-53591000D01*
X112269000Y-54616810D01*
X112216453Y-54580984D01*
X112086827Y-54541000D01*
X111985276Y-54541000D01*
X111884862Y-54556135D01*
X111769000Y-54611931D01*
X111769000Y-53591000D01*
X111071159Y-53591000D01*
X111011628Y-53597400D01*
X110876910Y-53647647D01*
X110761810Y-53733810D01*
X110675647Y-53848910D01*
X110625400Y-53983628D01*
X110619000Y-54043159D01*
X110619000Y-54208915D01*
X110598998Y-54277036D01*
X110545342Y-54323529D01*
X110475068Y-54333633D01*
X110410488Y-54304139D01*
X110392450Y-54284847D01*
X110335844Y-54209889D01*
X110177721Y-54065741D01*
X110177720Y-54065740D01*
X109995821Y-53953113D01*
X109995814Y-53953109D01*
X109995810Y-53953107D01*
X109995805Y-53953105D01*
X109796301Y-53875816D01*
X109796302Y-53875816D01*
X109796297Y-53875815D01*
X109585980Y-53836500D01*
X109372020Y-53836500D01*
X109213313Y-53866167D01*
X109161697Y-53875816D01*
X108962194Y-53953105D01*
X108962178Y-53953113D01*
X108780279Y-54065740D01*
X108780278Y-54065741D01*
X108622155Y-54209889D01*
X108493221Y-54380626D01*
X108397849Y-54572160D01*
X108397847Y-54572165D01*
X108339295Y-54777955D01*
X108319554Y-54990995D01*
X108319554Y-54991004D01*
X93900500Y-54991004D01*
X93900500Y-49250000D01*
X145450686Y-49250000D01*
X145469907Y-49481965D01*
X145469907Y-49481968D01*
X145469908Y-49481970D01*
X145527046Y-49707603D01*
X145527048Y-49707607D01*
X145620540Y-49920749D01*
X145620542Y-49920753D01*
X145620545Y-49920759D01*
X145671468Y-49998703D01*
X145747850Y-50115616D01*
X145747853Y-50115619D01*
X145905498Y-50286866D01*
X146089177Y-50429829D01*
X146089178Y-50429830D01*
X146293885Y-50540612D01*
X146293887Y-50540613D01*
X146392274Y-50574389D01*
X146514034Y-50616189D01*
X146743620Y-50654500D01*
X146743624Y-50654500D01*
X146976379Y-50654500D01*
X146976380Y-50654500D01*
X147091720Y-50635252D01*
X147093281Y-50635057D01*
X147102731Y-50633440D01*
X147102732Y-50633451D01*
X147103481Y-50633290D01*
X147205966Y-50616189D01*
X147322493Y-50576184D01*
X147323543Y-50575877D01*
X147327741Y-50574389D01*
X147328938Y-50573972D01*
X147426109Y-50540614D01*
X147426107Y-50540614D01*
X147426115Y-50540612D01*
X147630822Y-50429830D01*
X147814502Y-50286866D01*
X147972147Y-50115619D01*
X148099455Y-49920759D01*
X148192953Y-49707604D01*
X148250093Y-49481965D01*
X148269314Y-49250000D01*
X148250093Y-49018035D01*
X148192953Y-48792396D01*
X148099455Y-48579241D01*
X148023070Y-48462325D01*
X147972149Y-48384383D01*
X147972144Y-48384378D01*
X147814502Y-48213134D01*
X147630822Y-48070170D01*
X147630821Y-48070169D01*
X147426114Y-47959387D01*
X147426112Y-47959386D01*
X147205970Y-47883812D01*
X147205963Y-47883810D01*
X147097870Y-47865773D01*
X146976380Y-47845500D01*
X146743620Y-47845500D01*
X146694266Y-47853735D01*
X146628165Y-47864765D01*
X146626626Y-47864959D01*
X146617394Y-47866537D01*
X146617392Y-47866529D01*
X146616642Y-47866687D01*
X146514044Y-47883808D01*
X146514029Y-47883812D01*
X146396078Y-47924304D01*
X146395422Y-47924505D01*
X146391944Y-47925721D01*
X146391289Y-47925948D01*
X146293888Y-47959386D01*
X146293885Y-47959387D01*
X146089178Y-48070169D01*
X146089177Y-48070170D01*
X145905498Y-48213134D01*
X145747855Y-48384378D01*
X145747850Y-48384383D01*
X145620547Y-48579238D01*
X145620540Y-48579250D01*
X145527048Y-48792392D01*
X145527046Y-48792396D01*
X145469908Y-49018029D01*
X145469907Y-49018032D01*
X145469907Y-49018035D01*
X145450686Y-49250000D01*
X93900500Y-49250000D01*
X93900500Y-45974003D01*
X105493398Y-45974003D01*
X105513756Y-46180711D01*
X105574055Y-46379492D01*
X105671974Y-46562686D01*
X105803747Y-46723252D01*
X105964313Y-46855024D01*
X105964313Y-46855025D01*
X105964317Y-46855027D01*
X106147508Y-46952945D01*
X106346282Y-47013242D01*
X106346286Y-47013242D01*
X106346288Y-47013243D01*
X106552997Y-47033602D01*
X106553000Y-47033602D01*
X106553003Y-47033602D01*
X106759711Y-47013243D01*
X106759712Y-47013242D01*
X106759718Y-47013242D01*
X106958492Y-46952945D01*
X107141683Y-46855027D01*
X107141684Y-46855025D01*
X107141686Y-46855025D01*
X107141686Y-46855024D01*
X107302252Y-46723252D01*
X107434027Y-46562683D01*
X107531945Y-46379492D01*
X107592242Y-46180718D01*
X107612602Y-45974003D01*
X113113398Y-45974003D01*
X113133756Y-46180711D01*
X113194055Y-46379492D01*
X113291974Y-46562686D01*
X113423747Y-46723252D01*
X113584313Y-46855024D01*
X113584313Y-46855025D01*
X113584317Y-46855027D01*
X113767508Y-46952945D01*
X113966282Y-47013242D01*
X113966286Y-47013242D01*
X113966288Y-47013243D01*
X114172997Y-47033602D01*
X114173000Y-47033602D01*
X114173003Y-47033602D01*
X114379711Y-47013243D01*
X114379712Y-47013242D01*
X114379718Y-47013242D01*
X114578492Y-46952945D01*
X114761683Y-46855027D01*
X114761684Y-46855025D01*
X114761686Y-46855025D01*
X114761686Y-46855024D01*
X114922252Y-46723252D01*
X115054027Y-46562683D01*
X115151945Y-46379492D01*
X115212242Y-46180718D01*
X115232602Y-45974000D01*
X115212242Y-45767282D01*
X115151945Y-45568508D01*
X115054027Y-45385317D01*
X115054025Y-45385313D01*
X114922252Y-45224747D01*
X114761686Y-45092975D01*
X114761686Y-45092974D01*
X114578492Y-44995055D01*
X114379711Y-44934756D01*
X114173003Y-44914398D01*
X114172997Y-44914398D01*
X113966288Y-44934756D01*
X113767507Y-44995055D01*
X113584313Y-45092974D01*
X113584313Y-45092975D01*
X113423747Y-45224747D01*
X113291975Y-45385313D01*
X113291974Y-45385313D01*
X113194055Y-45568507D01*
X113133756Y-45767288D01*
X113113398Y-45973996D01*
X113113398Y-45974003D01*
X107612602Y-45974003D01*
X107612602Y-45974000D01*
X107592242Y-45767282D01*
X107531945Y-45568508D01*
X107434027Y-45385317D01*
X107434025Y-45385313D01*
X107302252Y-45224747D01*
X107141686Y-45092975D01*
X107141686Y-45092974D01*
X106958492Y-44995055D01*
X106759711Y-44934756D01*
X106553003Y-44914398D01*
X106552997Y-44914398D01*
X106346288Y-44934756D01*
X106147507Y-44995055D01*
X105964313Y-45092974D01*
X105964313Y-45092975D01*
X105803747Y-45224747D01*
X105671975Y-45385313D01*
X105671974Y-45385313D01*
X105574055Y-45568507D01*
X105513756Y-45767288D01*
X105493398Y-45973996D01*
X105493398Y-45974003D01*
X93900500Y-45974003D01*
X93900500Y-38000003D01*
X96045080Y-38000003D01*
X96064747Y-38362731D01*
X96123515Y-38721205D01*
X96123515Y-38721208D01*
X96220697Y-39071227D01*
X96220698Y-39071230D01*
X96355152Y-39408682D01*
X96355156Y-39408691D01*
X96525310Y-39729637D01*
X96525312Y-39729641D01*
X96729170Y-40030309D01*
X96729169Y-40030309D01*
X96860969Y-40185476D01*
X98102266Y-38944180D01*
X98265130Y-39134870D01*
X98455818Y-39297732D01*
X97211887Y-40541663D01*
X97228065Y-40556987D01*
X97228072Y-40556993D01*
X97517257Y-40776826D01*
X97517263Y-40776830D01*
X97828525Y-40964110D01*
X97828532Y-40964114D01*
X98158198Y-41116635D01*
X98158217Y-41116643D01*
X98502454Y-41232629D01*
X98502468Y-41232633D01*
X98857220Y-41310721D01*
X98857245Y-41310725D01*
X99218360Y-41349999D01*
X99218376Y-41350000D01*
X99581624Y-41350000D01*
X99581639Y-41349999D01*
X99942754Y-41310725D01*
X99942779Y-41310721D01*
X100297531Y-41232633D01*
X100297545Y-41232629D01*
X100641782Y-41116643D01*
X100641801Y-41116635D01*
X100971467Y-40964114D01*
X100971474Y-40964110D01*
X101282736Y-40776830D01*
X101282742Y-40776826D01*
X101571929Y-40556993D01*
X101571933Y-40556989D01*
X101588111Y-40541664D01*
X101588111Y-40541663D01*
X100344181Y-39297733D01*
X100534870Y-39134870D01*
X100697733Y-38944181D01*
X101939028Y-40185476D01*
X101939029Y-40185476D01*
X102070825Y-40030316D01*
X102070827Y-40030312D01*
X102274687Y-39729641D01*
X102274689Y-39729637D01*
X102444843Y-39408691D01*
X102444847Y-39408682D01*
X102579301Y-39071230D01*
X102579302Y-39071227D01*
X102676484Y-38721208D01*
X102676484Y-38721205D01*
X102735252Y-38362731D01*
X102754920Y-38000003D01*
X177045080Y-38000003D01*
X177064747Y-38362731D01*
X177123515Y-38721205D01*
X177123515Y-38721208D01*
X177220697Y-39071227D01*
X177220698Y-39071230D01*
X177355152Y-39408682D01*
X177355156Y-39408691D01*
X177525310Y-39729637D01*
X177525312Y-39729641D01*
X177729170Y-40030309D01*
X177729169Y-40030309D01*
X177860969Y-40185476D01*
X179102266Y-38944180D01*
X179265130Y-39134870D01*
X179455818Y-39297732D01*
X178211887Y-40541663D01*
X178228065Y-40556987D01*
X178228072Y-40556993D01*
X178517257Y-40776826D01*
X178517263Y-40776830D01*
X178828525Y-40964110D01*
X178828532Y-40964114D01*
X179158198Y-41116635D01*
X179158217Y-41116643D01*
X179502454Y-41232629D01*
X179502468Y-41232633D01*
X179857220Y-41310721D01*
X179857245Y-41310725D01*
X180218360Y-41349999D01*
X180218376Y-41350000D01*
X180581624Y-41350000D01*
X180581639Y-41349999D01*
X180942754Y-41310725D01*
X180942779Y-41310721D01*
X181297531Y-41232633D01*
X181297545Y-41232629D01*
X181641782Y-41116643D01*
X181641801Y-41116635D01*
X181971467Y-40964114D01*
X181971474Y-40964110D01*
X182282736Y-40776830D01*
X182282742Y-40776826D01*
X182571929Y-40556993D01*
X182571933Y-40556989D01*
X182588111Y-40541664D01*
X182588111Y-40541663D01*
X181344181Y-39297733D01*
X181534870Y-39134870D01*
X181697733Y-38944181D01*
X182939028Y-40185476D01*
X182939029Y-40185476D01*
X183070825Y-40030316D01*
X183070827Y-40030312D01*
X183274687Y-39729641D01*
X183274689Y-39729637D01*
X183444843Y-39408691D01*
X183444847Y-39408682D01*
X183579301Y-39071230D01*
X183579302Y-39071227D01*
X183676484Y-38721208D01*
X183676484Y-38721205D01*
X183735252Y-38362731D01*
X183754920Y-38000003D01*
X183754920Y-37999996D01*
X183735252Y-37637268D01*
X183676484Y-37278794D01*
X183676484Y-37278791D01*
X183579302Y-36928772D01*
X183579301Y-36928769D01*
X183444847Y-36591317D01*
X183444843Y-36591308D01*
X183274689Y-36270362D01*
X183274687Y-36270358D01*
X183070829Y-35969690D01*
X183070830Y-35969690D01*
X182939028Y-35814522D01*
X181697732Y-37055818D01*
X181534870Y-36865130D01*
X181344180Y-36702266D01*
X182588111Y-35458335D01*
X182571930Y-35443009D01*
X182282742Y-35223173D01*
X182282736Y-35223169D01*
X181971474Y-35035889D01*
X181971467Y-35035885D01*
X181641801Y-34883364D01*
X181641782Y-34883356D01*
X181297545Y-34767370D01*
X181297531Y-34767366D01*
X180942779Y-34689278D01*
X180942754Y-34689274D01*
X180581639Y-34650000D01*
X180218360Y-34650000D01*
X179857245Y-34689274D01*
X179857220Y-34689278D01*
X179502468Y-34767366D01*
X179502454Y-34767370D01*
X179158217Y-34883356D01*
X179158198Y-34883364D01*
X178828532Y-35035885D01*
X178828525Y-35035889D01*
X178517263Y-35223169D01*
X178517257Y-35223173D01*
X178228075Y-35443004D01*
X178211887Y-35458335D01*
X179455818Y-36702266D01*
X179265130Y-36865130D01*
X179102266Y-37055818D01*
X177860970Y-35814522D01*
X177729169Y-35969691D01*
X177525312Y-36270358D01*
X177525310Y-36270362D01*
X177355156Y-36591308D01*
X177355152Y-36591317D01*
X177220698Y-36928769D01*
X177220697Y-36928772D01*
X177123515Y-37278791D01*
X177123515Y-37278794D01*
X177064747Y-37637268D01*
X177045080Y-37999996D01*
X177045080Y-38000003D01*
X102754920Y-38000003D01*
X102754920Y-37999996D01*
X102735252Y-37637268D01*
X102676484Y-37278794D01*
X102676484Y-37278791D01*
X102579302Y-36928772D01*
X102579301Y-36928769D01*
X102444847Y-36591317D01*
X102444843Y-36591308D01*
X102274689Y-36270362D01*
X102274687Y-36270358D01*
X102070829Y-35969690D01*
X102070830Y-35969690D01*
X101939028Y-35814522D01*
X100697732Y-37055818D01*
X100534870Y-36865130D01*
X100344180Y-36702266D01*
X101588111Y-35458335D01*
X101571930Y-35443009D01*
X101282742Y-35223173D01*
X101282736Y-35223169D01*
X100971474Y-35035889D01*
X100971467Y-35035885D01*
X100641801Y-34883364D01*
X100641782Y-34883356D01*
X100297545Y-34767370D01*
X100297531Y-34767366D01*
X99942779Y-34689278D01*
X99942754Y-34689274D01*
X99581639Y-34650000D01*
X99218360Y-34650000D01*
X98857245Y-34689274D01*
X98857220Y-34689278D01*
X98502468Y-34767366D01*
X98502454Y-34767370D01*
X98158217Y-34883356D01*
X98158198Y-34883364D01*
X97828532Y-35035885D01*
X97828525Y-35035889D01*
X97517263Y-35223169D01*
X97517257Y-35223173D01*
X97228075Y-35443004D01*
X97211887Y-35458335D01*
X98455818Y-36702266D01*
X98265130Y-36865130D01*
X98102266Y-37055818D01*
X96860970Y-35814522D01*
X96729169Y-35969691D01*
X96525312Y-36270358D01*
X96525310Y-36270362D01*
X96355156Y-36591308D01*
X96355152Y-36591317D01*
X96220698Y-36928769D01*
X96220697Y-36928772D01*
X96123515Y-37278791D01*
X96123515Y-37278794D01*
X96064747Y-37637268D01*
X96045080Y-37999996D01*
X96045080Y-38000003D01*
X93900500Y-38000003D01*
X93900500Y-32626500D01*
X93920502Y-32558379D01*
X93974158Y-32511886D01*
X94026500Y-32500500D01*
X185773500Y-32500500D01*
X185841621Y-32520502D01*
G37*
%TD.AperFunction*%
%TD*%
M02*
