%TF.GenerationSoftware,KiCad,Pcbnew,7.0.11-7.0.11~ubuntu22.04.1*%
%TF.CreationDate,2025-04-04T02:52:59+02:00*%
%TF.ProjectId,signal-conditioning-pcb,7369676e-616c-42d6-936f-6e646974696f,rev?*%
%TF.SameCoordinates,Original*%
%TF.FileFunction,Soldermask,Top*%
%TF.FilePolarity,Negative*%
%FSLAX46Y46*%
G04 Gerber Fmt 4.6, Leading zero omitted, Abs format (unit mm)*
G04 Created by KiCad (PCBNEW 7.0.11-7.0.11~ubuntu22.04.1) date 2025-04-04 02:52:59*
%MOMM*%
%LPD*%
G01*
G04 APERTURE LIST*
G04 Aperture macros list*
%AMRoundRect*
0 Rectangle with rounded corners*
0 $1 Rounding radius*
0 $2 $3 $4 $5 $6 $7 $8 $9 X,Y pos of 4 corners*
0 Add a 4 corners polygon primitive as box body*
4,1,4,$2,$3,$4,$5,$6,$7,$8,$9,$2,$3,0*
0 Add four circle primitives for the rounded corners*
1,1,$1+$1,$2,$3*
1,1,$1+$1,$4,$5*
1,1,$1+$1,$6,$7*
1,1,$1+$1,$8,$9*
0 Add four rect primitives between the rounded corners*
20,1,$1+$1,$2,$3,$4,$5,0*
20,1,$1+$1,$4,$5,$6,$7,0*
20,1,$1+$1,$6,$7,$8,$9,0*
20,1,$1+$1,$8,$9,$2,$3,0*%
G04 Aperture macros list end*
%ADD10RoundRect,0.250000X0.725000X-0.600000X0.725000X0.600000X-0.725000X0.600000X-0.725000X-0.600000X0*%
%ADD11O,1.950000X1.700000*%
%ADD12R,1.900000X1.900000*%
%ADD13C,1.900000*%
%ADD14C,2.300000*%
%ADD15R,2.410000X4.020000*%
%ADD16O,2.410000X4.020000*%
%ADD17C,7.000000*%
%ADD18O,1.600000X2.500000*%
%ADD19O,3.500000X7.000000*%
%ADD20C,1.600000*%
%ADD21O,1.600000X1.600000*%
%ADD22R,1.600000X1.600000*%
%ADD23R,1.800000X1.800000*%
%ADD24C,1.800000*%
G04 APERTURE END LIST*
D10*
%TO.C,J5*%
X150368000Y-94234000D03*
D11*
X150368000Y-91734000D03*
X150368000Y-89234000D03*
X150368000Y-86734000D03*
%TD*%
D12*
%TO.C,S1*%
X114163000Y-64770000D03*
D13*
X111663000Y-64770000D03*
X109163000Y-64770000D03*
%TD*%
D14*
%TO.C,BT1*%
X133370000Y-71600000D03*
X146860000Y-49250000D03*
X160340000Y-71600000D03*
D15*
X121080000Y-53980000D03*
D16*
X121080000Y-66860000D03*
%TD*%
D17*
%TO.C,M1*%
X99400000Y-38000000D03*
%TD*%
D18*
%TO.C,J3*%
X110744000Y-110434000D03*
D19*
X115824000Y-115514000D03*
D18*
X113284000Y-110434000D03*
D19*
X105664000Y-115514000D03*
%TD*%
D18*
%TO.C,J1*%
X168824000Y-110514000D03*
D19*
X173904000Y-115594000D03*
D18*
X171364000Y-110514000D03*
D19*
X163744000Y-115594000D03*
%TD*%
D20*
%TO.C,R4*%
X106934000Y-99949000D03*
D21*
X114554000Y-99949000D03*
%TD*%
D20*
%TO.C,R8*%
X159131000Y-80010000D03*
D21*
X151511000Y-80010000D03*
%TD*%
D17*
%TO.C,M2*%
X180400000Y-38000000D03*
%TD*%
D22*
%TO.C,U1*%
X165618000Y-86878000D03*
D21*
X165618000Y-89418000D03*
X165618000Y-91958000D03*
X165618000Y-94498000D03*
X173238000Y-94498000D03*
X173238000Y-91958000D03*
X173238000Y-89418000D03*
X173238000Y-86878000D03*
%TD*%
D20*
%TO.C,R6*%
X114427000Y-86741000D03*
D21*
X106807000Y-86741000D03*
%TD*%
D22*
%TO.C,U2*%
X129677000Y-86624000D03*
D21*
X129677000Y-89164000D03*
X129677000Y-91704000D03*
X129677000Y-94244000D03*
X137297000Y-94244000D03*
X137297000Y-91704000D03*
X137297000Y-89164000D03*
X137297000Y-86624000D03*
%TD*%
D20*
%TO.C,R2*%
X137414000Y-80010000D03*
D21*
X129794000Y-80010000D03*
%TD*%
D17*
%TO.C,M3*%
X99400000Y-82000000D03*
%TD*%
D20*
%TO.C,R9*%
X114173000Y-45974000D03*
D21*
X106553000Y-45974000D03*
%TD*%
D20*
%TO.C,R3*%
X110490000Y-81153000D03*
D21*
X110490000Y-73533000D03*
%TD*%
D20*
%TO.C,R5*%
X114427000Y-92837000D03*
D21*
X106807000Y-92837000D03*
%TD*%
D20*
%TO.C,R1*%
X163322000Y-100838000D03*
D21*
X155702000Y-100838000D03*
%TD*%
D20*
%TO.C,R7*%
X129540000Y-100584000D03*
D21*
X137160000Y-100584000D03*
%TD*%
D23*
%TO.C,D1*%
X112019000Y-54991000D03*
D24*
X109479000Y-54991000D03*
%TD*%
D18*
%TO.C,J2*%
X140744000Y-110434000D03*
D19*
X145824000Y-115514000D03*
D18*
X143284000Y-110434000D03*
D19*
X135664000Y-115514000D03*
%TD*%
M02*
