%TF.GenerationSoftware,KiCad,Pcbnew,7.0.11-7.0.11~ubuntu22.04.1*%
%TF.CreationDate,2025-04-09T00:06:21+02:00*%
%TF.ProjectId,emulator-pcb,656d756c-6174-46f7-922d-7063622e6b69,v01*%
%TF.SameCoordinates,Original*%
%TF.FileFunction,Soldermask,Bot*%
%TF.FilePolarity,Negative*%
%FSLAX46Y46*%
G04 Gerber Fmt 4.6, Leading zero omitted, Abs format (unit mm)*
G04 Created by KiCad (PCBNEW 7.0.11-7.0.11~ubuntu22.04.1) date 2025-04-09 00:06:21*
%MOMM*%
%LPD*%
G01*
G04 APERTURE LIST*
%ADD10C,1.400000*%
%ADD11R,1.400000X1.400000*%
%ADD12C,1.574800*%
%ADD13R,2.500000X2.500000*%
%ADD14C,2.500000*%
%ADD15C,7.500000*%
%ADD16O,1.600000X1.600000*%
%ADD17C,1.600000*%
%ADD18C,1.524000*%
%ADD19R,1.200000X1.200000*%
%ADD20C,1.200000*%
%ADD21O,7.000000X3.500000*%
%ADD22O,2.500000X1.600000*%
%ADD23R,1.800000X1.800000*%
%ADD24O,1.800000X1.800000*%
%ADD25R,1.600000X1.600000*%
%ADD26O,1.050000X1.500000*%
%ADD27R,1.050000X1.500000*%
%ADD28C,1.800000*%
%ADD29R,2.000000X1.905000*%
%ADD30O,2.000000X1.905000*%
%ADD31C,1.900000*%
%ADD32R,1.900000X1.900000*%
%ADD33R,1.905000X2.000000*%
%ADD34O,1.905000X2.000000*%
G04 APERTURE END LIST*
D10*
%TO.C,RV1*%
X116350000Y-108450000D03*
X113810000Y-110990000D03*
D11*
X116350000Y-113530000D03*
%TD*%
%TO.C,RV2*%
X118430000Y-122200000D03*
D10*
X115890000Y-124740000D03*
X113350000Y-122200000D03*
%TD*%
D12*
%TO.C,XMER1*%
X262100000Y-101850000D03*
X242100000Y-101850000D03*
X242100000Y-126850001D03*
X247100000Y-126850001D03*
X257100000Y-126850001D03*
X262100000Y-126850001D03*
%TD*%
D13*
%TO.C,P2*%
X265200000Y-85900000D03*
D14*
X265200000Y-80900000D03*
X265200000Y-75900000D03*
%TD*%
D15*
%TO.C,Mount4*%
X120050000Y-136500000D03*
%TD*%
%TO.C,Mount3*%
X276250000Y-136350000D03*
%TD*%
%TO.C,Mount2*%
X276250000Y-61500000D03*
%TD*%
%TO.C,Mount1*%
X120050000Y-61500000D03*
%TD*%
D16*
%TO.C,R23*%
X181930000Y-108975000D03*
D17*
X189550000Y-108975000D03*
%TD*%
D18*
%TO.C,U1*%
X160900000Y-122825000D03*
X160900000Y-120285000D03*
X160900000Y-117745000D03*
X160900000Y-115205000D03*
X160900000Y-112665000D03*
X160900000Y-110125000D03*
X160900000Y-107585000D03*
X160900000Y-105045000D03*
X168520000Y-105045000D03*
X168520000Y-107585000D03*
X168520000Y-110125000D03*
X168520000Y-112665000D03*
X168520000Y-115205000D03*
X168520000Y-117745000D03*
X168520000Y-120285000D03*
X168520000Y-122825000D03*
%TD*%
D17*
%TO.C,R20*%
X202000000Y-92425000D03*
D16*
X194380000Y-92425000D03*
%TD*%
%TO.C,C7*%
X136500000Y-98600000D03*
D17*
X144000000Y-98600000D03*
%TD*%
D16*
%TO.C,R2*%
X160890000Y-99975000D03*
D17*
X168510000Y-99975000D03*
%TD*%
D16*
%TO.C,R28*%
X182030000Y-83325000D03*
D17*
X189650000Y-83325000D03*
%TD*%
D19*
%TO.C,C4*%
X197500000Y-119275000D03*
D20*
X199000000Y-119275000D03*
%TD*%
%TO.C,C2*%
X118947401Y-101130000D03*
D19*
X117447401Y-101130000D03*
%TD*%
D17*
%TO.C,C13*%
X235050000Y-87075000D03*
D16*
X242550000Y-87075000D03*
%TD*%
D17*
%TO.C,R17*%
X194390000Y-105525000D03*
D16*
X202010000Y-105525000D03*
%TD*%
%TO.C,C5*%
X149300000Y-109750000D03*
D17*
X149300000Y-117250000D03*
%TD*%
D21*
%TO.C,J3*%
X102220000Y-69670000D03*
D22*
X107300000Y-77290000D03*
D21*
X102220000Y-79830000D03*
D22*
X107300000Y-74750000D03*
%TD*%
D16*
%TO.C,R16*%
X149100000Y-104685000D03*
D17*
X149100000Y-97065000D03*
%TD*%
D16*
%TO.C,R7*%
X189570000Y-122925000D03*
D17*
X181950000Y-122925000D03*
%TD*%
D19*
%TO.C,C12*%
X226900000Y-100325000D03*
D20*
X228400000Y-100325000D03*
%TD*%
D16*
%TO.C,R11*%
X155400000Y-85865000D03*
D17*
X155400000Y-93485000D03*
%TD*%
D16*
%TO.C,R5*%
X181980000Y-76675000D03*
D17*
X189600000Y-76675000D03*
%TD*%
D22*
%TO.C,J1*%
X107770000Y-123130000D03*
D21*
X102690000Y-128210000D03*
D22*
X107770000Y-125670000D03*
D21*
X102690000Y-118050000D03*
%TD*%
D23*
%TO.C,D2*%
X221480000Y-107275000D03*
D24*
X229100000Y-107275000D03*
%TD*%
D16*
%TO.C,R24*%
X194530000Y-80075000D03*
D17*
X202150000Y-80075000D03*
%TD*%
%TO.C,R19*%
X194430000Y-112175000D03*
D16*
X202050000Y-112175000D03*
%TD*%
D19*
%TO.C,C11*%
X219450000Y-100275000D03*
D20*
X220950000Y-100275000D03*
%TD*%
D16*
%TO.C,R4*%
X189610000Y-69975000D03*
D17*
X181990000Y-69975000D03*
%TD*%
D18*
%TO.C,U3*%
X136330000Y-123165000D03*
X136330000Y-120625000D03*
X136330000Y-118085000D03*
X136330000Y-115545000D03*
X136330000Y-113005000D03*
X136330000Y-110465000D03*
X136330000Y-107925000D03*
X136330000Y-105385000D03*
X143950000Y-105385000D03*
X143950000Y-107925000D03*
X143950000Y-110465000D03*
X143950000Y-113005000D03*
X143950000Y-115545000D03*
X143950000Y-118085000D03*
X143950000Y-120625000D03*
X143950000Y-123165000D03*
%TD*%
D17*
%TO.C,R22*%
X169200000Y-78250000D03*
D16*
X161580000Y-78250000D03*
%TD*%
%TO.C,R13*%
X132460000Y-106750000D03*
D17*
X124840000Y-106750000D03*
%TD*%
D16*
%TO.C,U2*%
X168670000Y-92800000D03*
X168670000Y-95340000D03*
X161050000Y-95340000D03*
D25*
X161050000Y-92800000D03*
%TD*%
D16*
%TO.C,R15*%
X149100000Y-85875000D03*
D17*
X149100000Y-93495000D03*
%TD*%
%TO.C,R9*%
X182140000Y-95875000D03*
D16*
X189760000Y-95875000D03*
%TD*%
D26*
%TO.C,Q1*%
X152160000Y-78750000D03*
X153430000Y-78750000D03*
D27*
X154700000Y-78750000D03*
%TD*%
D21*
%TO.C,J2*%
X102570000Y-93820000D03*
D22*
X107650000Y-101440000D03*
D21*
X102570000Y-103980000D03*
D22*
X107650000Y-98900000D03*
%TD*%
D16*
%TO.C,R12*%
X124840000Y-100250000D03*
D17*
X132460000Y-100250000D03*
%TD*%
D20*
%TO.C,C3*%
X139050000Y-90850000D03*
X141050000Y-90850000D03*
%TD*%
D17*
%TO.C,R25*%
X194530000Y-86175000D03*
D16*
X202150000Y-86175000D03*
%TD*%
D28*
%TO.C,D5*%
X248435000Y-80075000D03*
D23*
X250975000Y-80075000D03*
%TD*%
D20*
%TO.C,C1*%
X175700000Y-108100000D03*
X175700000Y-110100000D03*
%TD*%
D17*
%TO.C,R10*%
X202100000Y-73375000D03*
D16*
X194480000Y-73375000D03*
%TD*%
D17*
%TO.C,R26*%
X245980000Y-71075000D03*
D16*
X253600000Y-71075000D03*
%TD*%
D17*
%TO.C,C6*%
X153450000Y-122975000D03*
D25*
X153450000Y-120975000D03*
%TD*%
%TO.C,C9*%
X211700000Y-86069888D03*
D17*
X211700000Y-88069888D03*
%TD*%
D29*
%TO.C,U4*%
X212645000Y-100515000D03*
D30*
X212645000Y-97975000D03*
X212645000Y-95435000D03*
%TD*%
D17*
%TO.C,C15*%
X117270000Y-92680000D03*
D25*
X119270000Y-92680000D03*
%TD*%
D17*
%TO.C,R1*%
X169110000Y-85375000D03*
D16*
X161490000Y-85375000D03*
%TD*%
%TO.C,R3*%
X155450000Y-97015000D03*
D17*
X155450000Y-104635000D03*
%TD*%
D31*
%TO.C,S1*%
X225650000Y-80075000D03*
X223150000Y-80075000D03*
D32*
X220650000Y-80075000D03*
%TD*%
D16*
%TO.C,R14*%
X182040000Y-102275000D03*
D17*
X189660000Y-102275000D03*
%TD*%
D23*
%TO.C,D4*%
X213300000Y-108265000D03*
D24*
X213300000Y-115885000D03*
%TD*%
D23*
%TO.C,D1*%
X231150000Y-93625000D03*
D24*
X223530000Y-93625000D03*
%TD*%
D17*
%TO.C,R6*%
X201960000Y-98975000D03*
D16*
X194340000Y-98975000D03*
%TD*%
D25*
%TO.C,C10*%
X213350000Y-120875000D03*
D17*
X213350000Y-122875000D03*
%TD*%
D16*
%TO.C,R21*%
X128650000Y-120810000D03*
D17*
X128650000Y-113190000D03*
%TD*%
D33*
%TO.C,U5*%
X247060000Y-91920000D03*
D34*
X249600000Y-91920000D03*
X252140000Y-91920000D03*
%TD*%
D17*
%TO.C,C14*%
X235400000Y-80075000D03*
D16*
X242900000Y-80075000D03*
%TD*%
D23*
%TO.C,D3*%
X221180000Y-118025000D03*
D24*
X228800000Y-118025000D03*
%TD*%
D16*
%TO.C,R18*%
X189700000Y-89575000D03*
D17*
X182080000Y-89575000D03*
%TD*%
D16*
%TO.C,R8*%
X189550000Y-115825000D03*
D17*
X181930000Y-115825000D03*
%TD*%
M02*
