M48
; DRILL file {KiCad 7.0.11-7.0.11~ubuntu22.04.1} date Wed 09 Apr 2025 00:05:37
; FORMAT={-:-/ absolute / metric / decimal}
; #@! TF.CreationDate,2025-04-09T00:05:37+02:00
; #@! TF.GenerationSoftware,Kicad,Pcbnew,7.0.11-7.0.11~ubuntu22.04.1
; #@! TF.FileFunction,Plated,1,2,PTH
FMAT,2
METRIC
; #@! TA.AperFunction,Plated,PTH,ComponentDrill
T1C0.600
; #@! TA.AperFunction,Plated,PTH,ComponentDrill
T2C0.700
; #@! TA.AperFunction,Plated,PTH,ComponentDrill
T3C0.750
; #@! TA.AperFunction,Plated,PTH,ComponentDrill
T4C0.762
; #@! TA.AperFunction,Plated,PTH,ComponentDrill
T5C0.800
; #@! TA.AperFunction,Plated,PTH,ComponentDrill
T6C0.890
; #@! TA.AperFunction,Plated,PTH,ComponentDrill
T7C0.900
; #@! TA.AperFunction,Plated,PTH,ComponentDrill
T8C1.067
; #@! TA.AperFunction,Plated,PTH,ComponentDrill
T9C1.100
; #@! TA.AperFunction,Plated,PTH,ComponentDrill
T10C1.300
; #@! TA.AperFunction,Plated,PTH,ComponentDrill
T11C2.010
; #@! TA.AperFunction,Plated,PTH,ComponentDrill
T12C4.300
%
G90
G05
T1
X117.447Y-101.13
X118.947Y-101.13
X139.05Y-90.85
X141.05Y-90.85
X175.7Y-108.1
X175.7Y-110.1
X197.5Y-119.275
X199.0Y-119.275
X219.45Y-100.275
X220.95Y-100.275
X226.9Y-100.325
X228.4Y-100.325
T2
X113.35Y-122.2
X113.81Y-110.99
X115.89Y-124.74
X116.35Y-108.45
X116.35Y-113.53
X118.43Y-122.2
T3
X152.16Y-78.75
X153.43Y-78.75
X154.7Y-78.75
T4
X136.33Y-105.385
X136.33Y-107.925
X136.33Y-110.465
X136.33Y-113.005
X136.33Y-115.545
X136.33Y-118.085
X136.33Y-120.625
X136.33Y-123.165
X143.95Y-105.385
X143.95Y-107.925
X143.95Y-110.465
X143.95Y-113.005
X143.95Y-115.545
X143.95Y-118.085
X143.95Y-120.625
X143.95Y-123.165
X160.9Y-105.045
X160.9Y-107.585
X160.9Y-110.125
X160.9Y-112.665
X160.9Y-115.205
X160.9Y-117.745
X160.9Y-120.285
X160.9Y-122.825
X168.52Y-105.045
X168.52Y-107.585
X168.52Y-110.125
X168.52Y-112.665
X168.52Y-115.205
X168.52Y-117.745
X168.52Y-120.285
X168.52Y-122.825
T5
X117.27Y-92.68
X119.27Y-92.68
X124.84Y-100.25
X124.84Y-106.75
X128.65Y-113.19
X128.65Y-120.81
X132.46Y-100.25
X132.46Y-106.75
X136.5Y-98.6
X144.0Y-98.6
X149.1Y-85.875
X149.1Y-93.495
X149.1Y-97.065
X149.1Y-104.685
X149.3Y-109.75
X149.3Y-117.25
X153.45Y-120.975
X153.45Y-122.975
X155.4Y-85.865
X155.4Y-93.485
X155.45Y-97.015
X155.45Y-104.635
X160.89Y-99.975
X161.05Y-92.8
X161.05Y-95.34
X161.49Y-85.375
X161.58Y-78.25
X168.51Y-99.975
X168.67Y-92.8
X168.67Y-95.34
X169.11Y-85.375
X169.2Y-78.25
X181.93Y-108.975
X181.93Y-115.825
X181.95Y-122.925
X181.98Y-76.675
X181.99Y-69.975
X182.03Y-83.325
X182.04Y-102.275
X182.08Y-89.575
X182.14Y-95.875
X189.55Y-108.975
X189.55Y-115.825
X189.57Y-122.925
X189.6Y-76.675
X189.61Y-69.975
X189.65Y-83.325
X189.66Y-102.275
X189.7Y-89.575
X189.76Y-95.875
X194.34Y-98.975
X194.38Y-92.425
X194.39Y-105.525
X194.43Y-112.175
X194.48Y-73.375
X194.53Y-80.075
X194.53Y-86.175
X201.96Y-98.975
X202.0Y-92.425
X202.01Y-105.525
X202.05Y-112.175
X202.1Y-73.375
X202.15Y-80.075
X202.15Y-86.175
X211.7Y-86.07
X211.7Y-88.07
X213.35Y-120.875
X213.35Y-122.875
X235.05Y-87.075
X235.4Y-80.075
X242.55Y-87.075
X242.9Y-80.075
X245.98Y-71.075
X253.6Y-71.075
T6
X107.3Y-74.75
X107.3Y-77.29
X107.65Y-98.9
X107.65Y-101.44
X107.77Y-123.13
X107.77Y-125.67
T7
X213.3Y-108.265
X213.3Y-115.885
X220.65Y-80.075
X221.18Y-118.025
X221.48Y-107.275
X223.15Y-80.075
X223.53Y-93.625
X225.65Y-80.075
X228.8Y-118.025
X229.1Y-107.275
X231.15Y-93.625
X248.435Y-80.075
X250.975Y-80.075
T8
X242.1Y-101.85
X242.1Y-126.85
X247.1Y-126.85
X257.1Y-126.85
X262.1Y-101.85
X262.1Y-126.85
T9
X212.645Y-95.435
X212.645Y-97.975
X212.645Y-100.515
X247.06Y-91.92
X249.6Y-91.92
X252.14Y-91.92
T10
X265.2Y-75.9
X265.2Y-80.9
X265.2Y-85.9
T11
X102.22Y-69.67
X102.22Y-79.83
X102.57Y-93.82
X102.57Y-103.98
X102.69Y-118.05
X102.69Y-128.21
T12
X120.05Y-61.5
X120.05Y-136.5
X276.25Y-61.5
X276.25Y-136.35
M30
