%TF.GenerationSoftware,KiCad,Pcbnew,7.0.11-7.0.11~ubuntu22.04.1*%
%TF.CreationDate,2025-04-22T14:20:39+02:00*%
%TF.ProjectId,emulator-pcb,656d756c-6174-46f7-922d-7063622e6b69,v02*%
%TF.SameCoordinates,Original*%
%TF.FileFunction,Legend,Bot*%
%TF.FilePolarity,Positive*%
%FSLAX46Y46*%
G04 Gerber Fmt 4.6, Leading zero omitted, Abs format (unit mm)*
G04 Created by KiCad (PCBNEW 7.0.11-7.0.11~ubuntu22.04.1) date 2025-04-22 14:20:39*
%MOMM*%
%LPD*%
G01*
G04 APERTURE LIST*
%ADD10C,0.100000*%
G04 APERTURE END LIST*
D10*
X203296115Y-75692419D02*
X203296115Y-76501942D01*
X203296115Y-76501942D02*
X203248496Y-76597180D01*
X203248496Y-76597180D02*
X203200877Y-76644800D01*
X203200877Y-76644800D02*
X203105639Y-76692419D01*
X203105639Y-76692419D02*
X202915163Y-76692419D01*
X202915163Y-76692419D02*
X202819925Y-76644800D01*
X202819925Y-76644800D02*
X202772306Y-76597180D01*
X202772306Y-76597180D02*
X202724687Y-76501942D01*
X202724687Y-76501942D02*
X202724687Y-75692419D01*
X202248496Y-76025752D02*
X202248496Y-76692419D01*
X202248496Y-76120990D02*
X202200877Y-76073371D01*
X202200877Y-76073371D02*
X202105639Y-76025752D01*
X202105639Y-76025752D02*
X201962782Y-76025752D01*
X201962782Y-76025752D02*
X201867544Y-76073371D01*
X201867544Y-76073371D02*
X201819925Y-76168609D01*
X201819925Y-76168609D02*
X201819925Y-76692419D01*
X201343734Y-76692419D02*
X201343734Y-76025752D01*
X201343734Y-75692419D02*
X201391353Y-75740038D01*
X201391353Y-75740038D02*
X201343734Y-75787657D01*
X201343734Y-75787657D02*
X201296115Y-75740038D01*
X201296115Y-75740038D02*
X201343734Y-75692419D01*
X201343734Y-75692419D02*
X201343734Y-75787657D01*
X200962782Y-76025752D02*
X200724687Y-76692419D01*
X200724687Y-76692419D02*
X200486592Y-76025752D01*
X199724687Y-76644800D02*
X199819925Y-76692419D01*
X199819925Y-76692419D02*
X200010401Y-76692419D01*
X200010401Y-76692419D02*
X200105639Y-76644800D01*
X200105639Y-76644800D02*
X200153258Y-76549561D01*
X200153258Y-76549561D02*
X200153258Y-76168609D01*
X200153258Y-76168609D02*
X200105639Y-76073371D01*
X200105639Y-76073371D02*
X200010401Y-76025752D01*
X200010401Y-76025752D02*
X199819925Y-76025752D01*
X199819925Y-76025752D02*
X199724687Y-76073371D01*
X199724687Y-76073371D02*
X199677068Y-76168609D01*
X199677068Y-76168609D02*
X199677068Y-76263847D01*
X199677068Y-76263847D02*
X200153258Y-76359085D01*
X199248496Y-76692419D02*
X199248496Y-76025752D01*
X199248496Y-76216228D02*
X199200877Y-76120990D01*
X199200877Y-76120990D02*
X199153258Y-76073371D01*
X199153258Y-76073371D02*
X199058020Y-76025752D01*
X199058020Y-76025752D02*
X198962782Y-76025752D01*
X198677067Y-76644800D02*
X198581829Y-76692419D01*
X198581829Y-76692419D02*
X198391353Y-76692419D01*
X198391353Y-76692419D02*
X198296115Y-76644800D01*
X198296115Y-76644800D02*
X198248496Y-76549561D01*
X198248496Y-76549561D02*
X198248496Y-76501942D01*
X198248496Y-76501942D02*
X198296115Y-76406704D01*
X198296115Y-76406704D02*
X198391353Y-76359085D01*
X198391353Y-76359085D02*
X198534210Y-76359085D01*
X198534210Y-76359085D02*
X198629448Y-76311466D01*
X198629448Y-76311466D02*
X198677067Y-76216228D01*
X198677067Y-76216228D02*
X198677067Y-76168609D01*
X198677067Y-76168609D02*
X198629448Y-76073371D01*
X198629448Y-76073371D02*
X198534210Y-76025752D01*
X198534210Y-76025752D02*
X198391353Y-76025752D01*
X198391353Y-76025752D02*
X198296115Y-76073371D01*
X197819924Y-76692419D02*
X197819924Y-76025752D01*
X197819924Y-75692419D02*
X197867543Y-75740038D01*
X197867543Y-75740038D02*
X197819924Y-75787657D01*
X197819924Y-75787657D02*
X197772305Y-75740038D01*
X197772305Y-75740038D02*
X197819924Y-75692419D01*
X197819924Y-75692419D02*
X197819924Y-75787657D01*
X197486591Y-76025752D02*
X197105639Y-76025752D01*
X197343734Y-75692419D02*
X197343734Y-76549561D01*
X197343734Y-76549561D02*
X197296115Y-76644800D01*
X197296115Y-76644800D02*
X197200877Y-76692419D01*
X197200877Y-76692419D02*
X197105639Y-76692419D01*
X196867543Y-76025752D02*
X196629448Y-76692419D01*
X196391353Y-76025752D02*
X196629448Y-76692419D01*
X196629448Y-76692419D02*
X196724686Y-76930514D01*
X196724686Y-76930514D02*
X196772305Y-76978133D01*
X196772305Y-76978133D02*
X196867543Y-77025752D01*
X195105638Y-76692419D02*
X195200876Y-76644800D01*
X195200876Y-76644800D02*
X195248495Y-76597180D01*
X195248495Y-76597180D02*
X195296114Y-76501942D01*
X195296114Y-76501942D02*
X195296114Y-76216228D01*
X195296114Y-76216228D02*
X195248495Y-76120990D01*
X195248495Y-76120990D02*
X195200876Y-76073371D01*
X195200876Y-76073371D02*
X195105638Y-76025752D01*
X195105638Y-76025752D02*
X194962781Y-76025752D01*
X194962781Y-76025752D02*
X194867543Y-76073371D01*
X194867543Y-76073371D02*
X194819924Y-76120990D01*
X194819924Y-76120990D02*
X194772305Y-76216228D01*
X194772305Y-76216228D02*
X194772305Y-76501942D01*
X194772305Y-76501942D02*
X194819924Y-76597180D01*
X194819924Y-76597180D02*
X194867543Y-76644800D01*
X194867543Y-76644800D02*
X194962781Y-76692419D01*
X194962781Y-76692419D02*
X195105638Y-76692419D01*
X194486590Y-76025752D02*
X194105638Y-76025752D01*
X194343733Y-76692419D02*
X194343733Y-75835276D01*
X194343733Y-75835276D02*
X194296114Y-75740038D01*
X194296114Y-75740038D02*
X194200876Y-75692419D01*
X194200876Y-75692419D02*
X194105638Y-75692419D01*
X192438971Y-76597180D02*
X192486590Y-76644800D01*
X192486590Y-76644800D02*
X192629447Y-76692419D01*
X192629447Y-76692419D02*
X192724685Y-76692419D01*
X192724685Y-76692419D02*
X192867542Y-76644800D01*
X192867542Y-76644800D02*
X192962780Y-76549561D01*
X192962780Y-76549561D02*
X193010399Y-76454323D01*
X193010399Y-76454323D02*
X193058018Y-76263847D01*
X193058018Y-76263847D02*
X193058018Y-76120990D01*
X193058018Y-76120990D02*
X193010399Y-75930514D01*
X193010399Y-75930514D02*
X192962780Y-75835276D01*
X192962780Y-75835276D02*
X192867542Y-75740038D01*
X192867542Y-75740038D02*
X192724685Y-75692419D01*
X192724685Y-75692419D02*
X192629447Y-75692419D01*
X192629447Y-75692419D02*
X192486590Y-75740038D01*
X192486590Y-75740038D02*
X192438971Y-75787657D01*
X191581828Y-76692419D02*
X191581828Y-76168609D01*
X191581828Y-76168609D02*
X191629447Y-76073371D01*
X191629447Y-76073371D02*
X191724685Y-76025752D01*
X191724685Y-76025752D02*
X191915161Y-76025752D01*
X191915161Y-76025752D02*
X192010399Y-76073371D01*
X191581828Y-76644800D02*
X191677066Y-76692419D01*
X191677066Y-76692419D02*
X191915161Y-76692419D01*
X191915161Y-76692419D02*
X192010399Y-76644800D01*
X192010399Y-76644800D02*
X192058018Y-76549561D01*
X192058018Y-76549561D02*
X192058018Y-76454323D01*
X192058018Y-76454323D02*
X192010399Y-76359085D01*
X192010399Y-76359085D02*
X191915161Y-76311466D01*
X191915161Y-76311466D02*
X191677066Y-76311466D01*
X191677066Y-76311466D02*
X191581828Y-76263847D01*
X191105637Y-76025752D02*
X191105637Y-77025752D01*
X191105637Y-76073371D02*
X191010399Y-76025752D01*
X191010399Y-76025752D02*
X190819923Y-76025752D01*
X190819923Y-76025752D02*
X190724685Y-76073371D01*
X190724685Y-76073371D02*
X190677066Y-76120990D01*
X190677066Y-76120990D02*
X190629447Y-76216228D01*
X190629447Y-76216228D02*
X190629447Y-76501942D01*
X190629447Y-76501942D02*
X190677066Y-76597180D01*
X190677066Y-76597180D02*
X190724685Y-76644800D01*
X190724685Y-76644800D02*
X190819923Y-76692419D01*
X190819923Y-76692419D02*
X191010399Y-76692419D01*
X191010399Y-76692419D02*
X191105637Y-76644800D01*
X189819923Y-76644800D02*
X189915161Y-76692419D01*
X189915161Y-76692419D02*
X190105637Y-76692419D01*
X190105637Y-76692419D02*
X190200875Y-76644800D01*
X190200875Y-76644800D02*
X190248494Y-76549561D01*
X190248494Y-76549561D02*
X190248494Y-76168609D01*
X190248494Y-76168609D02*
X190200875Y-76073371D01*
X190200875Y-76073371D02*
X190105637Y-76025752D01*
X190105637Y-76025752D02*
X189915161Y-76025752D01*
X189915161Y-76025752D02*
X189819923Y-76073371D01*
X189819923Y-76073371D02*
X189772304Y-76168609D01*
X189772304Y-76168609D02*
X189772304Y-76263847D01*
X189772304Y-76263847D02*
X190248494Y-76359085D01*
X188724684Y-75692419D02*
X188153256Y-75692419D01*
X188438970Y-76692419D02*
X188438970Y-75692419D01*
X187677065Y-76692419D02*
X187772303Y-76644800D01*
X187772303Y-76644800D02*
X187819922Y-76597180D01*
X187819922Y-76597180D02*
X187867541Y-76501942D01*
X187867541Y-76501942D02*
X187867541Y-76216228D01*
X187867541Y-76216228D02*
X187819922Y-76120990D01*
X187819922Y-76120990D02*
X187772303Y-76073371D01*
X187772303Y-76073371D02*
X187677065Y-76025752D01*
X187677065Y-76025752D02*
X187534208Y-76025752D01*
X187534208Y-76025752D02*
X187438970Y-76073371D01*
X187438970Y-76073371D02*
X187391351Y-76120990D01*
X187391351Y-76120990D02*
X187343732Y-76216228D01*
X187343732Y-76216228D02*
X187343732Y-76501942D01*
X187343732Y-76501942D02*
X187391351Y-76597180D01*
X187391351Y-76597180D02*
X187438970Y-76644800D01*
X187438970Y-76644800D02*
X187534208Y-76692419D01*
X187534208Y-76692419D02*
X187677065Y-76692419D01*
X187010398Y-76025752D02*
X186819922Y-76692419D01*
X186819922Y-76692419D02*
X186629446Y-76216228D01*
X186629446Y-76216228D02*
X186438970Y-76692419D01*
X186438970Y-76692419D02*
X186248494Y-76025752D01*
X185867541Y-76025752D02*
X185867541Y-76692419D01*
X185867541Y-76120990D02*
X185819922Y-76073371D01*
X185819922Y-76073371D02*
X185724684Y-76025752D01*
X185724684Y-76025752D02*
X185581827Y-76025752D01*
X185581827Y-76025752D02*
X185486589Y-76073371D01*
X185486589Y-76073371D02*
X185438970Y-76168609D01*
X185438970Y-76168609D02*
X185438970Y-76692419D01*
X203296115Y-77778609D02*
X202962782Y-77778609D01*
X202819925Y-78302419D02*
X203296115Y-78302419D01*
X203296115Y-78302419D02*
X203296115Y-77302419D01*
X203296115Y-77302419D02*
X202819925Y-77302419D01*
X202391353Y-77778609D02*
X202058020Y-77778609D01*
X201915163Y-78302419D02*
X202391353Y-78302419D01*
X202391353Y-78302419D02*
X202391353Y-77302419D01*
X202391353Y-77302419D02*
X201915163Y-77302419D01*
X201486591Y-77778609D02*
X201153258Y-77778609D01*
X201010401Y-78302419D02*
X201486591Y-78302419D01*
X201486591Y-78302419D02*
X201486591Y-77302419D01*
X201486591Y-77302419D02*
X201010401Y-77302419D01*
X200153258Y-77635752D02*
X200153258Y-78302419D01*
X200391353Y-77254800D02*
X200629448Y-77969085D01*
X200629448Y-77969085D02*
X200010401Y-77969085D01*
X199438972Y-77302419D02*
X199343734Y-77302419D01*
X199343734Y-77302419D02*
X199248496Y-77350038D01*
X199248496Y-77350038D02*
X199200877Y-77397657D01*
X199200877Y-77397657D02*
X199153258Y-77492895D01*
X199153258Y-77492895D02*
X199105639Y-77683371D01*
X199105639Y-77683371D02*
X199105639Y-77921466D01*
X199105639Y-77921466D02*
X199153258Y-78111942D01*
X199153258Y-78111942D02*
X199200877Y-78207180D01*
X199200877Y-78207180D02*
X199248496Y-78254800D01*
X199248496Y-78254800D02*
X199343734Y-78302419D01*
X199343734Y-78302419D02*
X199438972Y-78302419D01*
X199438972Y-78302419D02*
X199534210Y-78254800D01*
X199534210Y-78254800D02*
X199581829Y-78207180D01*
X199581829Y-78207180D02*
X199629448Y-78111942D01*
X199629448Y-78111942D02*
X199677067Y-77921466D01*
X199677067Y-77921466D02*
X199677067Y-77683371D01*
X199677067Y-77683371D02*
X199629448Y-77492895D01*
X199629448Y-77492895D02*
X199581829Y-77397657D01*
X199581829Y-77397657D02*
X199534210Y-77350038D01*
X199534210Y-77350038D02*
X199438972Y-77302419D01*
X198724686Y-77397657D02*
X198677067Y-77350038D01*
X198677067Y-77350038D02*
X198581829Y-77302419D01*
X198581829Y-77302419D02*
X198343734Y-77302419D01*
X198343734Y-77302419D02*
X198248496Y-77350038D01*
X198248496Y-77350038D02*
X198200877Y-77397657D01*
X198200877Y-77397657D02*
X198153258Y-77492895D01*
X198153258Y-77492895D02*
X198153258Y-77588133D01*
X198153258Y-77588133D02*
X198200877Y-77730990D01*
X198200877Y-77730990D02*
X198772305Y-78302419D01*
X198772305Y-78302419D02*
X198153258Y-78302419D01*
X197772305Y-77397657D02*
X197724686Y-77350038D01*
X197724686Y-77350038D02*
X197629448Y-77302419D01*
X197629448Y-77302419D02*
X197391353Y-77302419D01*
X197391353Y-77302419D02*
X197296115Y-77350038D01*
X197296115Y-77350038D02*
X197248496Y-77397657D01*
X197248496Y-77397657D02*
X197200877Y-77492895D01*
X197200877Y-77492895D02*
X197200877Y-77588133D01*
X197200877Y-77588133D02*
X197248496Y-77730990D01*
X197248496Y-77730990D02*
X197819924Y-78302419D01*
X197819924Y-78302419D02*
X197200877Y-78302419D01*
X196438972Y-77778609D02*
X196772305Y-77778609D01*
X196772305Y-78302419D02*
X196772305Y-77302419D01*
X196772305Y-77302419D02*
X196296115Y-77302419D01*
X194581829Y-78302419D02*
X194915162Y-77826228D01*
X195153257Y-78302419D02*
X195153257Y-77302419D01*
X195153257Y-77302419D02*
X194772305Y-77302419D01*
X194772305Y-77302419D02*
X194677067Y-77350038D01*
X194677067Y-77350038D02*
X194629448Y-77397657D01*
X194629448Y-77397657D02*
X194581829Y-77492895D01*
X194581829Y-77492895D02*
X194581829Y-77635752D01*
X194581829Y-77635752D02*
X194629448Y-77730990D01*
X194629448Y-77730990D02*
X194677067Y-77778609D01*
X194677067Y-77778609D02*
X194772305Y-77826228D01*
X194772305Y-77826228D02*
X195153257Y-77826228D01*
X193772305Y-78254800D02*
X193867543Y-78302419D01*
X193867543Y-78302419D02*
X194058019Y-78302419D01*
X194058019Y-78302419D02*
X194153257Y-78254800D01*
X194153257Y-78254800D02*
X194200876Y-78159561D01*
X194200876Y-78159561D02*
X194200876Y-77778609D01*
X194200876Y-77778609D02*
X194153257Y-77683371D01*
X194153257Y-77683371D02*
X194058019Y-77635752D01*
X194058019Y-77635752D02*
X193867543Y-77635752D01*
X193867543Y-77635752D02*
X193772305Y-77683371D01*
X193772305Y-77683371D02*
X193724686Y-77778609D01*
X193724686Y-77778609D02*
X193724686Y-77873847D01*
X193724686Y-77873847D02*
X194200876Y-77969085D01*
X193343733Y-78254800D02*
X193248495Y-78302419D01*
X193248495Y-78302419D02*
X193058019Y-78302419D01*
X193058019Y-78302419D02*
X192962781Y-78254800D01*
X192962781Y-78254800D02*
X192915162Y-78159561D01*
X192915162Y-78159561D02*
X192915162Y-78111942D01*
X192915162Y-78111942D02*
X192962781Y-78016704D01*
X192962781Y-78016704D02*
X193058019Y-77969085D01*
X193058019Y-77969085D02*
X193200876Y-77969085D01*
X193200876Y-77969085D02*
X193296114Y-77921466D01*
X193296114Y-77921466D02*
X193343733Y-77826228D01*
X193343733Y-77826228D02*
X193343733Y-77778609D01*
X193343733Y-77778609D02*
X193296114Y-77683371D01*
X193296114Y-77683371D02*
X193200876Y-77635752D01*
X193200876Y-77635752D02*
X193058019Y-77635752D01*
X193058019Y-77635752D02*
X192962781Y-77683371D01*
X192105638Y-78254800D02*
X192200876Y-78302419D01*
X192200876Y-78302419D02*
X192391352Y-78302419D01*
X192391352Y-78302419D02*
X192486590Y-78254800D01*
X192486590Y-78254800D02*
X192534209Y-78159561D01*
X192534209Y-78159561D02*
X192534209Y-77778609D01*
X192534209Y-77778609D02*
X192486590Y-77683371D01*
X192486590Y-77683371D02*
X192391352Y-77635752D01*
X192391352Y-77635752D02*
X192200876Y-77635752D01*
X192200876Y-77635752D02*
X192105638Y-77683371D01*
X192105638Y-77683371D02*
X192058019Y-77778609D01*
X192058019Y-77778609D02*
X192058019Y-77873847D01*
X192058019Y-77873847D02*
X192534209Y-77969085D01*
X191200876Y-78302419D02*
X191200876Y-77778609D01*
X191200876Y-77778609D02*
X191248495Y-77683371D01*
X191248495Y-77683371D02*
X191343733Y-77635752D01*
X191343733Y-77635752D02*
X191534209Y-77635752D01*
X191534209Y-77635752D02*
X191629447Y-77683371D01*
X191200876Y-78254800D02*
X191296114Y-78302419D01*
X191296114Y-78302419D02*
X191534209Y-78302419D01*
X191534209Y-78302419D02*
X191629447Y-78254800D01*
X191629447Y-78254800D02*
X191677066Y-78159561D01*
X191677066Y-78159561D02*
X191677066Y-78064323D01*
X191677066Y-78064323D02*
X191629447Y-77969085D01*
X191629447Y-77969085D02*
X191534209Y-77921466D01*
X191534209Y-77921466D02*
X191296114Y-77921466D01*
X191296114Y-77921466D02*
X191200876Y-77873847D01*
X190724685Y-78302419D02*
X190724685Y-77635752D01*
X190724685Y-77826228D02*
X190677066Y-77730990D01*
X190677066Y-77730990D02*
X190629447Y-77683371D01*
X190629447Y-77683371D02*
X190534209Y-77635752D01*
X190534209Y-77635752D02*
X190438971Y-77635752D01*
X189677066Y-78254800D02*
X189772304Y-78302419D01*
X189772304Y-78302419D02*
X189962780Y-78302419D01*
X189962780Y-78302419D02*
X190058018Y-78254800D01*
X190058018Y-78254800D02*
X190105637Y-78207180D01*
X190105637Y-78207180D02*
X190153256Y-78111942D01*
X190153256Y-78111942D02*
X190153256Y-77826228D01*
X190153256Y-77826228D02*
X190105637Y-77730990D01*
X190105637Y-77730990D02*
X190058018Y-77683371D01*
X190058018Y-77683371D02*
X189962780Y-77635752D01*
X189962780Y-77635752D02*
X189772304Y-77635752D01*
X189772304Y-77635752D02*
X189677066Y-77683371D01*
X189248494Y-78302419D02*
X189248494Y-77302419D01*
X188819923Y-78302419D02*
X188819923Y-77778609D01*
X188819923Y-77778609D02*
X188867542Y-77683371D01*
X188867542Y-77683371D02*
X188962780Y-77635752D01*
X188962780Y-77635752D02*
X189105637Y-77635752D01*
X189105637Y-77635752D02*
X189200875Y-77683371D01*
X189200875Y-77683371D02*
X189248494Y-77730990D01*
X187581827Y-78302419D02*
X187581827Y-77302419D01*
X187581827Y-77302419D02*
X187200875Y-77302419D01*
X187200875Y-77302419D02*
X187105637Y-77350038D01*
X187105637Y-77350038D02*
X187058018Y-77397657D01*
X187058018Y-77397657D02*
X187010399Y-77492895D01*
X187010399Y-77492895D02*
X187010399Y-77635752D01*
X187010399Y-77635752D02*
X187058018Y-77730990D01*
X187058018Y-77730990D02*
X187105637Y-77778609D01*
X187105637Y-77778609D02*
X187200875Y-77826228D01*
X187200875Y-77826228D02*
X187581827Y-77826228D01*
X186581827Y-78302419D02*
X186581827Y-77635752D01*
X186581827Y-77826228D02*
X186534208Y-77730990D01*
X186534208Y-77730990D02*
X186486589Y-77683371D01*
X186486589Y-77683371D02*
X186391351Y-77635752D01*
X186391351Y-77635752D02*
X186296113Y-77635752D01*
X185819922Y-78302419D02*
X185915160Y-78254800D01*
X185915160Y-78254800D02*
X185962779Y-78207180D01*
X185962779Y-78207180D02*
X186010398Y-78111942D01*
X186010398Y-78111942D02*
X186010398Y-77826228D01*
X186010398Y-77826228D02*
X185962779Y-77730990D01*
X185962779Y-77730990D02*
X185915160Y-77683371D01*
X185915160Y-77683371D02*
X185819922Y-77635752D01*
X185819922Y-77635752D02*
X185677065Y-77635752D01*
X185677065Y-77635752D02*
X185581827Y-77683371D01*
X185581827Y-77683371D02*
X185534208Y-77730990D01*
X185534208Y-77730990D02*
X185486589Y-77826228D01*
X185486589Y-77826228D02*
X185486589Y-78111942D01*
X185486589Y-78111942D02*
X185534208Y-78207180D01*
X185534208Y-78207180D02*
X185581827Y-78254800D01*
X185581827Y-78254800D02*
X185677065Y-78302419D01*
X185677065Y-78302419D02*
X185819922Y-78302419D01*
X185058017Y-77635752D02*
X185058017Y-78492895D01*
X185058017Y-78492895D02*
X185105636Y-78588133D01*
X185105636Y-78588133D02*
X185200874Y-78635752D01*
X185200874Y-78635752D02*
X185248493Y-78635752D01*
X185058017Y-77302419D02*
X185105636Y-77350038D01*
X185105636Y-77350038D02*
X185058017Y-77397657D01*
X185058017Y-77397657D02*
X185010398Y-77350038D01*
X185010398Y-77350038D02*
X185058017Y-77302419D01*
X185058017Y-77302419D02*
X185058017Y-77397657D01*
X184200875Y-78254800D02*
X184296113Y-78302419D01*
X184296113Y-78302419D02*
X184486589Y-78302419D01*
X184486589Y-78302419D02*
X184581827Y-78254800D01*
X184581827Y-78254800D02*
X184629446Y-78159561D01*
X184629446Y-78159561D02*
X184629446Y-77778609D01*
X184629446Y-77778609D02*
X184581827Y-77683371D01*
X184581827Y-77683371D02*
X184486589Y-77635752D01*
X184486589Y-77635752D02*
X184296113Y-77635752D01*
X184296113Y-77635752D02*
X184200875Y-77683371D01*
X184200875Y-77683371D02*
X184153256Y-77778609D01*
X184153256Y-77778609D02*
X184153256Y-77873847D01*
X184153256Y-77873847D02*
X184629446Y-77969085D01*
X183296113Y-78254800D02*
X183391351Y-78302419D01*
X183391351Y-78302419D02*
X183581827Y-78302419D01*
X183581827Y-78302419D02*
X183677065Y-78254800D01*
X183677065Y-78254800D02*
X183724684Y-78207180D01*
X183724684Y-78207180D02*
X183772303Y-78111942D01*
X183772303Y-78111942D02*
X183772303Y-77826228D01*
X183772303Y-77826228D02*
X183724684Y-77730990D01*
X183724684Y-77730990D02*
X183677065Y-77683371D01*
X183677065Y-77683371D02*
X183581827Y-77635752D01*
X183581827Y-77635752D02*
X183391351Y-77635752D01*
X183391351Y-77635752D02*
X183296113Y-77683371D01*
X183010398Y-77635752D02*
X182629446Y-77635752D01*
X182867541Y-77302419D02*
X182867541Y-78159561D01*
X182867541Y-78159561D02*
X182819922Y-78254800D01*
X182819922Y-78254800D02*
X182724684Y-78302419D01*
X182724684Y-78302419D02*
X182629446Y-78302419D01*
X202962782Y-79388609D02*
X202819925Y-79436228D01*
X202819925Y-79436228D02*
X202772306Y-79483847D01*
X202772306Y-79483847D02*
X202724687Y-79579085D01*
X202724687Y-79579085D02*
X202724687Y-79721942D01*
X202724687Y-79721942D02*
X202772306Y-79817180D01*
X202772306Y-79817180D02*
X202819925Y-79864800D01*
X202819925Y-79864800D02*
X202915163Y-79912419D01*
X202915163Y-79912419D02*
X203296115Y-79912419D01*
X203296115Y-79912419D02*
X203296115Y-78912419D01*
X203296115Y-78912419D02*
X202962782Y-78912419D01*
X202962782Y-78912419D02*
X202867544Y-78960038D01*
X202867544Y-78960038D02*
X202819925Y-79007657D01*
X202819925Y-79007657D02*
X202772306Y-79102895D01*
X202772306Y-79102895D02*
X202772306Y-79198133D01*
X202772306Y-79198133D02*
X202819925Y-79293371D01*
X202819925Y-79293371D02*
X202867544Y-79340990D01*
X202867544Y-79340990D02*
X202962782Y-79388609D01*
X202962782Y-79388609D02*
X203296115Y-79388609D01*
X202153258Y-79912419D02*
X202248496Y-79864800D01*
X202248496Y-79864800D02*
X202296115Y-79817180D01*
X202296115Y-79817180D02*
X202343734Y-79721942D01*
X202343734Y-79721942D02*
X202343734Y-79436228D01*
X202343734Y-79436228D02*
X202296115Y-79340990D01*
X202296115Y-79340990D02*
X202248496Y-79293371D01*
X202248496Y-79293371D02*
X202153258Y-79245752D01*
X202153258Y-79245752D02*
X202010401Y-79245752D01*
X202010401Y-79245752D02*
X201915163Y-79293371D01*
X201915163Y-79293371D02*
X201867544Y-79340990D01*
X201867544Y-79340990D02*
X201819925Y-79436228D01*
X201819925Y-79436228D02*
X201819925Y-79721942D01*
X201819925Y-79721942D02*
X201867544Y-79817180D01*
X201867544Y-79817180D02*
X201915163Y-79864800D01*
X201915163Y-79864800D02*
X202010401Y-79912419D01*
X202010401Y-79912419D02*
X202153258Y-79912419D01*
X201391353Y-79245752D02*
X201391353Y-79912419D01*
X201391353Y-79340990D02*
X201343734Y-79293371D01*
X201343734Y-79293371D02*
X201248496Y-79245752D01*
X201248496Y-79245752D02*
X201105639Y-79245752D01*
X201105639Y-79245752D02*
X201010401Y-79293371D01*
X201010401Y-79293371D02*
X200962782Y-79388609D01*
X200962782Y-79388609D02*
X200962782Y-79912419D01*
X200058020Y-79245752D02*
X200058020Y-80055276D01*
X200058020Y-80055276D02*
X200105639Y-80150514D01*
X200105639Y-80150514D02*
X200153258Y-80198133D01*
X200153258Y-80198133D02*
X200248496Y-80245752D01*
X200248496Y-80245752D02*
X200391353Y-80245752D01*
X200391353Y-80245752D02*
X200486591Y-80198133D01*
X200058020Y-79864800D02*
X200153258Y-79912419D01*
X200153258Y-79912419D02*
X200343734Y-79912419D01*
X200343734Y-79912419D02*
X200438972Y-79864800D01*
X200438972Y-79864800D02*
X200486591Y-79817180D01*
X200486591Y-79817180D02*
X200534210Y-79721942D01*
X200534210Y-79721942D02*
X200534210Y-79436228D01*
X200534210Y-79436228D02*
X200486591Y-79340990D01*
X200486591Y-79340990D02*
X200438972Y-79293371D01*
X200438972Y-79293371D02*
X200343734Y-79245752D01*
X200343734Y-79245752D02*
X200153258Y-79245752D01*
X200153258Y-79245752D02*
X200058020Y-79293371D01*
X199153258Y-79912419D02*
X199153258Y-79388609D01*
X199153258Y-79388609D02*
X199200877Y-79293371D01*
X199200877Y-79293371D02*
X199296115Y-79245752D01*
X199296115Y-79245752D02*
X199486591Y-79245752D01*
X199486591Y-79245752D02*
X199581829Y-79293371D01*
X199153258Y-79864800D02*
X199248496Y-79912419D01*
X199248496Y-79912419D02*
X199486591Y-79912419D01*
X199486591Y-79912419D02*
X199581829Y-79864800D01*
X199581829Y-79864800D02*
X199629448Y-79769561D01*
X199629448Y-79769561D02*
X199629448Y-79674323D01*
X199629448Y-79674323D02*
X199581829Y-79579085D01*
X199581829Y-79579085D02*
X199486591Y-79531466D01*
X199486591Y-79531466D02*
X199248496Y-79531466D01*
X199248496Y-79531466D02*
X199153258Y-79483847D01*
X197915162Y-79912419D02*
X197915162Y-78912419D01*
X197915162Y-78912419D02*
X197343734Y-79912419D01*
X197343734Y-79912419D02*
X197343734Y-78912419D01*
X196867543Y-79245752D02*
X196867543Y-80102895D01*
X196867543Y-80102895D02*
X196915162Y-80198133D01*
X196915162Y-80198133D02*
X197010400Y-80245752D01*
X197010400Y-80245752D02*
X197058019Y-80245752D01*
X196867543Y-78912419D02*
X196915162Y-78960038D01*
X196915162Y-78960038D02*
X196867543Y-79007657D01*
X196867543Y-79007657D02*
X196819924Y-78960038D01*
X196819924Y-78960038D02*
X196867543Y-78912419D01*
X196867543Y-78912419D02*
X196867543Y-79007657D01*
X195962782Y-79912419D02*
X195962782Y-79388609D01*
X195962782Y-79388609D02*
X196010401Y-79293371D01*
X196010401Y-79293371D02*
X196105639Y-79245752D01*
X196105639Y-79245752D02*
X196296115Y-79245752D01*
X196296115Y-79245752D02*
X196391353Y-79293371D01*
X195962782Y-79864800D02*
X196058020Y-79912419D01*
X196058020Y-79912419D02*
X196296115Y-79912419D01*
X196296115Y-79912419D02*
X196391353Y-79864800D01*
X196391353Y-79864800D02*
X196438972Y-79769561D01*
X196438972Y-79769561D02*
X196438972Y-79674323D01*
X196438972Y-79674323D02*
X196391353Y-79579085D01*
X196391353Y-79579085D02*
X196296115Y-79531466D01*
X196296115Y-79531466D02*
X196058020Y-79531466D01*
X196058020Y-79531466D02*
X195962782Y-79483847D01*
X195486591Y-79912419D02*
X195486591Y-79245752D01*
X195486591Y-79340990D02*
X195438972Y-79293371D01*
X195438972Y-79293371D02*
X195343734Y-79245752D01*
X195343734Y-79245752D02*
X195200877Y-79245752D01*
X195200877Y-79245752D02*
X195105639Y-79293371D01*
X195105639Y-79293371D02*
X195058020Y-79388609D01*
X195058020Y-79388609D02*
X195058020Y-79912419D01*
X195058020Y-79388609D02*
X195010401Y-79293371D01*
X195010401Y-79293371D02*
X194915163Y-79245752D01*
X194915163Y-79245752D02*
X194772306Y-79245752D01*
X194772306Y-79245752D02*
X194677067Y-79293371D01*
X194677067Y-79293371D02*
X194629448Y-79388609D01*
X194629448Y-79388609D02*
X194629448Y-79912419D01*
X193772306Y-79864800D02*
X193867544Y-79912419D01*
X193867544Y-79912419D02*
X194058020Y-79912419D01*
X194058020Y-79912419D02*
X194153258Y-79864800D01*
X194153258Y-79864800D02*
X194200877Y-79769561D01*
X194200877Y-79769561D02*
X194200877Y-79388609D01*
X194200877Y-79388609D02*
X194153258Y-79293371D01*
X194153258Y-79293371D02*
X194058020Y-79245752D01*
X194058020Y-79245752D02*
X193867544Y-79245752D01*
X193867544Y-79245752D02*
X193772306Y-79293371D01*
X193772306Y-79293371D02*
X193724687Y-79388609D01*
X193724687Y-79388609D02*
X193724687Y-79483847D01*
X193724687Y-79483847D02*
X194200877Y-79579085D01*
X193153258Y-79912419D02*
X193248496Y-79864800D01*
X193248496Y-79864800D02*
X193296115Y-79769561D01*
X193296115Y-79769561D02*
X193296115Y-78912419D01*
X192343734Y-79912419D02*
X192343734Y-79388609D01*
X192343734Y-79388609D02*
X192391353Y-79293371D01*
X192391353Y-79293371D02*
X192486591Y-79245752D01*
X192486591Y-79245752D02*
X192677067Y-79245752D01*
X192677067Y-79245752D02*
X192772305Y-79293371D01*
X192343734Y-79864800D02*
X192438972Y-79912419D01*
X192438972Y-79912419D02*
X192677067Y-79912419D01*
X192677067Y-79912419D02*
X192772305Y-79864800D01*
X192772305Y-79864800D02*
X192819924Y-79769561D01*
X192819924Y-79769561D02*
X192819924Y-79674323D01*
X192819924Y-79674323D02*
X192772305Y-79579085D01*
X192772305Y-79579085D02*
X192677067Y-79531466D01*
X192677067Y-79531466D02*
X192438972Y-79531466D01*
X192438972Y-79531466D02*
X192343734Y-79483847D01*
X203296115Y-81522419D02*
X203296115Y-80522419D01*
X203296115Y-80522419D02*
X202724687Y-81522419D01*
X202724687Y-81522419D02*
X202724687Y-80522419D01*
X201962782Y-80522419D02*
X201962782Y-81236704D01*
X201962782Y-81236704D02*
X202010401Y-81379561D01*
X202010401Y-81379561D02*
X202105639Y-81474800D01*
X202105639Y-81474800D02*
X202248496Y-81522419D01*
X202248496Y-81522419D02*
X202343734Y-81522419D01*
X201486591Y-81522419D02*
X201486591Y-80522419D01*
X201486591Y-80522419D02*
X201153258Y-81236704D01*
X201153258Y-81236704D02*
X200819925Y-80522419D01*
X200819925Y-80522419D02*
X200819925Y-81522419D01*
X199867544Y-81522419D02*
X200343734Y-81522419D01*
X200343734Y-81522419D02*
X200343734Y-80522419D01*
X199534210Y-80522419D02*
X199534210Y-81331942D01*
X199534210Y-81331942D02*
X199486591Y-81427180D01*
X199486591Y-81427180D02*
X199438972Y-81474800D01*
X199438972Y-81474800D02*
X199343734Y-81522419D01*
X199343734Y-81522419D02*
X199153258Y-81522419D01*
X199153258Y-81522419D02*
X199058020Y-81474800D01*
X199058020Y-81474800D02*
X199010401Y-81427180D01*
X199010401Y-81427180D02*
X198962782Y-81331942D01*
X198962782Y-81331942D02*
X198962782Y-80522419D01*
X198486591Y-81522419D02*
X198486591Y-80522419D01*
X198486591Y-80522419D02*
X197915163Y-81522419D01*
X197915163Y-81522419D02*
X197915163Y-80522419D01*
X197248496Y-80522419D02*
X197153258Y-80522419D01*
X197153258Y-80522419D02*
X197058020Y-80570038D01*
X197058020Y-80570038D02*
X197010401Y-80617657D01*
X197010401Y-80617657D02*
X196962782Y-80712895D01*
X196962782Y-80712895D02*
X196915163Y-80903371D01*
X196915163Y-80903371D02*
X196915163Y-81141466D01*
X196915163Y-81141466D02*
X196962782Y-81331942D01*
X196962782Y-81331942D02*
X197010401Y-81427180D01*
X197010401Y-81427180D02*
X197058020Y-81474800D01*
X197058020Y-81474800D02*
X197153258Y-81522419D01*
X197153258Y-81522419D02*
X197248496Y-81522419D01*
X197248496Y-81522419D02*
X197343734Y-81474800D01*
X197343734Y-81474800D02*
X197391353Y-81427180D01*
X197391353Y-81427180D02*
X197438972Y-81331942D01*
X197438972Y-81331942D02*
X197486591Y-81141466D01*
X197486591Y-81141466D02*
X197486591Y-80903371D01*
X197486591Y-80903371D02*
X197438972Y-80712895D01*
X197438972Y-80712895D02*
X197391353Y-80617657D01*
X197391353Y-80617657D02*
X197343734Y-80570038D01*
X197343734Y-80570038D02*
X197248496Y-80522419D01*
X196296115Y-80522419D02*
X196200877Y-80522419D01*
X196200877Y-80522419D02*
X196105639Y-80570038D01*
X196105639Y-80570038D02*
X196058020Y-80617657D01*
X196058020Y-80617657D02*
X196010401Y-80712895D01*
X196010401Y-80712895D02*
X195962782Y-80903371D01*
X195962782Y-80903371D02*
X195962782Y-81141466D01*
X195962782Y-81141466D02*
X196010401Y-81331942D01*
X196010401Y-81331942D02*
X196058020Y-81427180D01*
X196058020Y-81427180D02*
X196105639Y-81474800D01*
X196105639Y-81474800D02*
X196200877Y-81522419D01*
X196200877Y-81522419D02*
X196296115Y-81522419D01*
X196296115Y-81522419D02*
X196391353Y-81474800D01*
X196391353Y-81474800D02*
X196438972Y-81427180D01*
X196438972Y-81427180D02*
X196486591Y-81331942D01*
X196486591Y-81331942D02*
X196534210Y-81141466D01*
X196534210Y-81141466D02*
X196534210Y-80903371D01*
X196534210Y-80903371D02*
X196486591Y-80712895D01*
X196486591Y-80712895D02*
X196438972Y-80617657D01*
X196438972Y-80617657D02*
X196391353Y-80570038D01*
X196391353Y-80570038D02*
X196296115Y-80522419D01*
X195581829Y-80617657D02*
X195534210Y-80570038D01*
X195534210Y-80570038D02*
X195438972Y-80522419D01*
X195438972Y-80522419D02*
X195200877Y-80522419D01*
X195200877Y-80522419D02*
X195105639Y-80570038D01*
X195105639Y-80570038D02*
X195058020Y-80617657D01*
X195058020Y-80617657D02*
X195010401Y-80712895D01*
X195010401Y-80712895D02*
X195010401Y-80808133D01*
X195010401Y-80808133D02*
X195058020Y-80950990D01*
X195058020Y-80950990D02*
X195629448Y-81522419D01*
X195629448Y-81522419D02*
X195010401Y-81522419D01*
M02*
