%TF.GenerationSoftware,KiCad,Pcbnew,7.0.11-7.0.11~ubuntu22.04.1*%
%TF.CreationDate,2025-04-09T00:06:21+02:00*%
%TF.ProjectId,emulator-pcb,656d756c-6174-46f7-922d-7063622e6b69,v01*%
%TF.SameCoordinates,Original*%
%TF.FileFunction,Legend,Top*%
%TF.FilePolarity,Positive*%
%FSLAX46Y46*%
G04 Gerber Fmt 4.6, Leading zero omitted, Abs format (unit mm)*
G04 Created by KiCad (PCBNEW 7.0.11-7.0.11~ubuntu22.04.1) date 2025-04-09 00:06:21*
%MOMM*%
%LPD*%
G01*
G04 APERTURE LIST*
%ADD10C,0.200000*%
%ADD11C,0.300000*%
%ADD12C,0.100000*%
%ADD13C,0.150000*%
%ADD14C,0.381000*%
%ADD15C,0.152400*%
%ADD16C,0.120000*%
%ADD17C,1.400000*%
%ADD18R,1.400000X1.400000*%
G04 APERTURE END LIST*
D10*
X96469673Y-84417219D02*
X96469673Y-83417219D01*
X96469673Y-83417219D02*
X96850625Y-83417219D01*
X96850625Y-83417219D02*
X96945863Y-83464838D01*
X96945863Y-83464838D02*
X96993482Y-83512457D01*
X96993482Y-83512457D02*
X97041101Y-83607695D01*
X97041101Y-83607695D02*
X97041101Y-83750552D01*
X97041101Y-83750552D02*
X96993482Y-83845790D01*
X96993482Y-83845790D02*
X96945863Y-83893409D01*
X96945863Y-83893409D02*
X96850625Y-83941028D01*
X96850625Y-83941028D02*
X96469673Y-83941028D01*
X97850625Y-84369600D02*
X97755387Y-84417219D01*
X97755387Y-84417219D02*
X97564911Y-84417219D01*
X97564911Y-84417219D02*
X97469673Y-84369600D01*
X97469673Y-84369600D02*
X97422054Y-84274361D01*
X97422054Y-84274361D02*
X97422054Y-83893409D01*
X97422054Y-83893409D02*
X97469673Y-83798171D01*
X97469673Y-83798171D02*
X97564911Y-83750552D01*
X97564911Y-83750552D02*
X97755387Y-83750552D01*
X97755387Y-83750552D02*
X97850625Y-83798171D01*
X97850625Y-83798171D02*
X97898244Y-83893409D01*
X97898244Y-83893409D02*
X97898244Y-83988647D01*
X97898244Y-83988647D02*
X97422054Y-84083885D01*
X98326816Y-83750552D02*
X98326816Y-84417219D01*
X98326816Y-83845790D02*
X98374435Y-83798171D01*
X98374435Y-83798171D02*
X98469673Y-83750552D01*
X98469673Y-83750552D02*
X98612530Y-83750552D01*
X98612530Y-83750552D02*
X98707768Y-83798171D01*
X98707768Y-83798171D02*
X98755387Y-83893409D01*
X98755387Y-83893409D02*
X98755387Y-84417219D01*
X100469673Y-84417219D02*
X99993483Y-84417219D01*
X99993483Y-84417219D02*
X99993483Y-83417219D01*
X100803007Y-84417219D02*
X100803007Y-83750552D01*
X100803007Y-83417219D02*
X100755388Y-83464838D01*
X100755388Y-83464838D02*
X100803007Y-83512457D01*
X100803007Y-83512457D02*
X100850626Y-83464838D01*
X100850626Y-83464838D02*
X100803007Y-83417219D01*
X100803007Y-83417219D02*
X100803007Y-83512457D01*
X101136340Y-83750552D02*
X101517292Y-83750552D01*
X101279197Y-84417219D02*
X101279197Y-83560076D01*
X101279197Y-83560076D02*
X101326816Y-83464838D01*
X101326816Y-83464838D02*
X101422054Y-83417219D01*
X101422054Y-83417219D02*
X101517292Y-83417219D01*
X101707769Y-83750552D02*
X102088721Y-83750552D01*
X101850626Y-83417219D02*
X101850626Y-84274361D01*
X101850626Y-84274361D02*
X101898245Y-84369600D01*
X101898245Y-84369600D02*
X101993483Y-84417219D01*
X101993483Y-84417219D02*
X102088721Y-84417219D01*
X103374436Y-83417219D02*
X103564912Y-83417219D01*
X103564912Y-83417219D02*
X103660150Y-83464838D01*
X103660150Y-83464838D02*
X103755388Y-83560076D01*
X103755388Y-83560076D02*
X103803007Y-83750552D01*
X103803007Y-83750552D02*
X103803007Y-84083885D01*
X103803007Y-84083885D02*
X103755388Y-84274361D01*
X103755388Y-84274361D02*
X103660150Y-84369600D01*
X103660150Y-84369600D02*
X103564912Y-84417219D01*
X103564912Y-84417219D02*
X103374436Y-84417219D01*
X103374436Y-84417219D02*
X103279198Y-84369600D01*
X103279198Y-84369600D02*
X103183960Y-84274361D01*
X103183960Y-84274361D02*
X103136341Y-84083885D01*
X103136341Y-84083885D02*
X103136341Y-83750552D01*
X103136341Y-83750552D02*
X103183960Y-83560076D01*
X103183960Y-83560076D02*
X103279198Y-83464838D01*
X103279198Y-83464838D02*
X103374436Y-83417219D01*
X104660150Y-83750552D02*
X104660150Y-84417219D01*
X104231579Y-83750552D02*
X104231579Y-84274361D01*
X104231579Y-84274361D02*
X104279198Y-84369600D01*
X104279198Y-84369600D02*
X104374436Y-84417219D01*
X104374436Y-84417219D02*
X104517293Y-84417219D01*
X104517293Y-84417219D02*
X104612531Y-84369600D01*
X104612531Y-84369600D02*
X104660150Y-84321980D01*
X104993484Y-83750552D02*
X105374436Y-83750552D01*
X105136341Y-83417219D02*
X105136341Y-84274361D01*
X105136341Y-84274361D02*
X105183960Y-84369600D01*
X105183960Y-84369600D02*
X105279198Y-84417219D01*
X105279198Y-84417219D02*
X105374436Y-84417219D01*
X105707770Y-83750552D02*
X105707770Y-84750552D01*
X105707770Y-83798171D02*
X105803008Y-83750552D01*
X105803008Y-83750552D02*
X105993484Y-83750552D01*
X105993484Y-83750552D02*
X106088722Y-83798171D01*
X106088722Y-83798171D02*
X106136341Y-83845790D01*
X106136341Y-83845790D02*
X106183960Y-83941028D01*
X106183960Y-83941028D02*
X106183960Y-84226742D01*
X106183960Y-84226742D02*
X106136341Y-84321980D01*
X106136341Y-84321980D02*
X106088722Y-84369600D01*
X106088722Y-84369600D02*
X105993484Y-84417219D01*
X105993484Y-84417219D02*
X105803008Y-84417219D01*
X105803008Y-84417219D02*
X105707770Y-84369600D01*
X107041103Y-83750552D02*
X107041103Y-84417219D01*
X106612532Y-83750552D02*
X106612532Y-84274361D01*
X106612532Y-84274361D02*
X106660151Y-84369600D01*
X106660151Y-84369600D02*
X106755389Y-84417219D01*
X106755389Y-84417219D02*
X106898246Y-84417219D01*
X106898246Y-84417219D02*
X106993484Y-84369600D01*
X106993484Y-84369600D02*
X107041103Y-84321980D01*
X107374437Y-83750552D02*
X107755389Y-83750552D01*
X107517294Y-83417219D02*
X107517294Y-84274361D01*
X107517294Y-84274361D02*
X107564913Y-84369600D01*
X107564913Y-84369600D02*
X107660151Y-84417219D01*
X107660151Y-84417219D02*
X107755389Y-84417219D01*
X97076816Y-107417219D02*
X97410149Y-108417219D01*
X97410149Y-108417219D02*
X97743482Y-107417219D01*
X98457768Y-108369600D02*
X98362530Y-108417219D01*
X98362530Y-108417219D02*
X98172054Y-108417219D01*
X98172054Y-108417219D02*
X98076816Y-108369600D01*
X98076816Y-108369600D02*
X98029197Y-108274361D01*
X98029197Y-108274361D02*
X98029197Y-107893409D01*
X98029197Y-107893409D02*
X98076816Y-107798171D01*
X98076816Y-107798171D02*
X98172054Y-107750552D01*
X98172054Y-107750552D02*
X98362530Y-107750552D01*
X98362530Y-107750552D02*
X98457768Y-107798171D01*
X98457768Y-107798171D02*
X98505387Y-107893409D01*
X98505387Y-107893409D02*
X98505387Y-107988647D01*
X98505387Y-107988647D02*
X98029197Y-108083885D01*
X98933959Y-108417219D02*
X98933959Y-107750552D01*
X98933959Y-107941028D02*
X98981578Y-107845790D01*
X98981578Y-107845790D02*
X99029197Y-107798171D01*
X99029197Y-107798171D02*
X99124435Y-107750552D01*
X99124435Y-107750552D02*
X99219673Y-107750552D01*
X99410150Y-107750552D02*
X99791102Y-107750552D01*
X99553007Y-107417219D02*
X99553007Y-108274361D01*
X99553007Y-108274361D02*
X99600626Y-108369600D01*
X99600626Y-108369600D02*
X99695864Y-108417219D01*
X99695864Y-108417219D02*
X99791102Y-108417219D01*
X100124436Y-108417219D02*
X100124436Y-107750552D01*
X100124436Y-107417219D02*
X100076817Y-107464838D01*
X100076817Y-107464838D02*
X100124436Y-107512457D01*
X100124436Y-107512457D02*
X100172055Y-107464838D01*
X100172055Y-107464838D02*
X100124436Y-107417219D01*
X100124436Y-107417219D02*
X100124436Y-107512457D01*
X101029197Y-108369600D02*
X100933959Y-108417219D01*
X100933959Y-108417219D02*
X100743483Y-108417219D01*
X100743483Y-108417219D02*
X100648245Y-108369600D01*
X100648245Y-108369600D02*
X100600626Y-108321980D01*
X100600626Y-108321980D02*
X100553007Y-108226742D01*
X100553007Y-108226742D02*
X100553007Y-107941028D01*
X100553007Y-107941028D02*
X100600626Y-107845790D01*
X100600626Y-107845790D02*
X100648245Y-107798171D01*
X100648245Y-107798171D02*
X100743483Y-107750552D01*
X100743483Y-107750552D02*
X100933959Y-107750552D01*
X100933959Y-107750552D02*
X101029197Y-107798171D01*
X101886340Y-108417219D02*
X101886340Y-107893409D01*
X101886340Y-107893409D02*
X101838721Y-107798171D01*
X101838721Y-107798171D02*
X101743483Y-107750552D01*
X101743483Y-107750552D02*
X101553007Y-107750552D01*
X101553007Y-107750552D02*
X101457769Y-107798171D01*
X101886340Y-108369600D02*
X101791102Y-108417219D01*
X101791102Y-108417219D02*
X101553007Y-108417219D01*
X101553007Y-108417219D02*
X101457769Y-108369600D01*
X101457769Y-108369600D02*
X101410150Y-108274361D01*
X101410150Y-108274361D02*
X101410150Y-108179123D01*
X101410150Y-108179123D02*
X101457769Y-108083885D01*
X101457769Y-108083885D02*
X101553007Y-108036266D01*
X101553007Y-108036266D02*
X101791102Y-108036266D01*
X101791102Y-108036266D02*
X101886340Y-107988647D01*
X102505388Y-108417219D02*
X102410150Y-108369600D01*
X102410150Y-108369600D02*
X102362531Y-108274361D01*
X102362531Y-108274361D02*
X102362531Y-107417219D01*
X103838722Y-107417219D02*
X104029198Y-107417219D01*
X104029198Y-107417219D02*
X104124436Y-107464838D01*
X104124436Y-107464838D02*
X104219674Y-107560076D01*
X104219674Y-107560076D02*
X104267293Y-107750552D01*
X104267293Y-107750552D02*
X104267293Y-108083885D01*
X104267293Y-108083885D02*
X104219674Y-108274361D01*
X104219674Y-108274361D02*
X104124436Y-108369600D01*
X104124436Y-108369600D02*
X104029198Y-108417219D01*
X104029198Y-108417219D02*
X103838722Y-108417219D01*
X103838722Y-108417219D02*
X103743484Y-108369600D01*
X103743484Y-108369600D02*
X103648246Y-108274361D01*
X103648246Y-108274361D02*
X103600627Y-108083885D01*
X103600627Y-108083885D02*
X103600627Y-107750552D01*
X103600627Y-107750552D02*
X103648246Y-107560076D01*
X103648246Y-107560076D02*
X103743484Y-107464838D01*
X103743484Y-107464838D02*
X103838722Y-107417219D01*
X105124436Y-107750552D02*
X105124436Y-108417219D01*
X104695865Y-107750552D02*
X104695865Y-108274361D01*
X104695865Y-108274361D02*
X104743484Y-108369600D01*
X104743484Y-108369600D02*
X104838722Y-108417219D01*
X104838722Y-108417219D02*
X104981579Y-108417219D01*
X104981579Y-108417219D02*
X105076817Y-108369600D01*
X105076817Y-108369600D02*
X105124436Y-108321980D01*
X105457770Y-107750552D02*
X105838722Y-107750552D01*
X105600627Y-107417219D02*
X105600627Y-108274361D01*
X105600627Y-108274361D02*
X105648246Y-108369600D01*
X105648246Y-108369600D02*
X105743484Y-108417219D01*
X105743484Y-108417219D02*
X105838722Y-108417219D01*
X106172056Y-107750552D02*
X106172056Y-108750552D01*
X106172056Y-107798171D02*
X106267294Y-107750552D01*
X106267294Y-107750552D02*
X106457770Y-107750552D01*
X106457770Y-107750552D02*
X106553008Y-107798171D01*
X106553008Y-107798171D02*
X106600627Y-107845790D01*
X106600627Y-107845790D02*
X106648246Y-107941028D01*
X106648246Y-107941028D02*
X106648246Y-108226742D01*
X106648246Y-108226742D02*
X106600627Y-108321980D01*
X106600627Y-108321980D02*
X106553008Y-108369600D01*
X106553008Y-108369600D02*
X106457770Y-108417219D01*
X106457770Y-108417219D02*
X106267294Y-108417219D01*
X106267294Y-108417219D02*
X106172056Y-108369600D01*
X107505389Y-107750552D02*
X107505389Y-108417219D01*
X107076818Y-107750552D02*
X107076818Y-108274361D01*
X107076818Y-108274361D02*
X107124437Y-108369600D01*
X107124437Y-108369600D02*
X107219675Y-108417219D01*
X107219675Y-108417219D02*
X107362532Y-108417219D01*
X107362532Y-108417219D02*
X107457770Y-108369600D01*
X107457770Y-108369600D02*
X107505389Y-108321980D01*
X107838723Y-107750552D02*
X108219675Y-107750552D01*
X107981580Y-107417219D02*
X107981580Y-108274361D01*
X107981580Y-108274361D02*
X108029199Y-108369600D01*
X108029199Y-108369600D02*
X108124437Y-108417219D01*
X108124437Y-108417219D02*
X108219675Y-108417219D01*
X96619673Y-132667219D02*
X96619673Y-131667219D01*
X96619673Y-132143409D02*
X97191101Y-132143409D01*
X97191101Y-132667219D02*
X97191101Y-131667219D01*
X97810149Y-132667219D02*
X97714911Y-132619600D01*
X97714911Y-132619600D02*
X97667292Y-132571980D01*
X97667292Y-132571980D02*
X97619673Y-132476742D01*
X97619673Y-132476742D02*
X97619673Y-132191028D01*
X97619673Y-132191028D02*
X97667292Y-132095790D01*
X97667292Y-132095790D02*
X97714911Y-132048171D01*
X97714911Y-132048171D02*
X97810149Y-132000552D01*
X97810149Y-132000552D02*
X97953006Y-132000552D01*
X97953006Y-132000552D02*
X98048244Y-132048171D01*
X98048244Y-132048171D02*
X98095863Y-132095790D01*
X98095863Y-132095790D02*
X98143482Y-132191028D01*
X98143482Y-132191028D02*
X98143482Y-132476742D01*
X98143482Y-132476742D02*
X98095863Y-132571980D01*
X98095863Y-132571980D02*
X98048244Y-132619600D01*
X98048244Y-132619600D02*
X97953006Y-132667219D01*
X97953006Y-132667219D02*
X97810149Y-132667219D01*
X98572054Y-132667219D02*
X98572054Y-132000552D01*
X98572054Y-132191028D02*
X98619673Y-132095790D01*
X98619673Y-132095790D02*
X98667292Y-132048171D01*
X98667292Y-132048171D02*
X98762530Y-132000552D01*
X98762530Y-132000552D02*
X98857768Y-132000552D01*
X99191102Y-132667219D02*
X99191102Y-132000552D01*
X99191102Y-131667219D02*
X99143483Y-131714838D01*
X99143483Y-131714838D02*
X99191102Y-131762457D01*
X99191102Y-131762457D02*
X99238721Y-131714838D01*
X99238721Y-131714838D02*
X99191102Y-131667219D01*
X99191102Y-131667219D02*
X99191102Y-131762457D01*
X99572054Y-132000552D02*
X100095863Y-132000552D01*
X100095863Y-132000552D02*
X99572054Y-132667219D01*
X99572054Y-132667219D02*
X100095863Y-132667219D01*
X100619673Y-132667219D02*
X100524435Y-132619600D01*
X100524435Y-132619600D02*
X100476816Y-132571980D01*
X100476816Y-132571980D02*
X100429197Y-132476742D01*
X100429197Y-132476742D02*
X100429197Y-132191028D01*
X100429197Y-132191028D02*
X100476816Y-132095790D01*
X100476816Y-132095790D02*
X100524435Y-132048171D01*
X100524435Y-132048171D02*
X100619673Y-132000552D01*
X100619673Y-132000552D02*
X100762530Y-132000552D01*
X100762530Y-132000552D02*
X100857768Y-132048171D01*
X100857768Y-132048171D02*
X100905387Y-132095790D01*
X100905387Y-132095790D02*
X100953006Y-132191028D01*
X100953006Y-132191028D02*
X100953006Y-132476742D01*
X100953006Y-132476742D02*
X100905387Y-132571980D01*
X100905387Y-132571980D02*
X100857768Y-132619600D01*
X100857768Y-132619600D02*
X100762530Y-132667219D01*
X100762530Y-132667219D02*
X100619673Y-132667219D01*
X101381578Y-132000552D02*
X101381578Y-132667219D01*
X101381578Y-132095790D02*
X101429197Y-132048171D01*
X101429197Y-132048171D02*
X101524435Y-132000552D01*
X101524435Y-132000552D02*
X101667292Y-132000552D01*
X101667292Y-132000552D02*
X101762530Y-132048171D01*
X101762530Y-132048171D02*
X101810149Y-132143409D01*
X101810149Y-132143409D02*
X101810149Y-132667219D01*
X102143483Y-132000552D02*
X102524435Y-132000552D01*
X102286340Y-131667219D02*
X102286340Y-132524361D01*
X102286340Y-132524361D02*
X102333959Y-132619600D01*
X102333959Y-132619600D02*
X102429197Y-132667219D01*
X102429197Y-132667219D02*
X102524435Y-132667219D01*
X103286340Y-132667219D02*
X103286340Y-132143409D01*
X103286340Y-132143409D02*
X103238721Y-132048171D01*
X103238721Y-132048171D02*
X103143483Y-132000552D01*
X103143483Y-132000552D02*
X102953007Y-132000552D01*
X102953007Y-132000552D02*
X102857769Y-132048171D01*
X103286340Y-132619600D02*
X103191102Y-132667219D01*
X103191102Y-132667219D02*
X102953007Y-132667219D01*
X102953007Y-132667219D02*
X102857769Y-132619600D01*
X102857769Y-132619600D02*
X102810150Y-132524361D01*
X102810150Y-132524361D02*
X102810150Y-132429123D01*
X102810150Y-132429123D02*
X102857769Y-132333885D01*
X102857769Y-132333885D02*
X102953007Y-132286266D01*
X102953007Y-132286266D02*
X103191102Y-132286266D01*
X103191102Y-132286266D02*
X103286340Y-132238647D01*
X103905388Y-132667219D02*
X103810150Y-132619600D01*
X103810150Y-132619600D02*
X103762531Y-132524361D01*
X103762531Y-132524361D02*
X103762531Y-131667219D01*
X105238722Y-131667219D02*
X105429198Y-131667219D01*
X105429198Y-131667219D02*
X105524436Y-131714838D01*
X105524436Y-131714838D02*
X105619674Y-131810076D01*
X105619674Y-131810076D02*
X105667293Y-132000552D01*
X105667293Y-132000552D02*
X105667293Y-132333885D01*
X105667293Y-132333885D02*
X105619674Y-132524361D01*
X105619674Y-132524361D02*
X105524436Y-132619600D01*
X105524436Y-132619600D02*
X105429198Y-132667219D01*
X105429198Y-132667219D02*
X105238722Y-132667219D01*
X105238722Y-132667219D02*
X105143484Y-132619600D01*
X105143484Y-132619600D02*
X105048246Y-132524361D01*
X105048246Y-132524361D02*
X105000627Y-132333885D01*
X105000627Y-132333885D02*
X105000627Y-132000552D01*
X105000627Y-132000552D02*
X105048246Y-131810076D01*
X105048246Y-131810076D02*
X105143484Y-131714838D01*
X105143484Y-131714838D02*
X105238722Y-131667219D01*
X106524436Y-132000552D02*
X106524436Y-132667219D01*
X106095865Y-132000552D02*
X106095865Y-132524361D01*
X106095865Y-132524361D02*
X106143484Y-132619600D01*
X106143484Y-132619600D02*
X106238722Y-132667219D01*
X106238722Y-132667219D02*
X106381579Y-132667219D01*
X106381579Y-132667219D02*
X106476817Y-132619600D01*
X106476817Y-132619600D02*
X106524436Y-132571980D01*
X106857770Y-132000552D02*
X107238722Y-132000552D01*
X107000627Y-131667219D02*
X107000627Y-132524361D01*
X107000627Y-132524361D02*
X107048246Y-132619600D01*
X107048246Y-132619600D02*
X107143484Y-132667219D01*
X107143484Y-132667219D02*
X107238722Y-132667219D01*
X107572056Y-132000552D02*
X107572056Y-133000552D01*
X107572056Y-132048171D02*
X107667294Y-132000552D01*
X107667294Y-132000552D02*
X107857770Y-132000552D01*
X107857770Y-132000552D02*
X107953008Y-132048171D01*
X107953008Y-132048171D02*
X108000627Y-132095790D01*
X108000627Y-132095790D02*
X108048246Y-132191028D01*
X108048246Y-132191028D02*
X108048246Y-132476742D01*
X108048246Y-132476742D02*
X108000627Y-132571980D01*
X108000627Y-132571980D02*
X107953008Y-132619600D01*
X107953008Y-132619600D02*
X107857770Y-132667219D01*
X107857770Y-132667219D02*
X107667294Y-132667219D01*
X107667294Y-132667219D02*
X107572056Y-132619600D01*
X108905389Y-132000552D02*
X108905389Y-132667219D01*
X108476818Y-132000552D02*
X108476818Y-132524361D01*
X108476818Y-132524361D02*
X108524437Y-132619600D01*
X108524437Y-132619600D02*
X108619675Y-132667219D01*
X108619675Y-132667219D02*
X108762532Y-132667219D01*
X108762532Y-132667219D02*
X108857770Y-132619600D01*
X108857770Y-132619600D02*
X108905389Y-132571980D01*
X109238723Y-132000552D02*
X109619675Y-132000552D01*
X109381580Y-131667219D02*
X109381580Y-132524361D01*
X109381580Y-132524361D02*
X109429199Y-132619600D01*
X109429199Y-132619600D02*
X109524437Y-132667219D01*
X109524437Y-132667219D02*
X109619675Y-132667219D01*
D11*
X216804510Y-62400828D02*
X217399748Y-63900828D01*
X217399748Y-63900828D02*
X217875939Y-62829400D01*
X217875939Y-62829400D02*
X218352129Y-63900828D01*
X218352129Y-63900828D02*
X218947368Y-62400828D01*
X219780701Y-63472257D02*
X220971177Y-63472257D01*
X219542606Y-63900828D02*
X220375939Y-62400828D01*
X220375939Y-62400828D02*
X221209272Y-63900828D01*
X223471177Y-63900828D02*
X222637844Y-63186542D01*
X222042606Y-63900828D02*
X222042606Y-62400828D01*
X222042606Y-62400828D02*
X222994987Y-62400828D01*
X222994987Y-62400828D02*
X223233082Y-62472257D01*
X223233082Y-62472257D02*
X223352129Y-62543685D01*
X223352129Y-62543685D02*
X223471177Y-62686542D01*
X223471177Y-62686542D02*
X223471177Y-62900828D01*
X223471177Y-62900828D02*
X223352129Y-63043685D01*
X223352129Y-63043685D02*
X223233082Y-63115114D01*
X223233082Y-63115114D02*
X222994987Y-63186542D01*
X222994987Y-63186542D02*
X222042606Y-63186542D01*
X224542606Y-63900828D02*
X224542606Y-62400828D01*
X224542606Y-62400828D02*
X225971177Y-63900828D01*
X225971177Y-63900828D02*
X225971177Y-62400828D01*
X227161654Y-63900828D02*
X227161654Y-62400828D01*
X228352130Y-63900828D02*
X228352130Y-62400828D01*
X228352130Y-62400828D02*
X229780701Y-63900828D01*
X229780701Y-63900828D02*
X229780701Y-62400828D01*
X232280701Y-62472257D02*
X232042606Y-62400828D01*
X232042606Y-62400828D02*
X231685463Y-62400828D01*
X231685463Y-62400828D02*
X231328320Y-62472257D01*
X231328320Y-62472257D02*
X231090225Y-62615114D01*
X231090225Y-62615114D02*
X230971178Y-62757971D01*
X230971178Y-62757971D02*
X230852130Y-63043685D01*
X230852130Y-63043685D02*
X230852130Y-63257971D01*
X230852130Y-63257971D02*
X230971178Y-63543685D01*
X230971178Y-63543685D02*
X231090225Y-63686542D01*
X231090225Y-63686542D02*
X231328320Y-63829400D01*
X231328320Y-63829400D02*
X231685463Y-63900828D01*
X231685463Y-63900828D02*
X231923559Y-63900828D01*
X231923559Y-63900828D02*
X232280701Y-63829400D01*
X232280701Y-63829400D02*
X232399749Y-63757971D01*
X232399749Y-63757971D02*
X232399749Y-63257971D01*
X232399749Y-63257971D02*
X231923559Y-63257971D01*
X233471178Y-63757971D02*
X233590225Y-63829400D01*
X233590225Y-63829400D02*
X233471178Y-63900828D01*
X233471178Y-63900828D02*
X233352130Y-63829400D01*
X233352130Y-63829400D02*
X233471178Y-63757971D01*
X233471178Y-63757971D02*
X233471178Y-63900828D01*
X233471178Y-63329400D02*
X233352130Y-62472257D01*
X233352130Y-62472257D02*
X233471178Y-62400828D01*
X233471178Y-62400828D02*
X233590225Y-62472257D01*
X233590225Y-62472257D02*
X233471178Y-63329400D01*
X233471178Y-63329400D02*
X233471178Y-62400828D01*
X236566416Y-63900828D02*
X236566416Y-62400828D01*
X236566416Y-63115114D02*
X237994987Y-63115114D01*
X237994987Y-63900828D02*
X237994987Y-62400828D01*
X239185464Y-63900828D02*
X239185464Y-62400828D01*
X241685463Y-62472257D02*
X241447368Y-62400828D01*
X241447368Y-62400828D02*
X241090225Y-62400828D01*
X241090225Y-62400828D02*
X240733082Y-62472257D01*
X240733082Y-62472257D02*
X240494987Y-62615114D01*
X240494987Y-62615114D02*
X240375940Y-62757971D01*
X240375940Y-62757971D02*
X240256892Y-63043685D01*
X240256892Y-63043685D02*
X240256892Y-63257971D01*
X240256892Y-63257971D02*
X240375940Y-63543685D01*
X240375940Y-63543685D02*
X240494987Y-63686542D01*
X240494987Y-63686542D02*
X240733082Y-63829400D01*
X240733082Y-63829400D02*
X241090225Y-63900828D01*
X241090225Y-63900828D02*
X241328321Y-63900828D01*
X241328321Y-63900828D02*
X241685463Y-63829400D01*
X241685463Y-63829400D02*
X241804511Y-63757971D01*
X241804511Y-63757971D02*
X241804511Y-63257971D01*
X241804511Y-63257971D02*
X241328321Y-63257971D01*
X242875940Y-63900828D02*
X242875940Y-62400828D01*
X242875940Y-63115114D02*
X244304511Y-63115114D01*
X244304511Y-63900828D02*
X244304511Y-62400828D01*
X247042607Y-62400828D02*
X247875940Y-63900828D01*
X247875940Y-63900828D02*
X248709273Y-62400828D01*
X250018797Y-62400828D02*
X250494988Y-62400828D01*
X250494988Y-62400828D02*
X250733083Y-62472257D01*
X250733083Y-62472257D02*
X250971178Y-62615114D01*
X250971178Y-62615114D02*
X251090226Y-62900828D01*
X251090226Y-62900828D02*
X251090226Y-63400828D01*
X251090226Y-63400828D02*
X250971178Y-63686542D01*
X250971178Y-63686542D02*
X250733083Y-63829400D01*
X250733083Y-63829400D02*
X250494988Y-63900828D01*
X250494988Y-63900828D02*
X250018797Y-63900828D01*
X250018797Y-63900828D02*
X249780702Y-63829400D01*
X249780702Y-63829400D02*
X249542607Y-63686542D01*
X249542607Y-63686542D02*
X249423559Y-63400828D01*
X249423559Y-63400828D02*
X249423559Y-62900828D01*
X249423559Y-62900828D02*
X249542607Y-62615114D01*
X249542607Y-62615114D02*
X249780702Y-62472257D01*
X249780702Y-62472257D02*
X250018797Y-62400828D01*
X253352131Y-63900828D02*
X252161655Y-63900828D01*
X252161655Y-63900828D02*
X252161655Y-62400828D01*
X253828322Y-62400828D02*
X255256893Y-62400828D01*
X254542607Y-63900828D02*
X254542607Y-62400828D01*
X255971179Y-63472257D02*
X257161655Y-63472257D01*
X255733084Y-63900828D02*
X256566417Y-62400828D01*
X256566417Y-62400828D02*
X257399750Y-63900828D01*
X259542607Y-62472257D02*
X259304512Y-62400828D01*
X259304512Y-62400828D02*
X258947369Y-62400828D01*
X258947369Y-62400828D02*
X258590226Y-62472257D01*
X258590226Y-62472257D02*
X258352131Y-62615114D01*
X258352131Y-62615114D02*
X258233084Y-62757971D01*
X258233084Y-62757971D02*
X258114036Y-63043685D01*
X258114036Y-63043685D02*
X258114036Y-63257971D01*
X258114036Y-63257971D02*
X258233084Y-63543685D01*
X258233084Y-63543685D02*
X258352131Y-63686542D01*
X258352131Y-63686542D02*
X258590226Y-63829400D01*
X258590226Y-63829400D02*
X258947369Y-63900828D01*
X258947369Y-63900828D02*
X259185465Y-63900828D01*
X259185465Y-63900828D02*
X259542607Y-63829400D01*
X259542607Y-63829400D02*
X259661655Y-63757971D01*
X259661655Y-63757971D02*
X259661655Y-63257971D01*
X259661655Y-63257971D02*
X259185465Y-63257971D01*
X260733084Y-63115114D02*
X261566417Y-63115114D01*
X261923560Y-63900828D02*
X260733084Y-63900828D01*
X260733084Y-63900828D02*
X260733084Y-62400828D01*
X260733084Y-62400828D02*
X261923560Y-62400828D01*
X262994989Y-63757971D02*
X263114036Y-63829400D01*
X263114036Y-63829400D02*
X262994989Y-63900828D01*
X262994989Y-63900828D02*
X262875941Y-63829400D01*
X262875941Y-63829400D02*
X262994989Y-63757971D01*
X262994989Y-63757971D02*
X262994989Y-63900828D01*
X262994989Y-63329400D02*
X262875941Y-62472257D01*
X262875941Y-62472257D02*
X262994989Y-62400828D01*
X262994989Y-62400828D02*
X263114036Y-62472257D01*
X263114036Y-62472257D02*
X262994989Y-63329400D01*
X262994989Y-63329400D02*
X262994989Y-62400828D01*
D12*
X273400000Y-65000000D02*
X206800000Y-65000000D01*
X273400000Y-133000000D02*
X273400000Y-65000000D01*
X206775000Y-133000000D02*
X273400000Y-133000000D01*
X206800000Y-65000000D02*
X206775000Y-133000000D01*
D13*
X285488151Y-101849999D02*
X285726246Y-101849999D01*
X285631008Y-102088094D02*
X285726246Y-101849999D01*
X285726246Y-101849999D02*
X285631008Y-101611904D01*
X285916722Y-101992856D02*
X285726246Y-101849999D01*
X285726246Y-101849999D02*
X285916722Y-101707142D01*
X286578512Y-101850000D02*
X286340417Y-101850000D01*
X286435655Y-101611905D02*
X286340417Y-101850000D01*
X286340417Y-101850000D02*
X286435655Y-102088095D01*
X286149941Y-101707143D02*
X286340417Y-101850000D01*
X286340417Y-101850000D02*
X286149941Y-101992857D01*
X221218095Y-105829819D02*
X221218095Y-104829819D01*
X221789523Y-105829819D02*
X221360952Y-105258390D01*
X221789523Y-104829819D02*
X221218095Y-105401247D01*
X215654819Y-108526904D02*
X214654819Y-108526904D01*
X215654819Y-107955476D02*
X215083390Y-108384047D01*
X214654819Y-107955476D02*
X215226247Y-108526904D01*
X230888095Y-95979819D02*
X230888095Y-94979819D01*
X231459523Y-95979819D02*
X231030952Y-95408390D01*
X231459523Y-94979819D02*
X230888095Y-95551247D01*
X220918095Y-116579819D02*
X220918095Y-115579819D01*
X221489523Y-116579819D02*
X221060952Y-116008390D01*
X221489523Y-115579819D02*
X220918095Y-116151247D01*
D14*
%TO.C,RV1*%
X120660000Y-114546000D02*
G75*
G03*
X119660000Y-114546000I-500000J0D01*
G01*
X119660000Y-114546000D02*
G75*
G03*
X120660000Y-114546000I500000J0D01*
G01*
X111270000Y-106418000D02*
X120668000Y-106418000D01*
X120668000Y-112474000D02*
X120668000Y-106418000D01*
X118128000Y-115816000D02*
X120668000Y-112474000D01*
X118128000Y-115816000D02*
X111270000Y-115816000D01*
X111270000Y-115816000D02*
X111270000Y-106418000D01*
%TO.C,RV2*%
X120716000Y-127280000D02*
X111318000Y-127280000D01*
X120716000Y-120422000D02*
X120716000Y-127280000D01*
X120716000Y-120422000D02*
X117374000Y-117882000D01*
X117374000Y-117882000D02*
X111318000Y-117882000D01*
X111318000Y-127280000D02*
X111318000Y-117882000D01*
X119946000Y-118390000D02*
G75*
G03*
X118946000Y-118390000I-500000J0D01*
G01*
X118946000Y-118390000D02*
G75*
G03*
X119946000Y-118390000I500000J0D01*
G01*
D15*
%TO.C,XMER1*%
X231683800Y-96773201D02*
X231683800Y-131926801D01*
X231683800Y-131926801D02*
X272527000Y-131926801D01*
X272527000Y-131926801D02*
X272527000Y-96773201D01*
X272527000Y-96773201D02*
X231683800Y-96773201D01*
D12*
%TO.C,P2*%
X269050000Y-73300000D02*
X269050000Y-73800000D01*
X269050000Y-73300000D02*
X268550000Y-73300000D01*
X269050000Y-88500000D02*
X268550000Y-88500000D01*
X269050000Y-88500000D02*
X269050000Y-88000000D01*
X261350000Y-88500000D02*
X261350000Y-88000000D01*
X261350000Y-88500000D02*
X261800000Y-88500000D01*
X261350000Y-73300000D02*
X261800000Y-73300000D01*
X261350000Y-73300000D02*
X261350000Y-73800000D01*
D16*
%TO.C,R23*%
X182470000Y-107605000D02*
X182470000Y-107935000D01*
X182470000Y-110345000D02*
X182470000Y-110015000D01*
X189010000Y-107605000D02*
X182470000Y-107605000D01*
X189010000Y-107935000D02*
X189010000Y-107605000D01*
X189010000Y-110015000D02*
X189010000Y-110345000D01*
X189010000Y-110345000D02*
X182470000Y-110345000D01*
D12*
%TO.C,U1*%
X159520000Y-124225000D02*
X159520000Y-123725000D01*
X159520000Y-124225000D02*
X160020000Y-124225000D01*
X159540000Y-103675000D02*
X159540000Y-104175000D01*
X159540000Y-103675000D02*
X160040000Y-103675000D01*
X169900000Y-103675000D02*
X169400000Y-103675000D01*
X169900000Y-103675000D02*
X169900000Y-104175000D01*
X169920000Y-124225000D02*
X169420000Y-124225000D01*
X169920000Y-124225000D02*
X169920000Y-123725000D01*
D16*
%TO.C,R20*%
X201460000Y-93795000D02*
X194920000Y-93795000D01*
X201460000Y-93465000D02*
X201460000Y-93795000D01*
X201460000Y-91385000D02*
X201460000Y-91055000D01*
X201460000Y-91055000D02*
X194920000Y-91055000D01*
X194920000Y-93795000D02*
X194920000Y-93465000D01*
X194920000Y-91055000D02*
X194920000Y-91385000D01*
%TO.C,C7*%
X137540000Y-98600000D02*
X138230000Y-98600000D01*
X138230000Y-97180000D02*
X138230000Y-100020000D01*
X138230000Y-100020000D02*
X142270000Y-100020000D01*
X142270000Y-97180000D02*
X138230000Y-97180000D01*
X142270000Y-100020000D02*
X142270000Y-97180000D01*
X142960000Y-98600000D02*
X142270000Y-98600000D01*
%TO.C,R2*%
X161430000Y-98605000D02*
X161430000Y-98935000D01*
X161430000Y-101345000D02*
X161430000Y-101015000D01*
X167970000Y-98605000D02*
X161430000Y-98605000D01*
X167970000Y-98935000D02*
X167970000Y-98605000D01*
X167970000Y-101015000D02*
X167970000Y-101345000D01*
X167970000Y-101345000D02*
X161430000Y-101345000D01*
%TO.C,R28*%
X182570000Y-81955000D02*
X182570000Y-82285000D01*
X182570000Y-84695000D02*
X182570000Y-84365000D01*
X189110000Y-81955000D02*
X182570000Y-81955000D01*
X189110000Y-82285000D02*
X189110000Y-81955000D01*
X189110000Y-84365000D02*
X189110000Y-84695000D01*
X189110000Y-84695000D02*
X182570000Y-84695000D01*
%TO.C,C4*%
X195980199Y-118080000D02*
X196380199Y-118080000D01*
X196180199Y-117880000D02*
X196180199Y-118280000D01*
X198250000Y-117195000D02*
X198250000Y-118435000D01*
X198250000Y-120115000D02*
X198250000Y-121355000D01*
X198290000Y-117195000D02*
X198290000Y-118435000D01*
X198290000Y-120115000D02*
X198290000Y-121355000D01*
X198330000Y-117196000D02*
X198330000Y-118435000D01*
X198330000Y-120115000D02*
X198330000Y-121354000D01*
X198370000Y-117198000D02*
X198370000Y-118435000D01*
X198370000Y-120115000D02*
X198370000Y-121352000D01*
X198410000Y-117201000D02*
X198410000Y-118435000D01*
X198410000Y-120115000D02*
X198410000Y-121349000D01*
X198450000Y-117204000D02*
X198450000Y-118435000D01*
X198450000Y-120115000D02*
X198450000Y-121346000D01*
X198490000Y-117208000D02*
X198490000Y-118435000D01*
X198490000Y-120115000D02*
X198490000Y-121342000D01*
X198530000Y-117213000D02*
X198530000Y-118435000D01*
X198530000Y-120115000D02*
X198530000Y-121337000D01*
X198570000Y-117219000D02*
X198570000Y-118435000D01*
X198570000Y-120115000D02*
X198570000Y-121331000D01*
X198610000Y-117225000D02*
X198610000Y-118435000D01*
X198610000Y-120115000D02*
X198610000Y-121325000D01*
X198650000Y-117233000D02*
X198650000Y-118435000D01*
X198650000Y-120115000D02*
X198650000Y-121317000D01*
X198690000Y-117241000D02*
X198690000Y-118435000D01*
X198690000Y-120115000D02*
X198690000Y-121309000D01*
X198730000Y-117250000D02*
X198730000Y-118435000D01*
X198730000Y-120115000D02*
X198730000Y-121300000D01*
X198770000Y-117259000D02*
X198770000Y-118435000D01*
X198770000Y-120115000D02*
X198770000Y-121291000D01*
X198810000Y-117270000D02*
X198810000Y-118435000D01*
X198810000Y-120115000D02*
X198810000Y-121280000D01*
X198850000Y-117281000D02*
X198850000Y-118435000D01*
X198850000Y-120115000D02*
X198850000Y-121269000D01*
X198890000Y-117293000D02*
X198890000Y-118435000D01*
X198890000Y-120115000D02*
X198890000Y-121257000D01*
X198930000Y-117307000D02*
X198930000Y-118435000D01*
X198930000Y-120115000D02*
X198930000Y-121243000D01*
X198971000Y-117321000D02*
X198971000Y-118435000D01*
X198971000Y-120115000D02*
X198971000Y-121229000D01*
X199011000Y-117335000D02*
X199011000Y-118435000D01*
X199011000Y-120115000D02*
X199011000Y-121215000D01*
X199051000Y-117351000D02*
X199051000Y-118435000D01*
X199051000Y-120115000D02*
X199051000Y-121199000D01*
X199091000Y-117368000D02*
X199091000Y-118435000D01*
X199091000Y-120115000D02*
X199091000Y-121182000D01*
X199131000Y-117386000D02*
X199131000Y-118435000D01*
X199131000Y-120115000D02*
X199131000Y-121164000D01*
X199171000Y-117405000D02*
X199171000Y-118435000D01*
X199171000Y-120115000D02*
X199171000Y-121145000D01*
X199211000Y-117424000D02*
X199211000Y-118435000D01*
X199211000Y-120115000D02*
X199211000Y-121126000D01*
X199251000Y-117445000D02*
X199251000Y-118435000D01*
X199251000Y-120115000D02*
X199251000Y-121105000D01*
X199291000Y-117467000D02*
X199291000Y-118435000D01*
X199291000Y-120115000D02*
X199291000Y-121083000D01*
X199331000Y-117490000D02*
X199331000Y-118435000D01*
X199331000Y-120115000D02*
X199331000Y-121060000D01*
X199371000Y-117515000D02*
X199371000Y-118435000D01*
X199371000Y-120115000D02*
X199371000Y-121035000D01*
X199411000Y-117540000D02*
X199411000Y-118435000D01*
X199411000Y-120115000D02*
X199411000Y-121010000D01*
X199451000Y-117567000D02*
X199451000Y-118435000D01*
X199451000Y-120115000D02*
X199451000Y-120983000D01*
X199491000Y-117595000D02*
X199491000Y-118435000D01*
X199491000Y-120115000D02*
X199491000Y-120955000D01*
X199531000Y-117625000D02*
X199531000Y-118435000D01*
X199531000Y-120115000D02*
X199531000Y-120925000D01*
X199571000Y-117656000D02*
X199571000Y-118435000D01*
X199571000Y-120115000D02*
X199571000Y-120894000D01*
X199611000Y-117688000D02*
X199611000Y-118435000D01*
X199611000Y-120115000D02*
X199611000Y-120862000D01*
X199651000Y-117723000D02*
X199651000Y-118435000D01*
X199651000Y-120115000D02*
X199651000Y-120827000D01*
X199691000Y-117759000D02*
X199691000Y-118435000D01*
X199691000Y-120115000D02*
X199691000Y-120791000D01*
X199731000Y-117797000D02*
X199731000Y-118435000D01*
X199731000Y-120115000D02*
X199731000Y-120753000D01*
X199771000Y-117837000D02*
X199771000Y-118435000D01*
X199771000Y-120115000D02*
X199771000Y-120713000D01*
X199811000Y-117879000D02*
X199811000Y-118435000D01*
X199811000Y-120115000D02*
X199811000Y-120671000D01*
X199851000Y-117924000D02*
X199851000Y-120626000D01*
X199891000Y-117971000D02*
X199891000Y-120579000D01*
X199931000Y-118021000D02*
X199931000Y-120529000D01*
X199971000Y-118075000D02*
X199971000Y-120475000D01*
X200011000Y-118133000D02*
X200011000Y-120417000D01*
X200051000Y-118195000D02*
X200051000Y-120355000D01*
X200091000Y-118262000D02*
X200091000Y-120288000D01*
X200131000Y-118335000D02*
X200131000Y-120215000D01*
X200171000Y-118416000D02*
X200171000Y-120134000D01*
X200211000Y-118507000D02*
X200211000Y-120043000D01*
X200251000Y-118611000D02*
X200251000Y-119939000D01*
X200291000Y-118738000D02*
X200291000Y-119812000D01*
X200331000Y-118905000D02*
X200331000Y-119645000D01*
X200370000Y-119275000D02*
G75*
G03*
X196130000Y-119275000I-2120000J0D01*
G01*
X196130000Y-119275000D02*
G75*
G03*
X200370000Y-119275000I2120000J0D01*
G01*
%TO.C,C2*%
X120317401Y-101130000D02*
G75*
G03*
X116077401Y-101130000I-2120000J0D01*
G01*
X116077401Y-101130000D02*
G75*
G03*
X120317401Y-101130000I2120000J0D01*
G01*
X120278401Y-100760000D02*
X120278401Y-101500000D01*
X120238401Y-100593000D02*
X120238401Y-101667000D01*
X120198401Y-100466000D02*
X120198401Y-101794000D01*
X120158401Y-100362000D02*
X120158401Y-101898000D01*
X120118401Y-100271000D02*
X120118401Y-101989000D01*
X120078401Y-100190000D02*
X120078401Y-102070000D01*
X120038401Y-100117000D02*
X120038401Y-102143000D01*
X119998401Y-100050000D02*
X119998401Y-102210000D01*
X119958401Y-99988000D02*
X119958401Y-102272000D01*
X119918401Y-99930000D02*
X119918401Y-102330000D01*
X119878401Y-99876000D02*
X119878401Y-102384000D01*
X119838401Y-99826000D02*
X119838401Y-102434000D01*
X119798401Y-99779000D02*
X119798401Y-102481000D01*
X119758401Y-101970000D02*
X119758401Y-102526000D01*
X119758401Y-99734000D02*
X119758401Y-100290000D01*
X119718401Y-101970000D02*
X119718401Y-102568000D01*
X119718401Y-99692000D02*
X119718401Y-100290000D01*
X119678401Y-101970000D02*
X119678401Y-102608000D01*
X119678401Y-99652000D02*
X119678401Y-100290000D01*
X119638401Y-101970000D02*
X119638401Y-102646000D01*
X119638401Y-99614000D02*
X119638401Y-100290000D01*
X119598401Y-101970000D02*
X119598401Y-102682000D01*
X119598401Y-99578000D02*
X119598401Y-100290000D01*
X119558401Y-101970000D02*
X119558401Y-102717000D01*
X119558401Y-99543000D02*
X119558401Y-100290000D01*
X119518401Y-101970000D02*
X119518401Y-102749000D01*
X119518401Y-99511000D02*
X119518401Y-100290000D01*
X119478401Y-101970000D02*
X119478401Y-102780000D01*
X119478401Y-99480000D02*
X119478401Y-100290000D01*
X119438401Y-101970000D02*
X119438401Y-102810000D01*
X119438401Y-99450000D02*
X119438401Y-100290000D01*
X119398401Y-101970000D02*
X119398401Y-102838000D01*
X119398401Y-99422000D02*
X119398401Y-100290000D01*
X119358401Y-101970000D02*
X119358401Y-102865000D01*
X119358401Y-99395000D02*
X119358401Y-100290000D01*
X119318401Y-101970000D02*
X119318401Y-102890000D01*
X119318401Y-99370000D02*
X119318401Y-100290000D01*
X119278401Y-101970000D02*
X119278401Y-102915000D01*
X119278401Y-99345000D02*
X119278401Y-100290000D01*
X119238401Y-101970000D02*
X119238401Y-102938000D01*
X119238401Y-99322000D02*
X119238401Y-100290000D01*
X119198401Y-101970000D02*
X119198401Y-102960000D01*
X119198401Y-99300000D02*
X119198401Y-100290000D01*
X119158401Y-101970000D02*
X119158401Y-102981000D01*
X119158401Y-99279000D02*
X119158401Y-100290000D01*
X119118401Y-101970000D02*
X119118401Y-103000000D01*
X119118401Y-99260000D02*
X119118401Y-100290000D01*
X119078401Y-101970000D02*
X119078401Y-103019000D01*
X119078401Y-99241000D02*
X119078401Y-100290000D01*
X119038401Y-101970000D02*
X119038401Y-103037000D01*
X119038401Y-99223000D02*
X119038401Y-100290000D01*
X118998401Y-101970000D02*
X118998401Y-103054000D01*
X118998401Y-99206000D02*
X118998401Y-100290000D01*
X118958401Y-101970000D02*
X118958401Y-103070000D01*
X118958401Y-99190000D02*
X118958401Y-100290000D01*
X118918401Y-101970000D02*
X118918401Y-103084000D01*
X118918401Y-99176000D02*
X118918401Y-100290000D01*
X118877401Y-101970000D02*
X118877401Y-103098000D01*
X118877401Y-99162000D02*
X118877401Y-100290000D01*
X118837401Y-101970000D02*
X118837401Y-103112000D01*
X118837401Y-99148000D02*
X118837401Y-100290000D01*
X118797401Y-101970000D02*
X118797401Y-103124000D01*
X118797401Y-99136000D02*
X118797401Y-100290000D01*
X118757401Y-101970000D02*
X118757401Y-103135000D01*
X118757401Y-99125000D02*
X118757401Y-100290000D01*
X118717401Y-101970000D02*
X118717401Y-103146000D01*
X118717401Y-99114000D02*
X118717401Y-100290000D01*
X118677401Y-101970000D02*
X118677401Y-103155000D01*
X118677401Y-99105000D02*
X118677401Y-100290000D01*
X118637401Y-101970000D02*
X118637401Y-103164000D01*
X118637401Y-99096000D02*
X118637401Y-100290000D01*
X118597401Y-101970000D02*
X118597401Y-103172000D01*
X118597401Y-99088000D02*
X118597401Y-100290000D01*
X118557401Y-101970000D02*
X118557401Y-103180000D01*
X118557401Y-99080000D02*
X118557401Y-100290000D01*
X118517401Y-101970000D02*
X118517401Y-103186000D01*
X118517401Y-99074000D02*
X118517401Y-100290000D01*
X118477401Y-101970000D02*
X118477401Y-103192000D01*
X118477401Y-99068000D02*
X118477401Y-100290000D01*
X118437401Y-101970000D02*
X118437401Y-103197000D01*
X118437401Y-99063000D02*
X118437401Y-100290000D01*
X118397401Y-101970000D02*
X118397401Y-103201000D01*
X118397401Y-99059000D02*
X118397401Y-100290000D01*
X118357401Y-101970000D02*
X118357401Y-103204000D01*
X118357401Y-99056000D02*
X118357401Y-100290000D01*
X118317401Y-101970000D02*
X118317401Y-103207000D01*
X118317401Y-99053000D02*
X118317401Y-100290000D01*
X118277401Y-101970000D02*
X118277401Y-103209000D01*
X118277401Y-99051000D02*
X118277401Y-100290000D01*
X118237401Y-101970000D02*
X118237401Y-103210000D01*
X118237401Y-99050000D02*
X118237401Y-100290000D01*
X118197401Y-101970000D02*
X118197401Y-103210000D01*
X118197401Y-99050000D02*
X118197401Y-100290000D01*
X116127600Y-99735000D02*
X116127600Y-100135000D01*
X115927600Y-99935000D02*
X116327600Y-99935000D01*
%TO.C,C13*%
X236090000Y-87075000D02*
X236780000Y-87075000D01*
X236780000Y-85655000D02*
X236780000Y-88495000D01*
X236780000Y-88495000D02*
X240820000Y-88495000D01*
X240820000Y-85655000D02*
X236780000Y-85655000D01*
X240820000Y-88495000D02*
X240820000Y-85655000D01*
X241510000Y-87075000D02*
X240820000Y-87075000D01*
%TO.C,R17*%
X194930000Y-104155000D02*
X201470000Y-104155000D01*
X194930000Y-104485000D02*
X194930000Y-104155000D01*
X194930000Y-106565000D02*
X194930000Y-106895000D01*
X194930000Y-106895000D02*
X201470000Y-106895000D01*
X201470000Y-104155000D02*
X201470000Y-104485000D01*
X201470000Y-106895000D02*
X201470000Y-106565000D01*
%TO.C,C5*%
X149300000Y-110790000D02*
X149300000Y-110830000D01*
X150970000Y-110830000D02*
X147630000Y-110830000D01*
X147630000Y-110830000D02*
X147630000Y-116170000D01*
X150970000Y-116170000D02*
X150970000Y-110830000D01*
X147630000Y-116170000D02*
X150970000Y-116170000D01*
X149300000Y-116210000D02*
X149300000Y-116170000D01*
%TO.C,J3*%
X109600000Y-67250000D02*
X109600000Y-82250000D01*
X94600000Y-67250000D02*
X109600000Y-67250000D01*
X94800000Y-74750000D02*
X95800000Y-73750000D01*
X94800000Y-74750000D02*
X95800000Y-75750000D01*
X109600000Y-82250000D02*
X94600000Y-82250000D01*
X94600000Y-82250000D02*
X94600000Y-67250000D01*
%TO.C,R16*%
X147730000Y-104145000D02*
X148060000Y-104145000D01*
X150470000Y-104145000D02*
X150140000Y-104145000D01*
X147730000Y-97605000D02*
X147730000Y-104145000D01*
X148060000Y-97605000D02*
X147730000Y-97605000D01*
X150140000Y-97605000D02*
X150470000Y-97605000D01*
X150470000Y-97605000D02*
X150470000Y-104145000D01*
%TO.C,R7*%
X189030000Y-124295000D02*
X189030000Y-123965000D01*
X189030000Y-121555000D02*
X189030000Y-121885000D01*
X182490000Y-124295000D02*
X189030000Y-124295000D01*
X182490000Y-123965000D02*
X182490000Y-124295000D01*
X182490000Y-121885000D02*
X182490000Y-121555000D01*
X182490000Y-121555000D02*
X189030000Y-121555000D01*
%TO.C,C12*%
X225380199Y-99130000D02*
X225780199Y-99130000D01*
X225580199Y-98930000D02*
X225580199Y-99330000D01*
X227650000Y-98245000D02*
X227650000Y-99485000D01*
X227650000Y-101165000D02*
X227650000Y-102405000D01*
X227690000Y-98245000D02*
X227690000Y-99485000D01*
X227690000Y-101165000D02*
X227690000Y-102405000D01*
X227730000Y-98246000D02*
X227730000Y-99485000D01*
X227730000Y-101165000D02*
X227730000Y-102404000D01*
X227770000Y-98248000D02*
X227770000Y-99485000D01*
X227770000Y-101165000D02*
X227770000Y-102402000D01*
X227810000Y-98251000D02*
X227810000Y-99485000D01*
X227810000Y-101165000D02*
X227810000Y-102399000D01*
X227850000Y-98254000D02*
X227850000Y-99485000D01*
X227850000Y-101165000D02*
X227850000Y-102396000D01*
X227890000Y-98258000D02*
X227890000Y-99485000D01*
X227890000Y-101165000D02*
X227890000Y-102392000D01*
X227930000Y-98263000D02*
X227930000Y-99485000D01*
X227930000Y-101165000D02*
X227930000Y-102387000D01*
X227970000Y-98269000D02*
X227970000Y-99485000D01*
X227970000Y-101165000D02*
X227970000Y-102381000D01*
X228010000Y-98275000D02*
X228010000Y-99485000D01*
X228010000Y-101165000D02*
X228010000Y-102375000D01*
X228050000Y-98283000D02*
X228050000Y-99485000D01*
X228050000Y-101165000D02*
X228050000Y-102367000D01*
X228090000Y-98291000D02*
X228090000Y-99485000D01*
X228090000Y-101165000D02*
X228090000Y-102359000D01*
X228130000Y-98300000D02*
X228130000Y-99485000D01*
X228130000Y-101165000D02*
X228130000Y-102350000D01*
X228170000Y-98309000D02*
X228170000Y-99485000D01*
X228170000Y-101165000D02*
X228170000Y-102341000D01*
X228210000Y-98320000D02*
X228210000Y-99485000D01*
X228210000Y-101165000D02*
X228210000Y-102330000D01*
X228250000Y-98331000D02*
X228250000Y-99485000D01*
X228250000Y-101165000D02*
X228250000Y-102319000D01*
X228290000Y-98343000D02*
X228290000Y-99485000D01*
X228290000Y-101165000D02*
X228290000Y-102307000D01*
X228330000Y-98357000D02*
X228330000Y-99485000D01*
X228330000Y-101165000D02*
X228330000Y-102293000D01*
X228371000Y-98371000D02*
X228371000Y-99485000D01*
X228371000Y-101165000D02*
X228371000Y-102279000D01*
X228411000Y-98385000D02*
X228411000Y-99485000D01*
X228411000Y-101165000D02*
X228411000Y-102265000D01*
X228451000Y-98401000D02*
X228451000Y-99485000D01*
X228451000Y-101165000D02*
X228451000Y-102249000D01*
X228491000Y-98418000D02*
X228491000Y-99485000D01*
X228491000Y-101165000D02*
X228491000Y-102232000D01*
X228531000Y-98436000D02*
X228531000Y-99485000D01*
X228531000Y-101165000D02*
X228531000Y-102214000D01*
X228571000Y-98455000D02*
X228571000Y-99485000D01*
X228571000Y-101165000D02*
X228571000Y-102195000D01*
X228611000Y-98474000D02*
X228611000Y-99485000D01*
X228611000Y-101165000D02*
X228611000Y-102176000D01*
X228651000Y-98495000D02*
X228651000Y-99485000D01*
X228651000Y-101165000D02*
X228651000Y-102155000D01*
X228691000Y-98517000D02*
X228691000Y-99485000D01*
X228691000Y-101165000D02*
X228691000Y-102133000D01*
X228731000Y-98540000D02*
X228731000Y-99485000D01*
X228731000Y-101165000D02*
X228731000Y-102110000D01*
X228771000Y-98565000D02*
X228771000Y-99485000D01*
X228771000Y-101165000D02*
X228771000Y-102085000D01*
X228811000Y-98590000D02*
X228811000Y-99485000D01*
X228811000Y-101165000D02*
X228811000Y-102060000D01*
X228851000Y-98617000D02*
X228851000Y-99485000D01*
X228851000Y-101165000D02*
X228851000Y-102033000D01*
X228891000Y-98645000D02*
X228891000Y-99485000D01*
X228891000Y-101165000D02*
X228891000Y-102005000D01*
X228931000Y-98675000D02*
X228931000Y-99485000D01*
X228931000Y-101165000D02*
X228931000Y-101975000D01*
X228971000Y-98706000D02*
X228971000Y-99485000D01*
X228971000Y-101165000D02*
X228971000Y-101944000D01*
X229011000Y-98738000D02*
X229011000Y-99485000D01*
X229011000Y-101165000D02*
X229011000Y-101912000D01*
X229051000Y-98773000D02*
X229051000Y-99485000D01*
X229051000Y-101165000D02*
X229051000Y-101877000D01*
X229091000Y-98809000D02*
X229091000Y-99485000D01*
X229091000Y-101165000D02*
X229091000Y-101841000D01*
X229131000Y-98847000D02*
X229131000Y-99485000D01*
X229131000Y-101165000D02*
X229131000Y-101803000D01*
X229171000Y-98887000D02*
X229171000Y-99485000D01*
X229171000Y-101165000D02*
X229171000Y-101763000D01*
X229211000Y-98929000D02*
X229211000Y-99485000D01*
X229211000Y-101165000D02*
X229211000Y-101721000D01*
X229251000Y-98974000D02*
X229251000Y-101676000D01*
X229291000Y-99021000D02*
X229291000Y-101629000D01*
X229331000Y-99071000D02*
X229331000Y-101579000D01*
X229371000Y-99125000D02*
X229371000Y-101525000D01*
X229411000Y-99183000D02*
X229411000Y-101467000D01*
X229451000Y-99245000D02*
X229451000Y-101405000D01*
X229491000Y-99312000D02*
X229491000Y-101338000D01*
X229531000Y-99385000D02*
X229531000Y-101265000D01*
X229571000Y-99466000D02*
X229571000Y-101184000D01*
X229611000Y-99557000D02*
X229611000Y-101093000D01*
X229651000Y-99661000D02*
X229651000Y-100989000D01*
X229691000Y-99788000D02*
X229691000Y-100862000D01*
X229731000Y-99955000D02*
X229731000Y-100695000D01*
X229770000Y-100325000D02*
G75*
G03*
X225530000Y-100325000I-2120000J0D01*
G01*
X225530000Y-100325000D02*
G75*
G03*
X229770000Y-100325000I2120000J0D01*
G01*
%TO.C,R11*%
X156770000Y-86405000D02*
X156440000Y-86405000D01*
X154030000Y-86405000D02*
X154360000Y-86405000D01*
X156770000Y-92945000D02*
X156770000Y-86405000D01*
X156440000Y-92945000D02*
X156770000Y-92945000D01*
X154360000Y-92945000D02*
X154030000Y-92945000D01*
X154030000Y-92945000D02*
X154030000Y-86405000D01*
%TO.C,R5*%
X182520000Y-75305000D02*
X182520000Y-75635000D01*
X182520000Y-78045000D02*
X182520000Y-77715000D01*
X189060000Y-75305000D02*
X182520000Y-75305000D01*
X189060000Y-75635000D02*
X189060000Y-75305000D01*
X189060000Y-77715000D02*
X189060000Y-78045000D01*
X189060000Y-78045000D02*
X182520000Y-78045000D01*
%TO.C,J1*%
X95070000Y-130630000D02*
X95070000Y-115630000D01*
X110070000Y-130630000D02*
X95070000Y-130630000D01*
X95270000Y-123130000D02*
X96270000Y-124130000D01*
X95270000Y-123130000D02*
X96270000Y-122130000D01*
X95070000Y-115630000D02*
X110070000Y-115630000D01*
X110070000Y-115630000D02*
X110070000Y-130630000D01*
%TO.C,D2*%
X222570000Y-105805000D02*
X228010000Y-105805000D01*
X222570000Y-106135000D02*
X222570000Y-105805000D01*
X222570000Y-108415000D02*
X222570000Y-108745000D01*
X222570000Y-108745000D02*
X228010000Y-108745000D01*
X223350000Y-105805000D02*
X223350000Y-108745000D01*
X223470000Y-105805000D02*
X223470000Y-108745000D01*
X223590000Y-105805000D02*
X223590000Y-108745000D01*
X228010000Y-105805000D02*
X228010000Y-106135000D01*
X228010000Y-108745000D02*
X228010000Y-108415000D01*
%TO.C,R24*%
X195070000Y-78705000D02*
X195070000Y-79035000D01*
X195070000Y-81445000D02*
X195070000Y-81115000D01*
X201610000Y-78705000D02*
X195070000Y-78705000D01*
X201610000Y-79035000D02*
X201610000Y-78705000D01*
X201610000Y-81115000D02*
X201610000Y-81445000D01*
X201610000Y-81445000D02*
X195070000Y-81445000D01*
%TO.C,R19*%
X194970000Y-110805000D02*
X201510000Y-110805000D01*
X194970000Y-111135000D02*
X194970000Y-110805000D01*
X194970000Y-113215000D02*
X194970000Y-113545000D01*
X194970000Y-113545000D02*
X201510000Y-113545000D01*
X201510000Y-110805000D02*
X201510000Y-111135000D01*
X201510000Y-113545000D02*
X201510000Y-113215000D01*
%TO.C,C11*%
X217930199Y-99080000D02*
X218330199Y-99080000D01*
X218130199Y-98880000D02*
X218130199Y-99280000D01*
X220200000Y-98195000D02*
X220200000Y-99435000D01*
X220200000Y-101115000D02*
X220200000Y-102355000D01*
X220240000Y-98195000D02*
X220240000Y-99435000D01*
X220240000Y-101115000D02*
X220240000Y-102355000D01*
X220280000Y-98196000D02*
X220280000Y-99435000D01*
X220280000Y-101115000D02*
X220280000Y-102354000D01*
X220320000Y-98198000D02*
X220320000Y-99435000D01*
X220320000Y-101115000D02*
X220320000Y-102352000D01*
X220360000Y-98201000D02*
X220360000Y-99435000D01*
X220360000Y-101115000D02*
X220360000Y-102349000D01*
X220400000Y-98204000D02*
X220400000Y-99435000D01*
X220400000Y-101115000D02*
X220400000Y-102346000D01*
X220440000Y-98208000D02*
X220440000Y-99435000D01*
X220440000Y-101115000D02*
X220440000Y-102342000D01*
X220480000Y-98213000D02*
X220480000Y-99435000D01*
X220480000Y-101115000D02*
X220480000Y-102337000D01*
X220520000Y-98219000D02*
X220520000Y-99435000D01*
X220520000Y-101115000D02*
X220520000Y-102331000D01*
X220560000Y-98225000D02*
X220560000Y-99435000D01*
X220560000Y-101115000D02*
X220560000Y-102325000D01*
X220600000Y-98233000D02*
X220600000Y-99435000D01*
X220600000Y-101115000D02*
X220600000Y-102317000D01*
X220640000Y-98241000D02*
X220640000Y-99435000D01*
X220640000Y-101115000D02*
X220640000Y-102309000D01*
X220680000Y-98250000D02*
X220680000Y-99435000D01*
X220680000Y-101115000D02*
X220680000Y-102300000D01*
X220720000Y-98259000D02*
X220720000Y-99435000D01*
X220720000Y-101115000D02*
X220720000Y-102291000D01*
X220760000Y-98270000D02*
X220760000Y-99435000D01*
X220760000Y-101115000D02*
X220760000Y-102280000D01*
X220800000Y-98281000D02*
X220800000Y-99435000D01*
X220800000Y-101115000D02*
X220800000Y-102269000D01*
X220840000Y-98293000D02*
X220840000Y-99435000D01*
X220840000Y-101115000D02*
X220840000Y-102257000D01*
X220880000Y-98307000D02*
X220880000Y-99435000D01*
X220880000Y-101115000D02*
X220880000Y-102243000D01*
X220921000Y-98321000D02*
X220921000Y-99435000D01*
X220921000Y-101115000D02*
X220921000Y-102229000D01*
X220961000Y-98335000D02*
X220961000Y-99435000D01*
X220961000Y-101115000D02*
X220961000Y-102215000D01*
X221001000Y-98351000D02*
X221001000Y-99435000D01*
X221001000Y-101115000D02*
X221001000Y-102199000D01*
X221041000Y-98368000D02*
X221041000Y-99435000D01*
X221041000Y-101115000D02*
X221041000Y-102182000D01*
X221081000Y-98386000D02*
X221081000Y-99435000D01*
X221081000Y-101115000D02*
X221081000Y-102164000D01*
X221121000Y-98405000D02*
X221121000Y-99435000D01*
X221121000Y-101115000D02*
X221121000Y-102145000D01*
X221161000Y-98424000D02*
X221161000Y-99435000D01*
X221161000Y-101115000D02*
X221161000Y-102126000D01*
X221201000Y-98445000D02*
X221201000Y-99435000D01*
X221201000Y-101115000D02*
X221201000Y-102105000D01*
X221241000Y-98467000D02*
X221241000Y-99435000D01*
X221241000Y-101115000D02*
X221241000Y-102083000D01*
X221281000Y-98490000D02*
X221281000Y-99435000D01*
X221281000Y-101115000D02*
X221281000Y-102060000D01*
X221321000Y-98515000D02*
X221321000Y-99435000D01*
X221321000Y-101115000D02*
X221321000Y-102035000D01*
X221361000Y-98540000D02*
X221361000Y-99435000D01*
X221361000Y-101115000D02*
X221361000Y-102010000D01*
X221401000Y-98567000D02*
X221401000Y-99435000D01*
X221401000Y-101115000D02*
X221401000Y-101983000D01*
X221441000Y-98595000D02*
X221441000Y-99435000D01*
X221441000Y-101115000D02*
X221441000Y-101955000D01*
X221481000Y-98625000D02*
X221481000Y-99435000D01*
X221481000Y-101115000D02*
X221481000Y-101925000D01*
X221521000Y-98656000D02*
X221521000Y-99435000D01*
X221521000Y-101115000D02*
X221521000Y-101894000D01*
X221561000Y-98688000D02*
X221561000Y-99435000D01*
X221561000Y-101115000D02*
X221561000Y-101862000D01*
X221601000Y-98723000D02*
X221601000Y-99435000D01*
X221601000Y-101115000D02*
X221601000Y-101827000D01*
X221641000Y-98759000D02*
X221641000Y-99435000D01*
X221641000Y-101115000D02*
X221641000Y-101791000D01*
X221681000Y-98797000D02*
X221681000Y-99435000D01*
X221681000Y-101115000D02*
X221681000Y-101753000D01*
X221721000Y-98837000D02*
X221721000Y-99435000D01*
X221721000Y-101115000D02*
X221721000Y-101713000D01*
X221761000Y-98879000D02*
X221761000Y-99435000D01*
X221761000Y-101115000D02*
X221761000Y-101671000D01*
X221801000Y-98924000D02*
X221801000Y-101626000D01*
X221841000Y-98971000D02*
X221841000Y-101579000D01*
X221881000Y-99021000D02*
X221881000Y-101529000D01*
X221921000Y-99075000D02*
X221921000Y-101475000D01*
X221961000Y-99133000D02*
X221961000Y-101417000D01*
X222001000Y-99195000D02*
X222001000Y-101355000D01*
X222041000Y-99262000D02*
X222041000Y-101288000D01*
X222081000Y-99335000D02*
X222081000Y-101215000D01*
X222121000Y-99416000D02*
X222121000Y-101134000D01*
X222161000Y-99507000D02*
X222161000Y-101043000D01*
X222201000Y-99611000D02*
X222201000Y-100939000D01*
X222241000Y-99738000D02*
X222241000Y-100812000D01*
X222281000Y-99905000D02*
X222281000Y-100645000D01*
X222320000Y-100275000D02*
G75*
G03*
X218080000Y-100275000I-2120000J0D01*
G01*
X218080000Y-100275000D02*
G75*
G03*
X222320000Y-100275000I2120000J0D01*
G01*
%TO.C,R4*%
X189070000Y-71345000D02*
X189070000Y-71015000D01*
X189070000Y-68605000D02*
X189070000Y-68935000D01*
X182530000Y-71345000D02*
X189070000Y-71345000D01*
X182530000Y-71015000D02*
X182530000Y-71345000D01*
X182530000Y-68935000D02*
X182530000Y-68605000D01*
X182530000Y-68605000D02*
X189070000Y-68605000D01*
D12*
%TO.C,U3*%
X134950000Y-124565000D02*
X134950000Y-124065000D01*
X134950000Y-124565000D02*
X135450000Y-124565000D01*
X134970000Y-104015000D02*
X134970000Y-104515000D01*
X134970000Y-104015000D02*
X135470000Y-104015000D01*
X145330000Y-104015000D02*
X144830000Y-104015000D01*
X145330000Y-104015000D02*
X145330000Y-104515000D01*
X145350000Y-124565000D02*
X144850000Y-124565000D01*
X145350000Y-124565000D02*
X145350000Y-124065000D01*
D16*
%TO.C,R22*%
X168660000Y-79620000D02*
X162120000Y-79620000D01*
X168660000Y-79290000D02*
X168660000Y-79620000D01*
X168660000Y-77210000D02*
X168660000Y-76880000D01*
X168660000Y-76880000D02*
X162120000Y-76880000D01*
X162120000Y-79620000D02*
X162120000Y-79290000D01*
X162120000Y-76880000D02*
X162120000Y-77210000D01*
%TO.C,R13*%
X131920000Y-108120000D02*
X131920000Y-107790000D01*
X131920000Y-105380000D02*
X131920000Y-105710000D01*
X125380000Y-108120000D02*
X131920000Y-108120000D01*
X125380000Y-107790000D02*
X125380000Y-108120000D01*
X125380000Y-105710000D02*
X125380000Y-105380000D01*
X125380000Y-105380000D02*
X131920000Y-105380000D01*
%TO.C,U2*%
X163860000Y-91470000D02*
G75*
G03*
X165860000Y-91470000I1000000J0D01*
G01*
X170000000Y-96730000D02*
X170000000Y-91410000D01*
X170000000Y-91410000D02*
X159720000Y-91410000D01*
X167510000Y-96670000D02*
X167510000Y-91470000D01*
X167510000Y-91470000D02*
X165860000Y-91470000D01*
X163860000Y-91470000D02*
X162210000Y-91470000D01*
X162210000Y-96670000D02*
X167510000Y-96670000D01*
X162210000Y-91470000D02*
X162210000Y-96670000D01*
X159720000Y-96730000D02*
X170000000Y-96730000D01*
X159720000Y-91410000D02*
X159720000Y-96730000D01*
%TO.C,R15*%
X150470000Y-86415000D02*
X150140000Y-86415000D01*
X147730000Y-86415000D02*
X148060000Y-86415000D01*
X150470000Y-92955000D02*
X150470000Y-86415000D01*
X150140000Y-92955000D02*
X150470000Y-92955000D01*
X148060000Y-92955000D02*
X147730000Y-92955000D01*
X147730000Y-92955000D02*
X147730000Y-86415000D01*
%TO.C,R9*%
X182680000Y-94505000D02*
X189220000Y-94505000D01*
X182680000Y-94835000D02*
X182680000Y-94505000D01*
X182680000Y-96915000D02*
X182680000Y-97245000D01*
X182680000Y-97245000D02*
X189220000Y-97245000D01*
X189220000Y-94505000D02*
X189220000Y-94835000D01*
X189220000Y-97245000D02*
X189220000Y-96915000D01*
%TO.C,Q1*%
X151591522Y-76911522D02*
G75*
G03*
X153430000Y-81350000I1838478J-1838478D01*
G01*
X153430000Y-81350000D02*
G75*
G03*
X155268478Y-76911522I0J2600000D01*
G01*
X155230000Y-76900000D02*
X151630000Y-76900000D01*
%TO.C,J2*%
X109950000Y-91400000D02*
X109950000Y-106400000D01*
X94950000Y-91400000D02*
X109950000Y-91400000D01*
X95150000Y-98900000D02*
X96150000Y-97900000D01*
X95150000Y-98900000D02*
X96150000Y-99900000D01*
X109950000Y-106400000D02*
X94950000Y-106400000D01*
X94950000Y-106400000D02*
X94950000Y-91400000D01*
%TO.C,R12*%
X125380000Y-98880000D02*
X125380000Y-99210000D01*
X125380000Y-101620000D02*
X125380000Y-101290000D01*
X131920000Y-98880000D02*
X125380000Y-98880000D01*
X131920000Y-99210000D02*
X131920000Y-98880000D01*
X131920000Y-101290000D02*
X131920000Y-101620000D01*
X131920000Y-101620000D02*
X125380000Y-101620000D01*
%TO.C,C3*%
X142670000Y-90850000D02*
G75*
G03*
X137430000Y-90850000I-2620000J0D01*
G01*
X137430000Y-90850000D02*
G75*
G03*
X142670000Y-90850000I2620000J0D01*
G01*
%TO.C,R25*%
X195070000Y-84805000D02*
X201610000Y-84805000D01*
X195070000Y-85135000D02*
X195070000Y-84805000D01*
X195070000Y-87215000D02*
X195070000Y-87545000D01*
X195070000Y-87545000D02*
X201610000Y-87545000D01*
X201610000Y-84805000D02*
X201610000Y-85135000D01*
X201610000Y-87545000D02*
X201610000Y-87215000D01*
%TO.C,D5*%
X252205000Y-80075000D02*
G75*
G03*
X247205000Y-80075000I-2500000J0D01*
G01*
X247205000Y-80075000D02*
G75*
G03*
X252205000Y-80075000I2500000J0D01*
G01*
X252265000Y-78530170D02*
G75*
G03*
X246715000Y-80075462I-2560000J-1544830D01*
G01*
X246715001Y-80074538D02*
G75*
G03*
X252264999Y-81619830I2989999J-462D01*
G01*
X252265000Y-81620000D02*
X252265000Y-78530000D01*
%TO.C,C1*%
X178320000Y-109100000D02*
G75*
G03*
X173080000Y-109100000I-2620000J0D01*
G01*
X173080000Y-109100000D02*
G75*
G03*
X178320000Y-109100000I2620000J0D01*
G01*
%TO.C,R10*%
X201560000Y-74745000D02*
X195020000Y-74745000D01*
X201560000Y-74415000D02*
X201560000Y-74745000D01*
X201560000Y-72335000D02*
X201560000Y-72005000D01*
X201560000Y-72005000D02*
X195020000Y-72005000D01*
X195020000Y-74745000D02*
X195020000Y-74415000D01*
X195020000Y-72005000D02*
X195020000Y-72335000D01*
%TO.C,R26*%
X246520000Y-69705000D02*
X253060000Y-69705000D01*
X246520000Y-70035000D02*
X246520000Y-69705000D01*
X246520000Y-72115000D02*
X246520000Y-72445000D01*
X246520000Y-72445000D02*
X253060000Y-72445000D01*
X253060000Y-69705000D02*
X253060000Y-70035000D01*
X253060000Y-72445000D02*
X253060000Y-72115000D01*
%TO.C,C6*%
X156070000Y-121975000D02*
G75*
G03*
X150830000Y-121975000I-2620000J0D01*
G01*
X150830000Y-121975000D02*
G75*
G03*
X156070000Y-121975000I2620000J0D01*
G01*
X153734000Y-124576000D02*
X153166000Y-124576000D01*
X153968000Y-124536000D02*
X152932000Y-124536000D01*
X154127000Y-124496000D02*
X152773000Y-124496000D01*
X154255000Y-124456000D02*
X152645000Y-124456000D01*
X154365000Y-124416000D02*
X152535000Y-124416000D01*
X154461000Y-124376000D02*
X152439000Y-124376000D01*
X154548000Y-124336000D02*
X152352000Y-124336000D01*
X154628000Y-124296000D02*
X152272000Y-124296000D01*
X154701000Y-124256000D02*
X152199000Y-124256000D01*
X154769000Y-124216000D02*
X152131000Y-124216000D01*
X154833000Y-124176000D02*
X152067000Y-124176000D01*
X154893000Y-124136000D02*
X152007000Y-124136000D01*
X154950000Y-124096000D02*
X151950000Y-124096000D01*
X155004000Y-124056000D02*
X151896000Y-124056000D01*
X155055000Y-124016000D02*
X151845000Y-124016000D01*
X152410000Y-123976000D02*
X151797000Y-123976000D01*
X155103000Y-123976000D02*
X154490000Y-123976000D01*
X152410000Y-123936000D02*
X151751000Y-123936000D01*
X155149000Y-123936000D02*
X154490000Y-123936000D01*
X152410000Y-123896000D02*
X151707000Y-123896000D01*
X155193000Y-123896000D02*
X154490000Y-123896000D01*
X152410000Y-123856000D02*
X151665000Y-123856000D01*
X155235000Y-123856000D02*
X154490000Y-123856000D01*
X152410000Y-123816000D02*
X151624000Y-123816000D01*
X155276000Y-123816000D02*
X154490000Y-123816000D01*
X152410000Y-123776000D02*
X151586000Y-123776000D01*
X155314000Y-123776000D02*
X154490000Y-123776000D01*
X152410000Y-123736000D02*
X151549000Y-123736000D01*
X155351000Y-123736000D02*
X154490000Y-123736000D01*
X152410000Y-123696000D02*
X151513000Y-123696000D01*
X155387000Y-123696000D02*
X154490000Y-123696000D01*
X152410000Y-123656000D02*
X151479000Y-123656000D01*
X155421000Y-123656000D02*
X154490000Y-123656000D01*
X152410000Y-123616000D02*
X151446000Y-123616000D01*
X155454000Y-123616000D02*
X154490000Y-123616000D01*
X152410000Y-123576000D02*
X151415000Y-123576000D01*
X155485000Y-123576000D02*
X154490000Y-123576000D01*
X152410000Y-123536000D02*
X151385000Y-123536000D01*
X155515000Y-123536000D02*
X154490000Y-123536000D01*
X152410000Y-123496000D02*
X151355000Y-123496000D01*
X155545000Y-123496000D02*
X154490000Y-123496000D01*
X152410000Y-123456000D02*
X151328000Y-123456000D01*
X155572000Y-123456000D02*
X154490000Y-123456000D01*
X152410000Y-123416000D02*
X151301000Y-123416000D01*
X155599000Y-123416000D02*
X154490000Y-123416000D01*
X152410000Y-123376000D02*
X151275000Y-123376000D01*
X155625000Y-123376000D02*
X154490000Y-123376000D01*
X152410000Y-123336000D02*
X151250000Y-123336000D01*
X155650000Y-123336000D02*
X154490000Y-123336000D01*
X152410000Y-123296000D02*
X151226000Y-123296000D01*
X155674000Y-123296000D02*
X154490000Y-123296000D01*
X152410000Y-123256000D02*
X151203000Y-123256000D01*
X155697000Y-123256000D02*
X154490000Y-123256000D01*
X152410000Y-123216000D02*
X151182000Y-123216000D01*
X155718000Y-123216000D02*
X154490000Y-123216000D01*
X152410000Y-123176000D02*
X151160000Y-123176000D01*
X155740000Y-123176000D02*
X154490000Y-123176000D01*
X152410000Y-123136000D02*
X151140000Y-123136000D01*
X155760000Y-123136000D02*
X154490000Y-123136000D01*
X152410000Y-123096000D02*
X151121000Y-123096000D01*
X155779000Y-123096000D02*
X154490000Y-123096000D01*
X152410000Y-123056000D02*
X151102000Y-123056000D01*
X155798000Y-123056000D02*
X154490000Y-123056000D01*
X152410000Y-123016000D02*
X151085000Y-123016000D01*
X155815000Y-123016000D02*
X154490000Y-123016000D01*
X152410000Y-122976000D02*
X151068000Y-122976000D01*
X155832000Y-122976000D02*
X154490000Y-122976000D01*
X152410000Y-122936000D02*
X151052000Y-122936000D01*
X155848000Y-122936000D02*
X154490000Y-122936000D01*
X152410000Y-122896000D02*
X151036000Y-122896000D01*
X155864000Y-122896000D02*
X154490000Y-122896000D01*
X152410000Y-122856000D02*
X151022000Y-122856000D01*
X155878000Y-122856000D02*
X154490000Y-122856000D01*
X152410000Y-122816000D02*
X151008000Y-122816000D01*
X155892000Y-122816000D02*
X154490000Y-122816000D01*
X152410000Y-122776000D02*
X150995000Y-122776000D01*
X155905000Y-122776000D02*
X154490000Y-122776000D01*
X152410000Y-122736000D02*
X150982000Y-122736000D01*
X155918000Y-122736000D02*
X154490000Y-122736000D01*
X152410000Y-122696000D02*
X150970000Y-122696000D01*
X155930000Y-122696000D02*
X154490000Y-122696000D01*
X152410000Y-122655000D02*
X150959000Y-122655000D01*
X155941000Y-122655000D02*
X154490000Y-122655000D01*
X152410000Y-122615000D02*
X150949000Y-122615000D01*
X155951000Y-122615000D02*
X154490000Y-122615000D01*
X152410000Y-122575000D02*
X150939000Y-122575000D01*
X155961000Y-122575000D02*
X154490000Y-122575000D01*
X152410000Y-122535000D02*
X150930000Y-122535000D01*
X155970000Y-122535000D02*
X154490000Y-122535000D01*
X152410000Y-122495000D02*
X150922000Y-122495000D01*
X155978000Y-122495000D02*
X154490000Y-122495000D01*
X152410000Y-122455000D02*
X150914000Y-122455000D01*
X155986000Y-122455000D02*
X154490000Y-122455000D01*
X152410000Y-122415000D02*
X150907000Y-122415000D01*
X155993000Y-122415000D02*
X154490000Y-122415000D01*
X152410000Y-122375000D02*
X150900000Y-122375000D01*
X156000000Y-122375000D02*
X154490000Y-122375000D01*
X152410000Y-122335000D02*
X150894000Y-122335000D01*
X156006000Y-122335000D02*
X154490000Y-122335000D01*
X152410000Y-122295000D02*
X150889000Y-122295000D01*
X156011000Y-122295000D02*
X154490000Y-122295000D01*
X152410000Y-122255000D02*
X150885000Y-122255000D01*
X156015000Y-122255000D02*
X154490000Y-122255000D01*
X152410000Y-122215000D02*
X150881000Y-122215000D01*
X156019000Y-122215000D02*
X154490000Y-122215000D01*
X152410000Y-122175000D02*
X150877000Y-122175000D01*
X156023000Y-122175000D02*
X154490000Y-122175000D01*
X152410000Y-122135000D02*
X150874000Y-122135000D01*
X156026000Y-122135000D02*
X154490000Y-122135000D01*
X152410000Y-122095000D02*
X150872000Y-122095000D01*
X156028000Y-122095000D02*
X154490000Y-122095000D01*
X152410000Y-122055000D02*
X150871000Y-122055000D01*
X156029000Y-122055000D02*
X154490000Y-122055000D01*
X152410000Y-122015000D02*
X150870000Y-122015000D01*
X156030000Y-122015000D02*
X154490000Y-122015000D01*
X152410000Y-121975000D02*
X150870000Y-121975000D01*
X156030000Y-121975000D02*
X154490000Y-121975000D01*
X155175000Y-119420225D02*
X154675000Y-119420225D01*
X154925000Y-119170225D02*
X154925000Y-119670225D01*
%TO.C,C9*%
X213175000Y-84265113D02*
X213175000Y-84765113D01*
X213425000Y-84515113D02*
X212925000Y-84515113D01*
X214280000Y-87069888D02*
X212740000Y-87069888D01*
X210660000Y-87069888D02*
X209120000Y-87069888D01*
X214280000Y-87109888D02*
X212740000Y-87109888D01*
X210660000Y-87109888D02*
X209120000Y-87109888D01*
X214279000Y-87149888D02*
X212740000Y-87149888D01*
X210660000Y-87149888D02*
X209121000Y-87149888D01*
X214278000Y-87189888D02*
X212740000Y-87189888D01*
X210660000Y-87189888D02*
X209122000Y-87189888D01*
X214276000Y-87229888D02*
X212740000Y-87229888D01*
X210660000Y-87229888D02*
X209124000Y-87229888D01*
X214273000Y-87269888D02*
X212740000Y-87269888D01*
X210660000Y-87269888D02*
X209127000Y-87269888D01*
X214269000Y-87309888D02*
X212740000Y-87309888D01*
X210660000Y-87309888D02*
X209131000Y-87309888D01*
X214265000Y-87349888D02*
X212740000Y-87349888D01*
X210660000Y-87349888D02*
X209135000Y-87349888D01*
X214261000Y-87389888D02*
X212740000Y-87389888D01*
X210660000Y-87389888D02*
X209139000Y-87389888D01*
X214256000Y-87429888D02*
X212740000Y-87429888D01*
X210660000Y-87429888D02*
X209144000Y-87429888D01*
X214250000Y-87469888D02*
X212740000Y-87469888D01*
X210660000Y-87469888D02*
X209150000Y-87469888D01*
X214243000Y-87509888D02*
X212740000Y-87509888D01*
X210660000Y-87509888D02*
X209157000Y-87509888D01*
X214236000Y-87549888D02*
X212740000Y-87549888D01*
X210660000Y-87549888D02*
X209164000Y-87549888D01*
X214228000Y-87589888D02*
X212740000Y-87589888D01*
X210660000Y-87589888D02*
X209172000Y-87589888D01*
X214220000Y-87629888D02*
X212740000Y-87629888D01*
X210660000Y-87629888D02*
X209180000Y-87629888D01*
X214211000Y-87669888D02*
X212740000Y-87669888D01*
X210660000Y-87669888D02*
X209189000Y-87669888D01*
X214201000Y-87709888D02*
X212740000Y-87709888D01*
X210660000Y-87709888D02*
X209199000Y-87709888D01*
X214191000Y-87749888D02*
X212740000Y-87749888D01*
X210660000Y-87749888D02*
X209209000Y-87749888D01*
X214180000Y-87790888D02*
X212740000Y-87790888D01*
X210660000Y-87790888D02*
X209220000Y-87790888D01*
X214168000Y-87830888D02*
X212740000Y-87830888D01*
X210660000Y-87830888D02*
X209232000Y-87830888D01*
X214155000Y-87870888D02*
X212740000Y-87870888D01*
X210660000Y-87870888D02*
X209245000Y-87870888D01*
X214142000Y-87910888D02*
X212740000Y-87910888D01*
X210660000Y-87910888D02*
X209258000Y-87910888D01*
X214128000Y-87950888D02*
X212740000Y-87950888D01*
X210660000Y-87950888D02*
X209272000Y-87950888D01*
X214114000Y-87990888D02*
X212740000Y-87990888D01*
X210660000Y-87990888D02*
X209286000Y-87990888D01*
X214098000Y-88030888D02*
X212740000Y-88030888D01*
X210660000Y-88030888D02*
X209302000Y-88030888D01*
X214082000Y-88070888D02*
X212740000Y-88070888D01*
X210660000Y-88070888D02*
X209318000Y-88070888D01*
X214065000Y-88110888D02*
X212740000Y-88110888D01*
X210660000Y-88110888D02*
X209335000Y-88110888D01*
X214048000Y-88150888D02*
X212740000Y-88150888D01*
X210660000Y-88150888D02*
X209352000Y-88150888D01*
X214029000Y-88190888D02*
X212740000Y-88190888D01*
X210660000Y-88190888D02*
X209371000Y-88190888D01*
X214010000Y-88230888D02*
X212740000Y-88230888D01*
X210660000Y-88230888D02*
X209390000Y-88230888D01*
X213990000Y-88270888D02*
X212740000Y-88270888D01*
X210660000Y-88270888D02*
X209410000Y-88270888D01*
X213968000Y-88310888D02*
X212740000Y-88310888D01*
X210660000Y-88310888D02*
X209432000Y-88310888D01*
X213947000Y-88350888D02*
X212740000Y-88350888D01*
X210660000Y-88350888D02*
X209453000Y-88350888D01*
X213924000Y-88390888D02*
X212740000Y-88390888D01*
X210660000Y-88390888D02*
X209476000Y-88390888D01*
X213900000Y-88430888D02*
X212740000Y-88430888D01*
X210660000Y-88430888D02*
X209500000Y-88430888D01*
X213875000Y-88470888D02*
X212740000Y-88470888D01*
X210660000Y-88470888D02*
X209525000Y-88470888D01*
X213849000Y-88510888D02*
X212740000Y-88510888D01*
X210660000Y-88510888D02*
X209551000Y-88510888D01*
X213822000Y-88550888D02*
X212740000Y-88550888D01*
X210660000Y-88550888D02*
X209578000Y-88550888D01*
X213795000Y-88590888D02*
X212740000Y-88590888D01*
X210660000Y-88590888D02*
X209605000Y-88590888D01*
X213765000Y-88630888D02*
X212740000Y-88630888D01*
X210660000Y-88630888D02*
X209635000Y-88630888D01*
X213735000Y-88670888D02*
X212740000Y-88670888D01*
X210660000Y-88670888D02*
X209665000Y-88670888D01*
X213704000Y-88710888D02*
X212740000Y-88710888D01*
X210660000Y-88710888D02*
X209696000Y-88710888D01*
X213671000Y-88750888D02*
X212740000Y-88750888D01*
X210660000Y-88750888D02*
X209729000Y-88750888D01*
X213637000Y-88790888D02*
X212740000Y-88790888D01*
X210660000Y-88790888D02*
X209763000Y-88790888D01*
X213601000Y-88830888D02*
X212740000Y-88830888D01*
X210660000Y-88830888D02*
X209799000Y-88830888D01*
X213564000Y-88870888D02*
X212740000Y-88870888D01*
X210660000Y-88870888D02*
X209836000Y-88870888D01*
X213526000Y-88910888D02*
X212740000Y-88910888D01*
X210660000Y-88910888D02*
X209874000Y-88910888D01*
X213485000Y-88950888D02*
X212740000Y-88950888D01*
X210660000Y-88950888D02*
X209915000Y-88950888D01*
X213443000Y-88990888D02*
X212740000Y-88990888D01*
X210660000Y-88990888D02*
X209957000Y-88990888D01*
X213399000Y-89030888D02*
X212740000Y-89030888D01*
X210660000Y-89030888D02*
X210001000Y-89030888D01*
X213353000Y-89070888D02*
X212740000Y-89070888D01*
X210660000Y-89070888D02*
X210047000Y-89070888D01*
X213305000Y-89110888D02*
X210095000Y-89110888D01*
X213254000Y-89150888D02*
X210146000Y-89150888D01*
X213200000Y-89190888D02*
X210200000Y-89190888D01*
X213143000Y-89230888D02*
X210257000Y-89230888D01*
X213083000Y-89270888D02*
X210317000Y-89270888D01*
X213019000Y-89310888D02*
X210381000Y-89310888D01*
X212951000Y-89350888D02*
X210449000Y-89350888D01*
X212878000Y-89390888D02*
X210522000Y-89390888D01*
X212798000Y-89430888D02*
X210602000Y-89430888D01*
X212711000Y-89470888D02*
X210689000Y-89470888D01*
X212615000Y-89510888D02*
X210785000Y-89510888D01*
X212505000Y-89550888D02*
X210895000Y-89550888D01*
X212377000Y-89590888D02*
X211023000Y-89590888D01*
X212218000Y-89630888D02*
X211182000Y-89630888D01*
X211984000Y-89670888D02*
X211416000Y-89670888D01*
X214320000Y-87069888D02*
G75*
G03*
X209080000Y-87069888I-2620000J0D01*
G01*
X209080000Y-87069888D02*
G75*
G03*
X214320000Y-87069888I2620000J0D01*
G01*
%TO.C,U4*%
X209375000Y-103095000D02*
X214016000Y-103095000D01*
X209375000Y-103095000D02*
X209375000Y-92855000D01*
X210885000Y-103095000D02*
X210885000Y-92855000D01*
X214016000Y-103095000D02*
X214016000Y-92855000D01*
X209375000Y-99825000D02*
X210885000Y-99825000D01*
X209375000Y-96124000D02*
X210885000Y-96124000D01*
X209375000Y-92855000D02*
X214016000Y-92855000D01*
%TO.C,C15*%
X120890000Y-92680000D02*
G75*
G03*
X115650000Y-92680000I-2620000J0D01*
G01*
X115650000Y-92680000D02*
G75*
G03*
X120890000Y-92680000I2620000J0D01*
G01*
X115669000Y-92964000D02*
X115669000Y-92396000D01*
X115709000Y-93198000D02*
X115709000Y-92162000D01*
X115749000Y-93357000D02*
X115749000Y-92003000D01*
X115789000Y-93485000D02*
X115789000Y-91875000D01*
X115829000Y-93595000D02*
X115829000Y-91765000D01*
X115869000Y-93691000D02*
X115869000Y-91669000D01*
X115909000Y-93778000D02*
X115909000Y-91582000D01*
X115949000Y-93858000D02*
X115949000Y-91502000D01*
X115989000Y-93931000D02*
X115989000Y-91429000D01*
X116029000Y-93999000D02*
X116029000Y-91361000D01*
X116069000Y-94063000D02*
X116069000Y-91297000D01*
X116109000Y-94123000D02*
X116109000Y-91237000D01*
X116149000Y-94180000D02*
X116149000Y-91180000D01*
X116189000Y-94234000D02*
X116189000Y-91126000D01*
X116229000Y-94285000D02*
X116229000Y-91075000D01*
X116269000Y-91640000D02*
X116269000Y-91027000D01*
X116269000Y-94333000D02*
X116269000Y-93720000D01*
X116309000Y-91640000D02*
X116309000Y-90981000D01*
X116309000Y-94379000D02*
X116309000Y-93720000D01*
X116349000Y-91640000D02*
X116349000Y-90937000D01*
X116349000Y-94423000D02*
X116349000Y-93720000D01*
X116389000Y-91640000D02*
X116389000Y-90895000D01*
X116389000Y-94465000D02*
X116389000Y-93720000D01*
X116429000Y-91640000D02*
X116429000Y-90854000D01*
X116429000Y-94506000D02*
X116429000Y-93720000D01*
X116469000Y-91640000D02*
X116469000Y-90816000D01*
X116469000Y-94544000D02*
X116469000Y-93720000D01*
X116509000Y-91640000D02*
X116509000Y-90779000D01*
X116509000Y-94581000D02*
X116509000Y-93720000D01*
X116549000Y-91640000D02*
X116549000Y-90743000D01*
X116549000Y-94617000D02*
X116549000Y-93720000D01*
X116589000Y-91640000D02*
X116589000Y-90709000D01*
X116589000Y-94651000D02*
X116589000Y-93720000D01*
X116629000Y-91640000D02*
X116629000Y-90676000D01*
X116629000Y-94684000D02*
X116629000Y-93720000D01*
X116669000Y-91640000D02*
X116669000Y-90645000D01*
X116669000Y-94715000D02*
X116669000Y-93720000D01*
X116709000Y-91640000D02*
X116709000Y-90615000D01*
X116709000Y-94745000D02*
X116709000Y-93720000D01*
X116749000Y-91640000D02*
X116749000Y-90585000D01*
X116749000Y-94775000D02*
X116749000Y-93720000D01*
X116789000Y-91640000D02*
X116789000Y-90558000D01*
X116789000Y-94802000D02*
X116789000Y-93720000D01*
X116829000Y-91640000D02*
X116829000Y-90531000D01*
X116829000Y-94829000D02*
X116829000Y-93720000D01*
X116869000Y-91640000D02*
X116869000Y-90505000D01*
X116869000Y-94855000D02*
X116869000Y-93720000D01*
X116909000Y-91640000D02*
X116909000Y-90480000D01*
X116909000Y-94880000D02*
X116909000Y-93720000D01*
X116949000Y-91640000D02*
X116949000Y-90456000D01*
X116949000Y-94904000D02*
X116949000Y-93720000D01*
X116989000Y-91640000D02*
X116989000Y-90433000D01*
X116989000Y-94927000D02*
X116989000Y-93720000D01*
X117029000Y-91640000D02*
X117029000Y-90412000D01*
X117029000Y-94948000D02*
X117029000Y-93720000D01*
X117069000Y-91640000D02*
X117069000Y-90390000D01*
X117069000Y-94970000D02*
X117069000Y-93720000D01*
X117109000Y-91640000D02*
X117109000Y-90370000D01*
X117109000Y-94990000D02*
X117109000Y-93720000D01*
X117149000Y-91640000D02*
X117149000Y-90351000D01*
X117149000Y-95009000D02*
X117149000Y-93720000D01*
X117189000Y-91640000D02*
X117189000Y-90332000D01*
X117189000Y-95028000D02*
X117189000Y-93720000D01*
X117229000Y-91640000D02*
X117229000Y-90315000D01*
X117229000Y-95045000D02*
X117229000Y-93720000D01*
X117269000Y-91640000D02*
X117269000Y-90298000D01*
X117269000Y-95062000D02*
X117269000Y-93720000D01*
X117309000Y-91640000D02*
X117309000Y-90282000D01*
X117309000Y-95078000D02*
X117309000Y-93720000D01*
X117349000Y-91640000D02*
X117349000Y-90266000D01*
X117349000Y-95094000D02*
X117349000Y-93720000D01*
X117389000Y-91640000D02*
X117389000Y-90252000D01*
X117389000Y-95108000D02*
X117389000Y-93720000D01*
X117429000Y-91640000D02*
X117429000Y-90238000D01*
X117429000Y-95122000D02*
X117429000Y-93720000D01*
X117469000Y-91640000D02*
X117469000Y-90225000D01*
X117469000Y-95135000D02*
X117469000Y-93720000D01*
X117509000Y-91640000D02*
X117509000Y-90212000D01*
X117509000Y-95148000D02*
X117509000Y-93720000D01*
X117549000Y-91640000D02*
X117549000Y-90200000D01*
X117549000Y-95160000D02*
X117549000Y-93720000D01*
X117590000Y-91640000D02*
X117590000Y-90189000D01*
X117590000Y-95171000D02*
X117590000Y-93720000D01*
X117630000Y-91640000D02*
X117630000Y-90179000D01*
X117630000Y-95181000D02*
X117630000Y-93720000D01*
X117670000Y-91640000D02*
X117670000Y-90169000D01*
X117670000Y-95191000D02*
X117670000Y-93720000D01*
X117710000Y-91640000D02*
X117710000Y-90160000D01*
X117710000Y-95200000D02*
X117710000Y-93720000D01*
X117750000Y-91640000D02*
X117750000Y-90152000D01*
X117750000Y-95208000D02*
X117750000Y-93720000D01*
X117790000Y-91640000D02*
X117790000Y-90144000D01*
X117790000Y-95216000D02*
X117790000Y-93720000D01*
X117830000Y-91640000D02*
X117830000Y-90137000D01*
X117830000Y-95223000D02*
X117830000Y-93720000D01*
X117870000Y-91640000D02*
X117870000Y-90130000D01*
X117870000Y-95230000D02*
X117870000Y-93720000D01*
X117910000Y-91640000D02*
X117910000Y-90124000D01*
X117910000Y-95236000D02*
X117910000Y-93720000D01*
X117950000Y-91640000D02*
X117950000Y-90119000D01*
X117950000Y-95241000D02*
X117950000Y-93720000D01*
X117990000Y-91640000D02*
X117990000Y-90115000D01*
X117990000Y-95245000D02*
X117990000Y-93720000D01*
X118030000Y-91640000D02*
X118030000Y-90111000D01*
X118030000Y-95249000D02*
X118030000Y-93720000D01*
X118070000Y-91640000D02*
X118070000Y-90107000D01*
X118070000Y-95253000D02*
X118070000Y-93720000D01*
X118110000Y-91640000D02*
X118110000Y-90104000D01*
X118110000Y-95256000D02*
X118110000Y-93720000D01*
X118150000Y-91640000D02*
X118150000Y-90102000D01*
X118150000Y-95258000D02*
X118150000Y-93720000D01*
X118190000Y-91640000D02*
X118190000Y-90101000D01*
X118190000Y-95259000D02*
X118190000Y-93720000D01*
X118230000Y-91640000D02*
X118230000Y-90100000D01*
X118230000Y-95260000D02*
X118230000Y-93720000D01*
X118270000Y-91640000D02*
X118270000Y-90100000D01*
X118270000Y-95260000D02*
X118270000Y-93720000D01*
X120824775Y-94405000D02*
X120824775Y-93905000D01*
X121074775Y-94155000D02*
X120574775Y-94155000D01*
%TO.C,R1*%
X168570000Y-86745000D02*
X162030000Y-86745000D01*
X168570000Y-86415000D02*
X168570000Y-86745000D01*
X168570000Y-84335000D02*
X168570000Y-84005000D01*
X168570000Y-84005000D02*
X162030000Y-84005000D01*
X162030000Y-86745000D02*
X162030000Y-86415000D01*
X162030000Y-84005000D02*
X162030000Y-84335000D01*
%TO.C,R3*%
X156820000Y-97555000D02*
X156490000Y-97555000D01*
X154080000Y-97555000D02*
X154410000Y-97555000D01*
X156820000Y-104095000D02*
X156820000Y-97555000D01*
X156490000Y-104095000D02*
X156820000Y-104095000D01*
X154410000Y-104095000D02*
X154080000Y-104095000D01*
X154080000Y-104095000D02*
X154080000Y-97555000D01*
D12*
%TO.C,S1*%
X228950000Y-82175000D02*
X228950000Y-81675000D01*
X228950000Y-82175000D02*
X228450000Y-82175000D01*
X228950000Y-77975000D02*
X228950000Y-78475000D01*
X228950000Y-77975000D02*
X228450000Y-77975000D01*
X217050000Y-82175000D02*
X217550000Y-82175000D01*
X217050000Y-82175000D02*
X217050000Y-81675000D01*
X217050000Y-77975000D02*
X217550000Y-77975000D01*
X217050000Y-77975000D02*
X217050000Y-78475000D01*
D16*
%TO.C,R14*%
X182580000Y-100905000D02*
X182580000Y-101235000D01*
X182580000Y-103645000D02*
X182580000Y-103315000D01*
X189120000Y-100905000D02*
X182580000Y-100905000D01*
X189120000Y-101235000D02*
X189120000Y-100905000D01*
X189120000Y-103315000D02*
X189120000Y-103645000D01*
X189120000Y-103645000D02*
X182580000Y-103645000D01*
%TO.C,D4*%
X214770000Y-109355000D02*
X214770000Y-114795000D01*
X214440000Y-109355000D02*
X214770000Y-109355000D01*
X212160000Y-109355000D02*
X211830000Y-109355000D01*
X211830000Y-109355000D02*
X211830000Y-114795000D01*
X214770000Y-110135000D02*
X211830000Y-110135000D01*
X214770000Y-110255000D02*
X211830000Y-110255000D01*
X214770000Y-110375000D02*
X211830000Y-110375000D01*
X214770000Y-114795000D02*
X214440000Y-114795000D01*
X211830000Y-114795000D02*
X212160000Y-114795000D01*
%TO.C,D1*%
X230060000Y-95095000D02*
X224620000Y-95095000D01*
X230060000Y-94765000D02*
X230060000Y-95095000D01*
X230060000Y-92485000D02*
X230060000Y-92155000D01*
X230060000Y-92155000D02*
X224620000Y-92155000D01*
X229280000Y-95095000D02*
X229280000Y-92155000D01*
X229160000Y-95095000D02*
X229160000Y-92155000D01*
X229040000Y-95095000D02*
X229040000Y-92155000D01*
X224620000Y-95095000D02*
X224620000Y-94765000D01*
X224620000Y-92155000D02*
X224620000Y-92485000D01*
%TO.C,R6*%
X201420000Y-100345000D02*
X194880000Y-100345000D01*
X201420000Y-100015000D02*
X201420000Y-100345000D01*
X201420000Y-97935000D02*
X201420000Y-97605000D01*
X201420000Y-97605000D02*
X194880000Y-97605000D01*
X194880000Y-100345000D02*
X194880000Y-100015000D01*
X194880000Y-97605000D02*
X194880000Y-97935000D01*
%TO.C,C10*%
X214825000Y-119070225D02*
X214825000Y-119570225D01*
X215075000Y-119320225D02*
X214575000Y-119320225D01*
X215930000Y-121875000D02*
X214390000Y-121875000D01*
X212310000Y-121875000D02*
X210770000Y-121875000D01*
X215930000Y-121915000D02*
X214390000Y-121915000D01*
X212310000Y-121915000D02*
X210770000Y-121915000D01*
X215929000Y-121955000D02*
X214390000Y-121955000D01*
X212310000Y-121955000D02*
X210771000Y-121955000D01*
X215928000Y-121995000D02*
X214390000Y-121995000D01*
X212310000Y-121995000D02*
X210772000Y-121995000D01*
X215926000Y-122035000D02*
X214390000Y-122035000D01*
X212310000Y-122035000D02*
X210774000Y-122035000D01*
X215923000Y-122075000D02*
X214390000Y-122075000D01*
X212310000Y-122075000D02*
X210777000Y-122075000D01*
X215919000Y-122115000D02*
X214390000Y-122115000D01*
X212310000Y-122115000D02*
X210781000Y-122115000D01*
X215915000Y-122155000D02*
X214390000Y-122155000D01*
X212310000Y-122155000D02*
X210785000Y-122155000D01*
X215911000Y-122195000D02*
X214390000Y-122195000D01*
X212310000Y-122195000D02*
X210789000Y-122195000D01*
X215906000Y-122235000D02*
X214390000Y-122235000D01*
X212310000Y-122235000D02*
X210794000Y-122235000D01*
X215900000Y-122275000D02*
X214390000Y-122275000D01*
X212310000Y-122275000D02*
X210800000Y-122275000D01*
X215893000Y-122315000D02*
X214390000Y-122315000D01*
X212310000Y-122315000D02*
X210807000Y-122315000D01*
X215886000Y-122355000D02*
X214390000Y-122355000D01*
X212310000Y-122355000D02*
X210814000Y-122355000D01*
X215878000Y-122395000D02*
X214390000Y-122395000D01*
X212310000Y-122395000D02*
X210822000Y-122395000D01*
X215870000Y-122435000D02*
X214390000Y-122435000D01*
X212310000Y-122435000D02*
X210830000Y-122435000D01*
X215861000Y-122475000D02*
X214390000Y-122475000D01*
X212310000Y-122475000D02*
X210839000Y-122475000D01*
X215851000Y-122515000D02*
X214390000Y-122515000D01*
X212310000Y-122515000D02*
X210849000Y-122515000D01*
X215841000Y-122555000D02*
X214390000Y-122555000D01*
X212310000Y-122555000D02*
X210859000Y-122555000D01*
X215830000Y-122596000D02*
X214390000Y-122596000D01*
X212310000Y-122596000D02*
X210870000Y-122596000D01*
X215818000Y-122636000D02*
X214390000Y-122636000D01*
X212310000Y-122636000D02*
X210882000Y-122636000D01*
X215805000Y-122676000D02*
X214390000Y-122676000D01*
X212310000Y-122676000D02*
X210895000Y-122676000D01*
X215792000Y-122716000D02*
X214390000Y-122716000D01*
X212310000Y-122716000D02*
X210908000Y-122716000D01*
X215778000Y-122756000D02*
X214390000Y-122756000D01*
X212310000Y-122756000D02*
X210922000Y-122756000D01*
X215764000Y-122796000D02*
X214390000Y-122796000D01*
X212310000Y-122796000D02*
X210936000Y-122796000D01*
X215748000Y-122836000D02*
X214390000Y-122836000D01*
X212310000Y-122836000D02*
X210952000Y-122836000D01*
X215732000Y-122876000D02*
X214390000Y-122876000D01*
X212310000Y-122876000D02*
X210968000Y-122876000D01*
X215715000Y-122916000D02*
X214390000Y-122916000D01*
X212310000Y-122916000D02*
X210985000Y-122916000D01*
X215698000Y-122956000D02*
X214390000Y-122956000D01*
X212310000Y-122956000D02*
X211002000Y-122956000D01*
X215679000Y-122996000D02*
X214390000Y-122996000D01*
X212310000Y-122996000D02*
X211021000Y-122996000D01*
X215660000Y-123036000D02*
X214390000Y-123036000D01*
X212310000Y-123036000D02*
X211040000Y-123036000D01*
X215640000Y-123076000D02*
X214390000Y-123076000D01*
X212310000Y-123076000D02*
X211060000Y-123076000D01*
X215618000Y-123116000D02*
X214390000Y-123116000D01*
X212310000Y-123116000D02*
X211082000Y-123116000D01*
X215597000Y-123156000D02*
X214390000Y-123156000D01*
X212310000Y-123156000D02*
X211103000Y-123156000D01*
X215574000Y-123196000D02*
X214390000Y-123196000D01*
X212310000Y-123196000D02*
X211126000Y-123196000D01*
X215550000Y-123236000D02*
X214390000Y-123236000D01*
X212310000Y-123236000D02*
X211150000Y-123236000D01*
X215525000Y-123276000D02*
X214390000Y-123276000D01*
X212310000Y-123276000D02*
X211175000Y-123276000D01*
X215499000Y-123316000D02*
X214390000Y-123316000D01*
X212310000Y-123316000D02*
X211201000Y-123316000D01*
X215472000Y-123356000D02*
X214390000Y-123356000D01*
X212310000Y-123356000D02*
X211228000Y-123356000D01*
X215445000Y-123396000D02*
X214390000Y-123396000D01*
X212310000Y-123396000D02*
X211255000Y-123396000D01*
X215415000Y-123436000D02*
X214390000Y-123436000D01*
X212310000Y-123436000D02*
X211285000Y-123436000D01*
X215385000Y-123476000D02*
X214390000Y-123476000D01*
X212310000Y-123476000D02*
X211315000Y-123476000D01*
X215354000Y-123516000D02*
X214390000Y-123516000D01*
X212310000Y-123516000D02*
X211346000Y-123516000D01*
X215321000Y-123556000D02*
X214390000Y-123556000D01*
X212310000Y-123556000D02*
X211379000Y-123556000D01*
X215287000Y-123596000D02*
X214390000Y-123596000D01*
X212310000Y-123596000D02*
X211413000Y-123596000D01*
X215251000Y-123636000D02*
X214390000Y-123636000D01*
X212310000Y-123636000D02*
X211449000Y-123636000D01*
X215214000Y-123676000D02*
X214390000Y-123676000D01*
X212310000Y-123676000D02*
X211486000Y-123676000D01*
X215176000Y-123716000D02*
X214390000Y-123716000D01*
X212310000Y-123716000D02*
X211524000Y-123716000D01*
X215135000Y-123756000D02*
X214390000Y-123756000D01*
X212310000Y-123756000D02*
X211565000Y-123756000D01*
X215093000Y-123796000D02*
X214390000Y-123796000D01*
X212310000Y-123796000D02*
X211607000Y-123796000D01*
X215049000Y-123836000D02*
X214390000Y-123836000D01*
X212310000Y-123836000D02*
X211651000Y-123836000D01*
X215003000Y-123876000D02*
X214390000Y-123876000D01*
X212310000Y-123876000D02*
X211697000Y-123876000D01*
X214955000Y-123916000D02*
X211745000Y-123916000D01*
X214904000Y-123956000D02*
X211796000Y-123956000D01*
X214850000Y-123996000D02*
X211850000Y-123996000D01*
X214793000Y-124036000D02*
X211907000Y-124036000D01*
X214733000Y-124076000D02*
X211967000Y-124076000D01*
X214669000Y-124116000D02*
X212031000Y-124116000D01*
X214601000Y-124156000D02*
X212099000Y-124156000D01*
X214528000Y-124196000D02*
X212172000Y-124196000D01*
X214448000Y-124236000D02*
X212252000Y-124236000D01*
X214361000Y-124276000D02*
X212339000Y-124276000D01*
X214265000Y-124316000D02*
X212435000Y-124316000D01*
X214155000Y-124356000D02*
X212545000Y-124356000D01*
X214027000Y-124396000D02*
X212673000Y-124396000D01*
X213868000Y-124436000D02*
X212832000Y-124436000D01*
X213634000Y-124476000D02*
X213066000Y-124476000D01*
X215970000Y-121875000D02*
G75*
G03*
X210730000Y-121875000I-2620000J0D01*
G01*
X210730000Y-121875000D02*
G75*
G03*
X215970000Y-121875000I2620000J0D01*
G01*
%TO.C,R21*%
X127280000Y-120270000D02*
X127610000Y-120270000D01*
X130020000Y-120270000D02*
X129690000Y-120270000D01*
X127280000Y-113730000D02*
X127280000Y-120270000D01*
X127610000Y-113730000D02*
X127280000Y-113730000D01*
X129690000Y-113730000D02*
X130020000Y-113730000D01*
X130020000Y-113730000D02*
X130020000Y-120270000D01*
%TO.C,U5*%
X244480000Y-88650000D02*
X244480000Y-93291000D01*
X244480000Y-88650000D02*
X254720000Y-88650000D01*
X244480000Y-90160000D02*
X254720000Y-90160000D01*
X244480000Y-93291000D02*
X254720000Y-93291000D01*
X247750000Y-88650000D02*
X247750000Y-90160000D01*
X251451000Y-88650000D02*
X251451000Y-90160000D01*
X254720000Y-88650000D02*
X254720000Y-93291000D01*
%TO.C,C14*%
X236440000Y-80075000D02*
X237130000Y-80075000D01*
X237130000Y-78655000D02*
X237130000Y-81495000D01*
X237130000Y-81495000D02*
X241170000Y-81495000D01*
X241170000Y-78655000D02*
X237130000Y-78655000D01*
X241170000Y-81495000D02*
X241170000Y-78655000D01*
X241860000Y-80075000D02*
X241170000Y-80075000D01*
%TO.C,D3*%
X222270000Y-116555000D02*
X227710000Y-116555000D01*
X222270000Y-116885000D02*
X222270000Y-116555000D01*
X222270000Y-119165000D02*
X222270000Y-119495000D01*
X222270000Y-119495000D02*
X227710000Y-119495000D01*
X223050000Y-116555000D02*
X223050000Y-119495000D01*
X223170000Y-116555000D02*
X223170000Y-119495000D01*
X223290000Y-116555000D02*
X223290000Y-119495000D01*
X227710000Y-116555000D02*
X227710000Y-116885000D01*
X227710000Y-119495000D02*
X227710000Y-119165000D01*
%TO.C,R18*%
X189160000Y-90945000D02*
X189160000Y-90615000D01*
X189160000Y-88205000D02*
X189160000Y-88535000D01*
X182620000Y-90945000D02*
X189160000Y-90945000D01*
X182620000Y-90615000D02*
X182620000Y-90945000D01*
X182620000Y-88535000D02*
X182620000Y-88205000D01*
X182620000Y-88205000D02*
X189160000Y-88205000D01*
%TO.C,R8*%
X189010000Y-117195000D02*
X189010000Y-116865000D01*
X189010000Y-114455000D02*
X189010000Y-114785000D01*
X182470000Y-117195000D02*
X189010000Y-117195000D01*
X182470000Y-116865000D02*
X182470000Y-117195000D01*
X182470000Y-114785000D02*
X182470000Y-114455000D01*
X182470000Y-114455000D02*
X189010000Y-114455000D01*
%TD*%
D17*
%TO.C,RV1*%
X116350000Y-108450000D03*
X113810000Y-110990000D03*
D18*
X116350000Y-113530000D03*
%TD*%
%TO.C,RV2*%
X118430000Y-122200000D03*
D17*
X115890000Y-124740000D03*
X113350000Y-122200000D03*
%TD*%
M02*
